<?xml version="1.0" standalone="no"?>
<!DOCTYPE svg PUBLIC "-//W3C//DTD SVG 1.1//EN" "http://www.w3.org/Graphics/SVG/1.1/DTD/svg11.dtd" >
<svg xmlns="http://www.w3.org/2000/svg" xmlns:xlink="http://www.w3.org/1999/xlink" version="1.1">
<metadata></metadata>
<defs>
<font id="built_titlingregular" horiz-adv-x="684" >
<font-face units-per-em="2048" ascent="1561" descent="-487" />
<missing-glyph horiz-adv-x="303" />
<glyph unicode="&#x28;C&#x29;" horiz-adv-x="937" d="M49 776q0 246 7.5 374.5t22 188.5t46.5 111q46 71 118 99t226 28t226 -28t118 -99q32 -51 46.5 -111t22 -188.5t7.5 -374.5q0 -355 -15 -479t-61 -197q-46 -71 -118 -99t-226 -28t-226 28t-118 99q-46 73 -61 197t-15 479zM158 776q0 -338 10.5 -449.5t44.5 -164.5 q27 -42 81 -61t175 -19t175 19t81 61q34 53 44.5 164.5t10.5 449.5q0 337 -10.5 448.5t-44.5 164.5q-27 42 -80.5 60.5t-175.5 18.5t-175.5 -18.5t-80.5 -60.5q-34 -53 -44.5 -164.5t-10.5 -448.5zM307 784q0 203 5 269.5t20 99.5q20 42 45 56t92 14q68 0 93.5 -14.5 t39.5 -55.5q21 -65 21 -182q0 -53 -2 -80h-99q2 27 2 76q0 73 -3 97t-13 38q-12 18 -39 18q-31 0 -43 -18q-10 -19 -12 -61.5t-2 -256.5t2 -256t12 -61q12 -18 43 -18q27 0 39 18q10 14 13 38t3 97q0 49 -2 76h99q2 -27 2 -80q0 -118 -21 -182q-14 -41 -39.5 -55.5 t-93.5 -14.5q-67 0 -92 14t-45 56q-15 33 -20 99t-5 269z" />
<glyph unicode="&#x28;R&#x29;" horiz-adv-x="937" d="M49 776q0 246 7.5 374.5t22 188.5t46.5 111q46 71 118 99t226 28t226 -28t118 -99q32 -51 46.5 -111t22 -188.5t7.5 -374.5q0 -355 -15 -479t-61 -197q-46 -71 -118 -99t-226 -28t-226 28t-118 99q-46 73 -61 197t-15 479zM158 776q0 -338 10.5 -449.5t44.5 -164.5 q27 -42 81 -61t175 -19t175 19t81 61q34 53 44.5 164.5t10.5 449.5q0 337 -10.5 448.5t-44.5 164.5q-27 42 -80.5 60.5t-175.5 18.5t-175.5 -18.5t-80.5 -60.5q-34 -53 -44.5 -164.5t-10.5 -448.5zM315 352v856h181q79 0 106 -48t27 -183q0 -113 -11.5 -154t-42.5 -59v-14 q18 -18 25 -51.5t16 -153.5q13 -164 25 -185v-8h-102q-7 15 -10 27.5t-8.5 60t-10.5 129.5q-4 68 -9.5 98t-13 38t-24.5 8h-43v-361h-105zM420 807h53q34 0 43.5 26t9.5 130q0 65 -5 95.5t-14 39t-28 8.5h-59v-299z" />
<glyph horiz-adv-x="0" />
<glyph horiz-adv-x="682" />
<glyph horiz-adv-x="303" />
<glyph unicode=" "  horiz-adv-x="303" />
<glyph unicode="&#x09;" horiz-adv-x="303" />
<glyph unicode="&#xa0;" horiz-adv-x="303" />
<glyph unicode="!" horiz-adv-x="339" d="M68 1614h204l-32 -1149h-140zM80 0v309h180v-309h-180z" />
<glyph unicode="&#x22;" horiz-adv-x="579" d="M59 1614h177l-29 -561h-119zM342 1614h176l-29 -561h-118z" />
<glyph unicode="#" d="M39 467v117h119v385h-119v118h119v463h116v-463h134v463h118v-463h119v-118h-119v-385h119v-117h-119v-467h-118v467h-134v-467h-116v467h-119zM274 584h134v385h-134v-385z" />
<glyph unicode="$" d="M72 1139q0 97 15.5 148.5t51.5 84.5q29 24 55.5 34t77.5 13v221h127v-221q60 -3 94 -15t60 -40q27 -30 37 -75.5t10 -127.5q0 -89 -10 -137h-156q4 20 4 96q0 63 -5 90t-23 43q-11 14 -25.5 18.5t-48.5 4.5q-32 0 -45 -5t-27 -20q-22 -34 -22 -135q0 -110 10 -139 q6 -19 16 -28.5t43 -28.5q26 -15 92.5 -45t96.5 -46q30 -18 41.5 -25.5t24 -19.5t22.5 -28q16 -29 22 -77t6 -163q0 -127 -15.5 -189t-57.5 -104q-27 -27 -59 -40t-85 -17v-254h-127v254q-54 5 -87 20.5t-58 49.5q-29 37 -40 83.5t-11 145.5q0 55 10 127h162q-6 -34 -6 -94 q0 -67 4 -94.5t16 -51.5q22 -28 76 -28q38 0 55 6.5t31 25.5q20 36 20 164q0 94 -10 125q-6 18 -19 29.5t-44 27.5q-14 7 -55 27t-65 32t-55.5 30t-50.5 32q-41 32 -57 98t-16 218z" />
<glyph unicode="%" horiz-adv-x="929" d="M33 1143q0 204 5.5 280t22.5 111q15 33 40.5 43t101.5 10q52 0 79 -5t39 -15.5t23 -32.5q17 -35 22 -109.5t5 -281.5q0 -208 -5 -284t-22 -109q-16 -31 -41.5 -41.5t-99.5 -10.5q-76 0 -102 10.5t-40 41.5q-17 34 -22.5 111t-5.5 282zM86 0v8l639 1542h119v-10 l-641 -1540h-117zM156 1143q0 -176 2 -226.5t8 -70.5q4 -12 11 -15.5t26 -3.5q18 0 25.5 3.5t11.5 15.5q12 38 12 297q0 176 -2.5 228t-9.5 73q-10 20 -37 20q-20 0 -26.5 -3.5t-10.5 -16.5q-6 -20 -8 -67.5t-2 -233.5zM557 410q0 202 6 278.5t23 112.5q15 33 40 43t101 10 q52 0 79 -5t39 -15.5t23 -32.5q17 -35 22 -109.5t5 -281.5q0 -208 -5 -284.5t-22 -109.5q-16 -31 -41 -41t-100 -10q-76 0 -101.5 10t-39.5 41q-17 34 -23 112.5t-6 281.5zM680 410q0 -176 2 -226.5t8 -70.5q4 -12 11 -15.5t26 -3.5q18 0 25.5 3.5t11.5 15.5q12 37 12 297 q0 264 -12 301q-10 20 -37 20q-20 0 -26.5 -3.5t-10.5 -16.5q-6 -20 -8 -67.5t-2 -233.5z" />
<glyph unicode="&#x26;" horiz-adv-x="811" d="M49 430q0 79 1 124t7.5 90t15 68t28.5 50t43 45.5t63 44.5l37 25l-33 77q-41 94 -51 147t-10 165q0 69 4 115.5t15.5 83t28 57t46.5 33.5t66 17.5t91 4.5q49 0 80.5 -4t59 -18t42.5 -36.5t25.5 -62t14.5 -92.5t4 -131q0 -97 -4 -149t-20.5 -95.5t-41.5 -69.5t-74 -63 l-55 -37q94 -210 105 -260h8q8 48 69 227h168v-10l-145 -422l154 -346v-8h-160q-54 122 -62 147h-8q-8 -41 -24 -73q-29 -54 -81 -77.5t-141 -23.5q-46 0 -77.5 2.5t-60.5 11.5t-47 22.5t-33.5 39t-23.5 57t-14 81t-8 106.5t-2 137zM229 459q0 -142 9 -201.5t28 -75.5 t68 -16q42 0 60.5 18.5t41.5 83.5l33 97l-162 368l-26 -18q-24 -16 -33.5 -33.5t-14 -66t-4.5 -156.5zM303 1229q0 -81 6.5 -113.5t36.5 -99.5l25 -55l39 26q35 24 47 42t17 56.5t5 133.5q0 96 -6.5 134t-22 49t-57.5 11q-43 0 -60 -11.5t-23.5 -47.5t-6.5 -125z" />
<glyph unicode="'" horiz-adv-x="296" d="M59 1614h177l-29 -561h-119z" />
<glyph unicode="(" d="M221 741q0 271 20 482t57.5 352t80 232.5t98.5 162.5h139v-10q-58 -75 -100 -163.5t-80 -228t-57 -347.5t-19 -482q0 -272 19 -475.5t58 -342t79 -224.5t100 -174v-10h-139q-56 72 -98.5 162.5t-80 231.5t-57.5 351.5t-20 482.5z" />
<glyph unicode=")" d="M66 -477q60 88 100 174t79 224.5t58 342t19 475.5t-19.5 476.5t-58.5 344t-78.5 225t-99.5 175.5v10h139q56 -71 98.5 -162.5t80 -232.5t57.5 -352t20 -482q0 -272 -20 -482.5t-57.5 -351.5t-80 -231.5t-98.5 -162.5h-139v10z" />
<glyph unicode="*" horiz-adv-x="997" d="M88 1075l342 66l4 14l-295 180l60 86l266 -227l16 8l-24 348h102l-29 -348l15 -8l254 240l65 -80l-289 -199l5 -14l344 -47l-21 -101l-336 101l-8 -13l180 -297l-92 -49l-133 322h-14l-117 -326l-96 41l166 309l-11 13l-325 -119z" />
<glyph unicode="+" d="M39 707v139h231v233h142v-233h233v-139h-233v-234h-142v234h-231z" />
<glyph unicode="," horiz-adv-x="319" d="M68 20v238h184v-250l-92 -299h-86v10l59 289l-4 12h-61z" />
<glyph unicode="-" horiz-adv-x="557" d="M45 707v147h465v-147h-465z" />
<glyph unicode="." horiz-adv-x="315" d="M68 0v258h180v-258h-180z" />
<glyph unicode="/" d="M16 -313l514 2050h138l-514 -2050h-138z" />
<glyph unicode="0" d="M49 776q0 375 10 515t41 202q18 36 38.5 52t66.5 24t137 8t137 -8t66.5 -24t38.5 -52q31 -62 41 -202t10 -515t-10 -516t-41 -203q-18 -36 -38.5 -52t-66.5 -24t-137 -8t-137 8t-66.5 24t-38.5 52q-31 62 -41 203t-10 516zM229 776q0 -323 5 -421.5t18 -137.5 q12 -33 29 -42t61 -9t61 9t29 42q13 39 18 137.5t5 421.5q0 340 -4.5 433.5t-18.5 133.5q-12 33 -29.5 43.5t-60.5 10.5t-60.5 -10.5t-29.5 -43.5q-14 -40 -18.5 -133.5t-4.5 -433.5z" />
<glyph unicode="1" d="M72 1141v164h98q61 0 83.5 21t25.5 89l6 135h155v-1357h172v-193h-538v193h180v948h-182z" />
<glyph unicode="2" d="M55 1120q0 165 9 241.5t38 119.5q37 55 83.5 75.5t154.5 20.5q116 0 169.5 -24t82.5 -87q28 -58 35.5 -129.5t7.5 -263.5q0 -154 -5.5 -212t-25.5 -113q-23 -64 -54 -122.5t-95 -156.5l-179 -270q5 -10 5 -13h344v-186h-564v205l230 336q107 156 135 252q27 85 27 278 q0 164 -5.5 214t-21.5 77q-12 20 -30 27.5t-56 7.5q-40 0 -57 -7t-29 -28q-15 -25 -20 -69.5t-5 -172.5q0 -122 2 -155h-172q-4 43 -4 155z" />
<glyph unicode="3" d="M47 440q0 61 4 97h170q-2 -23 -2 -97q0 -116 4 -159t17 -70q12 -29 30.5 -37t67.5 -8q55 0 74 8.5t32 38.5q11 27 15 66.5t4 162.5q0 138 -4 176t-19 60q-12 17 -31.5 22t-70.5 5h-125v182h125q53 0 69.5 6t26.5 31q11 27 14 63t3 139q0 123 -4 166.5t-15 69.5 q-11 25 -30 32t-64 7q-46 0 -61.5 -6t-32.5 -33q-14 -24 -17.5 -58t-3.5 -139q0 -79 2 -110h-172q-2 20 -2 110q0 138 8 202.5t35 113.5q29 52 81.5 74t162.5 22q115 0 164.5 -18.5t79.5 -77.5q25 -49 33 -115.5t8 -214.5q0 -126 -7.5 -190.5t-25 -98t-55.5 -55.5v-12 q26 -15 39 -26t27.5 -35t21 -62t10.5 -100t4 -154q0 -180 -7.5 -240t-37.5 -112q-31 -54 -83 -73.5t-171 -19.5q-109 0 -159.5 23t-82.5 78q-32 56 -40.5 124.5t-8.5 241.5z" />
<glyph unicode="4" d="M35 313v179l342 1058h188v-1073h82v-164h-82v-313h-180v313h-350zM207 489l6 -12h178v387q0 117 6 191h-16q-11 -55 -174 -566z" />
<glyph unicode="5" d="M51 455q0 77 6 139h170q-4 -54 -4 -105q0 -139 5 -187t24 -91q11 -25 31 -35t63 -10q41 0 57.5 10t26.5 35q17 41 20 102t3 308q0 144 -5.5 190.5t-21.5 69.5q-12 17 -27.5 22.5t-48.5 5.5q-53 0 -76 -18q-32 -22 -47 -57l-149 45l35 671h503v-186h-342l-20 -340l10 -4 q46 49 148 49q59 0 90 -12.5t59 -46.5q42 -51 57 -126t15 -257q0 -220 -12.5 -339t-40.5 -188q-29 -70 -85 -98.5t-165 -28.5q-108 0 -167 43.5t-85.5 146.5t-26.5 292z" />
<glyph unicode="6" d="M49 776q0 127 0.5 206t3.5 166t6.5 134.5t13 100.5t18.5 77t27.5 51t36.5 36t49.5 18t61.5 10.5t76 1.5q36 0 58.5 -0.5t50.5 -3.5t44 -9t35.5 -16t30 -24.5t22.5 -36t17.5 -49.5t11 -64.5t7.5 -82t2 -101.5q0 -10 -1.5 -32t-1.5 -34h-167q2 18 2 64q0 110 -11 153 q-8 33 -28 44.5t-72 11.5q-42 0 -59.5 -10.5t-28.5 -38.5q-15 -40 -20 -116t-5 -308l9 -6q47 43 145 43q69 0 106 -12t68 -48q42 -44 59 -125.5t17 -257.5q0 -191 -12 -292.5t-46 -157.5q-34 -55 -82.5 -75t-150.5 -20q-109 0 -155 18.5t-78 78.5q-40 76 -50 197.5 t-10 508.5zM229 575q0 -196 4.5 -258.5t18.5 -99.5q10 -29 32 -40t64 -11q39 0 56.5 10.5t27.5 40.5q13 39 18 98.5t5 229.5q0 116 -5 156.5t-20 70.5q-10 21 -28.5 29t-57.5 8q-78 0 -115 -51v-183z" />
<glyph unicode="7" d="M51 1364v186h580v-133l-305 -1417h-195l303 1350l-6 14h-377z" />
<glyph unicode="8" d="M43 418q0 160 8.5 231.5t27 99.5t64.5 46v12q-60 38 -74 98t-14 246q0 172 10.5 244.5t43.5 115.5q32 42 75 54t158 12t157 -12t74 -54q33 -43 43.5 -115.5t10.5 -244.5q0 -186 -14 -246t-74 -98v-12q46 -18 64.5 -46t27 -99.5t8.5 -231.5q0 -191 -6 -248t-35 -102 q-23 -36 -50 -55.5t-76 -29.5t-130 -10q-119 0 -171.5 21t-86.5 74q-29 45 -35 102t-6 248zM217 438q0 -125 4 -164.5t19 -68.5q13 -24 34.5 -32.5t67.5 -8.5t66.5 8t33.5 33q15 29 19 68.5t4 164.5q0 135 -2.5 177.5t-11.5 64.5q-10 24 -31.5 31.5t-77.5 7.5 q-57 0 -79 -7.5t-32 -31.5q-9 -22 -11.5 -64.5t-2.5 -177.5zM229 1133q0 -133 4 -172t17 -64q7 -15 25 -19t67 -4q48 0 65.5 4t24.5 19q13 25 17 64t4 172q0 132 -4 169.5t-19 67.5q-9 17 -26 25t-62 8q-46 0 -63.5 -8t-26.5 -25q-15 -30 -19 -67.5t-4 -169.5z" />
<glyph unicode="9" d="M49 1083q0 204 7.5 283t33.5 125q30 55 79.5 70.5t170.5 15.5q128 0 177 -15.5t79 -70.5q25 -46 32 -124.5t7 -295.5q0 -289 -61 -545.5t-185 -525.5h-205v10q150 287 228 621l-15 8q-16 -18 -53 -31.5t-86 -13.5q-70 0 -107.5 17.5t-58.5 62.5q-28 62 -35.5 133.5 t-7.5 275.5zM229 1094q0 -168 3.5 -216.5t17.5 -76.5q12 -25 27.5 -33t52.5 -8q67 0 104 47q19 80 19 276q0 147 -6 200.5t-21 80.5q-13 23 -30 29t-58 6q-46 0 -62 -6.5t-28 -28.5t-15.5 -71.5t-3.5 -198.5z" />
<glyph unicode=":" horiz-adv-x="354" d="M86 0v258h182v-258h-182zM86 838v258h182v-258h-182z" />
<glyph unicode=";" horiz-adv-x="358" d="M86 20v238h184v-250l-92 -299h-86v10l60 289l-5 12h-61zM86 838v258h182v-258h-182z" />
<glyph unicode="&#x3c;" d="M39 709v137l596 377h10v-166l-465 -273v-16l465 -270v-166h-10z" />
<glyph unicode="=" d="M39 471v139h606v-139h-606zM39 942v139h606v-139h-606z" />
<glyph unicode="&#x3e;" d="M39 332v166l465 270v16l-465 273v166h10l596 -377v-137l-596 -377h-10z" />
<glyph unicode="?" horiz-adv-x="630" d="M53 1206q0 153 14 216.5t54 103.5q31 33 66 42t132 9q90 0 125 -8.5t66 -38.5q44 -42 59 -113t15 -231q0 -165 -10 -217.5t-52 -110.5q-12 -17 -53.5 -65.5t-54.5 -67.5q-19 -27 -25 -48.5t-6 -55.5q0 -116 4 -156h-156q-8 50 -8 188q0 56 7.5 89.5t27.5 62.5 q14 20 32.5 43.5t42.5 52t38 45.5q33 42 40 73t7 142q0 118 -3 156t-12 53q-10 19 -25.5 24t-58.5 5t-58.5 -5.5t-27.5 -23.5q-12 -19 -16 -50t-4 -114q0 -108 4 -137h-156q-8 41 -8 137zM215 0v309h182v-309h-182z" />
<glyph unicode="@" horiz-adv-x="1001" d="M61 514q0 282 8.5 435.5t22.5 212t43 104.5q46 73 132.5 101t240.5 28q133 0 204.5 -19t118.5 -63q42 -41 62 -95.5t31.5 -192t11.5 -396.5q0 -314 -4.5 -387.5t-24.5 -110.5t-49 -49t-98 -12q-48 0 -80 10.5t-42.5 20.5t-21.5 26h-16q-22 -28 -50 -42.5t-77 -14.5 q-39 0 -63.5 9t-42.5 34q-18 26 -24.5 54.5t-9.5 100t-3 246.5q0 245 6 309t31 97q23 28 43 36.5t63 8.5q59 0 88 -64h10l9 43h114v-700q0 -38 13 -56q11 -14 43 -14q33 0 41 14q9 15 10.5 73.5t1.5 375.5q0 225 -6 334.5t-16 144.5t-33 62q-32 37 -79.5 50t-160.5 13 q-109 0 -152.5 -13t-72.5 -50q-24 -33 -34 -82t-14 -172.5t-4 -409.5q0 -388 6 -497.5t31 -166.5q26 -60 80 -84t182 -24q107 0 150.5 8t77.5 39q37 34 37 135q0 33 -2 49h159q4 -32 4 -61q0 -89 -9.5 -134.5t-43.5 -88.5q-49 -62 -135.5 -91.5t-255.5 -29.5q-181 0 -264 34 t-127 126q-24 48 -35 104t-18 217t-7 465zM461 514q0 -243 14 -301q4 -18 13 -23.5t28 -5.5q36 0 53 33v563q-11 30 -22 39.5t-37 9.5q-27 0 -37 -24q-12 -30 -12 -291z" />
<glyph unicode="A" horiz-adv-x="669" d="M33 0l153 1550h308l143 -1550h-186l-35 422h-166l-35 -422h-182zM258 600h150l-50 582q-13 133 -16 184h-14q-1 -18 -17 -184z" />
<glyph unicode="B" horiz-adv-x="694" d="M68 0v1550h321q73 0 119 -17.5t77 -65t43.5 -127t12.5 -207.5q0 -121 -10 -187.5t-26.5 -92.5t-49.5 -46v-12q47 -27 65 -54.5t26.5 -97t8.5 -225.5q0 -166 -25.5 -257t-76.5 -126t-143 -35h-342zM248 176h129q39 0 58 19.5t27.5 74.5t8.5 168q0 97 -4.5 152t-18 84.5 t-31 37t-50.5 7.5h-119v-543zM248 866h110q44 0 64.5 19t28.5 69t8 158q0 107 -3.5 145.5t-13.5 67.5q-18 51 -80 51h-114v-510z" />
<glyph unicode="C" d="M49 788q0 195 4.5 325.5t15 197t16.5 89.5t19 52q30 69 81 97t157 28q75 0 121 -13.5t78 -45.5q40 -40 63 -144.5t23 -253.5q0 -43 -4 -137h-172q2 45 2 133q0 175 -29 238q-12 25 -30 34t-52 9q-41 0 -60 -14.5t-28 -51.5q-15 -51 -20 -151t-5 -389q0 -287 6 -395.5 t19 -164.5q9 -36 30 -50.5t66 -14.5q67 0 86 84q21 96 21 221q0 82 -2 123h170q4 -47 4 -139q0 -252 -61 -367t-218 -115q-108 0 -164 28.5t-84 98.5q-30 72 -41.5 209t-11.5 479z" />
<glyph unicode="D" horiz-adv-x="710" d="M68 0v1550h301q103 0 156.5 -27t84.5 -96q31 -73 41.5 -193.5t10.5 -457.5q0 -343 -11 -462t-41 -193q-27 -68 -80.5 -94.5t-160.5 -26.5h-301zM248 190h117q41 0 60 13.5t30 48.5q14 47 18 139t4 387q0 299 -3.5 389.5t-18.5 135.5q-12 35 -32 49t-58 14h-117v-1176z " />
<glyph unicode="E" horiz-adv-x="602" d="M68 0v1550h479v-184h-299v-487h295v-177h-295v-509h297v-193h-477z" />
<glyph unicode="F" horiz-adv-x="573" d="M68 0v1550h473v-184h-293v-506h287v-178h-287v-682h-180z" />
<glyph unicode="G" horiz-adv-x="677" d="M49 788q0 338 11 462.5t40 193.5q30 75 84.5 104t157.5 29q109 0 164 -33t80 -100q39 -103 39 -287q0 -57 -2 -80h-172q2 18 2 80q0 80 -17 166q-8 37 -29 55.5t-65 18.5q-41 0 -61.5 -16.5t-30.5 -59.5q-13 -48 -19 -151t-6 -379q0 -202 4.5 -321.5t9.5 -158.5t15 -78 q11 -40 29.5 -54.5t62.5 -14.5q40 0 61 15t31 52q27 103 27 334q0 94 -2 119h-156v176h322q4 -102 4 -254q0 -238 -11.5 -337.5t-39.5 -168.5q-27 -71 -81.5 -99t-158.5 -28q-105 0 -158 27.5t-82 99.5q-30 77 -41.5 206t-11.5 482z" />
<glyph unicode="H" horiz-adv-x="731" d="M63 0v1550h187v-671h231v671h185v-1550h-185v702h-231v-702h-187z" />
<glyph unicode="I" horiz-adv-x="325" d="M70 0v1550h186v-1550h-186z" />
<glyph unicode="J" horiz-adv-x="667" d="M33 455q0 83 6 139h164q-2 -23 -2 -139q0 -159 24 -232q10 -31 26.5 -44t57.5 -13q44 0 62.5 14t27.5 51q14 59 20.5 172.5t6.5 391.5v755h186v-751q0 -341 -11 -477t-42 -213q-29 -75 -79.5 -105.5t-166.5 -30.5q-117 0 -173 41.5t-83 141.5q-24 93 -24 299z" />
<glyph unicode="K" horiz-adv-x="729" d="M68 0v1550h184v-540q0 -104 -2 -131h14q7 24 238 671h188v-10l-258 -700l270 -832v-8h-198q-232 724 -240 768h-14q2 -33 2 -135v-633h-184z" />
<glyph unicode="L" horiz-adv-x="548" d="M68 0v1550h180v-1357h276v-193h-456z" />
<glyph unicode="M" horiz-adv-x="987" d="M63 0v1550h291q126 -821 133 -903h11q1 16 2.5 31t4.5 39t6 46t9.5 65t12.5 82t17 111t21.5 138t28 176.5t33.5 214.5h289v-1550h-162v1008q0 149 2 204h-10q-5 -45 -215 -1212h-86q-210 1145 -218 1212h-10q2 -55 2 -204v-1008h-162z" />
<glyph unicode="N" horiz-adv-x="716" d="M66 0v1550h208q196 -741 203 -784h10q-2 51 -2 190v594h168v-1550h-94q-294 973 -319 1079h-11q2 -86 2 -295v-784h-165z" />
<glyph unicode="O" d="M49 776q0 348 11 472.5t42 201.5q28 70 81.5 98.5t158.5 28.5q103 0 157.5 -28.5t82.5 -98.5q30 -79 41.5 -204.5t11.5 -469.5t-11.5 -471.5t-41.5 -204.5q-27 -71 -81.5 -99t-158.5 -28q-105 0 -159 28t-81 99q-31 75 -42 201t-11 475zM229 780q0 -303 5 -399t20 -150 q9 -37 28.5 -51t59.5 -14t59.5 14t28.5 51q10 41 14 78.5t7.5 151t3.5 319.5q0 302 -5 398t-18 151q-9 37 -29.5 52.5t-60.5 15.5q-39 0 -59 -15t-29 -51q-10 -39 -14 -77t-7.5 -152.5t-3.5 -321.5z" />
<glyph unicode="P" horiz-adv-x="679" d="M68 0v1550h321q60 0 101 -16t70.5 -50.5t45.5 -96.5t23.5 -146t7.5 -207q0 -300 -52 -416t-198 -116h-139v-502h-180zM248 682h110q33 0 53.5 29t32 109t11.5 218q0 136 -12.5 210t-32.5 97t-54 23h-108v-686z" />
<glyph unicode="Q" d="M49 803q0 337 11 457t42 194q28 69 81.5 96t158.5 27q104 0 158.5 -27.5t81.5 -95.5q30 -75 41.5 -197t11.5 -454q0 -333 -11.5 -456.5t-41.5 -196.5q-30 -70 -86 -99q44 -151 90 -227v-10h-183q-21 34 -77 213q-97 1 -147.5 29t-76.5 94q-31 72 -42 194t-11 459z M229 801q0 -295 5 -388t20 -145q9 -35 28.5 -49t59.5 -14t59.5 14t28.5 49q10 40 14 76t7.5 146.5t3.5 310.5q0 292 -5 384.5t-18 145.5q-9 35 -29.5 50.5t-60.5 15.5q-39 0 -59 -15t-29 -49q-14 -55 -19.5 -149.5t-5.5 -382.5z" />
<glyph unicode="R" horiz-adv-x="698" d="M68 0v1550h327q69 0 108.5 -16.5t69.5 -54.5q38 -49 53 -125t15 -221q0 -138 -8 -204.5t-27 -111.5q-25 -62 -76 -82v-10q56 -25 68 -129q27 -214 39 -444q5 -75 25 -144v-8h-187q-12 28 -18 71t-13 171q-14 242 -24 313q-9 62 -26.5 81t-59.5 19h-86v-655h-180zM248 821 h82q39 0 63.5 12t38.5 44q16 33 20.5 79t4.5 177q0 100 -4.5 138t-18.5 60q-24 39 -72 39h-114v-549z" />
<glyph unicode="S" horiz-adv-x="636" d="M43 1214q0 127 15.5 192t52.5 107q33 36 76 50t122 14q89 0 139 -19t78 -57q27 -38 38 -95t11 -161q0 -123 -12 -176h-153q6 41 6 127q0 78 -6 115.5t-23 60.5q-12 17 -28 22t-50 5q-33 0 -48.5 -6.5t-27.5 -24.5q-14 -24 -19 -61t-5 -117q0 -100 1.5 -129t10.5 -57 q9 -26 20 -39.5t44 -38.5q26 -21 92.5 -60.5t95.5 -60.5q40 -28 57 -45.5t31 -48.5q18 -38 23.5 -89t5.5 -200q0 -150 -13 -223.5t-42 -128.5q-52 -97 -230 -97q-86 0 -133.5 19.5t-75.5 70.5q-28 49 -39.5 109t-11.5 184q0 70 10 162h156q-6 -44 -6 -123q0 -91 4.5 -129.5 t17.5 -66.5q12 -23 29 -32t51 -9q40 0 58 9.5t32 35.5q14 29 18.5 74t4.5 147q0 121 -12 170q-7 27 -20 42t-46 38q-15 10 -70.5 46.5t-92.5 63.5t-62 52q-43 43 -58.5 116.5t-15.5 261.5z" />
<glyph unicode="T" horiz-adv-x="614" d="M25 1366v184h565v-184h-191v-1366h-182v1366h-192z" />
<glyph unicode="U" horiz-adv-x="698" d="M55 430v1120h187v-1120q0 -126 3.5 -164t20.5 -65q12 -20 31 -27.5t55 -7.5t54 7.5t30 27.5q17 27 21 66t4 163v1120h180v-1120q0 -170 -6 -232.5t-33 -115.5q-31 -61 -87 -85t-165 -24q-110 0 -167 24t-87 85q-28 54 -34.5 118t-6.5 230z" />
<glyph unicode="V" d="M33 1550h194q107 -1267 109 -1325h14q1 30 3.5 65.5t10.5 127.5t18 208.5t31 371t46 552.5h190l-168 -1550h-286z" />
<glyph unicode="W" horiz-adv-x="1069" d="M37 1550h182q82 -1275 82 -1296h16q1 15 2 29t3 40.5t5 54t8.5 83t11.5 113.5t16.5 160t22 207.5t28.5 271t35 337.5h180q130 -1229 133 -1296h16q3 122 80 1296h174l-121 -1550h-264q-98 1060 -101 1116q-1 20 -1 39h-15q-2 -73 -62 -702q-27 -274 -44 -453h-264z" />
<glyph unicode="X" horiz-adv-x="698" d="M27 0v10l182 819l-154 711v10h187q97 -527 102 -583h14q3 35 111 583h176v-10l-158 -706l181 -824v-10h-193q-116 616 -123 680h-14q-7 -67 -125 -680h-186z" />
<glyph unicode="Y" horiz-adv-x="665" d="M18 1540v10h183q112 -514 125 -596h14q17 103 129 596h178v-10l-215 -862v-678h-194v676z" />
<glyph unicode="Z" horiz-adv-x="686" d="M47 0v213l381 1139l-6 12h-363v186h588v-100l-418 -1245l7 -12h401v-193h-590z" />
<glyph unicode="[" d="M209 -487v2457h387v-141h-248v-2175h248v-141h-387z" />
<glyph unicode="\" d="M16 1737h138l514 -2050h-138z" />
<glyph unicode="]" d="M86 -346h248v2175h-248v141h387v-2457h-387v141z" />
<glyph unicode="^" d="M39 684v10l235 856h136l235 -856v-10h-139l-156 649h-14l-158 -649h-139z" />
<glyph unicode="_" d="M18 -127h648v-147h-648v147z" />
<glyph unicode="`" horiz-adv-x="466" d="M61 1556v11h166l166 -346v-9h-135z" />
<glyph unicode="a" horiz-adv-x="669" d="M33 0l153 1550h308l143 -1550h-186l-35 422h-166l-35 -422h-182zM258 600h150l-50 582q-13 133 -16 184h-14q-1 -18 -17 -184z" />
<glyph unicode="b" horiz-adv-x="694" d="M68 0v1550h321q73 0 119 -17.5t77 -65t43.5 -127t12.5 -207.5q0 -121 -10 -187.5t-26.5 -92.5t-49.5 -46v-12q47 -27 65 -54.5t26.5 -97t8.5 -225.5q0 -166 -25.5 -257t-76.5 -126t-143 -35h-342zM248 176h129q39 0 58 19.5t27.5 74.5t8.5 168q0 97 -4.5 152t-18 84.5 t-31 37t-50.5 7.5h-119v-543zM248 866h110q44 0 64.5 19t28.5 69t8 158q0 107 -3.5 145.5t-13.5 67.5q-18 51 -80 51h-114v-510z" />
<glyph unicode="c" d="M49 788q0 195 4.5 325.5t15 197t16.5 89.5t19 52q30 69 81 97t157 28q75 0 121 -13.5t78 -45.5q40 -40 63 -144.5t23 -253.5q0 -43 -4 -137h-172q2 45 2 133q0 175 -29 238q-12 25 -30 34t-52 9q-41 0 -60 -14.5t-28 -51.5q-15 -51 -20 -151t-5 -389q0 -287 6 -395.5 t19 -164.5q9 -36 30 -50.5t66 -14.5q67 0 86 84q21 96 21 221q0 82 -2 123h170q4 -47 4 -139q0 -252 -61 -367t-218 -115q-108 0 -164 28.5t-84 98.5q-30 72 -41.5 209t-11.5 479z" />
<glyph unicode="d" horiz-adv-x="710" d="M68 0v1550h301q103 0 156.5 -27t84.5 -96q31 -73 41.5 -193.5t10.5 -457.5q0 -343 -11 -462t-41 -193q-27 -68 -80.5 -94.5t-160.5 -26.5h-301zM248 190h117q41 0 60 13.5t30 48.5q14 47 18 139t4 387q0 299 -3.5 389.5t-18.5 135.5q-12 35 -32 49t-58 14h-117v-1176z " />
<glyph unicode="e" horiz-adv-x="602" d="M68 0v1550h479v-184h-299v-487h295v-177h-295v-509h297v-193h-477z" />
<glyph unicode="f" horiz-adv-x="573" d="M68 0v1550h473v-184h-293v-506h287v-178h-287v-682h-180z" />
<glyph unicode="g" horiz-adv-x="677" d="M49 788q0 338 11 462.5t40 193.5q30 75 84.5 104t157.5 29q109 0 164 -33t80 -100q39 -103 39 -287q0 -57 -2 -80h-172q2 18 2 80q0 80 -17 166q-8 37 -29 55.5t-65 18.5q-41 0 -61.5 -16.5t-30.5 -59.5q-13 -48 -19 -151t-6 -379q0 -202 4.5 -321.5t9.5 -158.5t15 -78 q11 -40 29.5 -54.5t62.5 -14.5q40 0 61 15t31 52q27 103 27 334q0 94 -2 119h-156v176h322q4 -102 4 -254q0 -238 -11.5 -337.5t-39.5 -168.5q-27 -71 -81.5 -99t-158.5 -28q-105 0 -158 27.5t-82 99.5q-30 77 -41.5 206t-11.5 482z" />
<glyph unicode="h" horiz-adv-x="731" d="M63 0v1550h187v-671h231v671h185v-1550h-185v702h-231v-702h-187z" />
<glyph unicode="i" horiz-adv-x="325" d="M70 0v1550h186v-1550h-186z" />
<glyph unicode="j" horiz-adv-x="667" d="M33 455q0 83 6 139h164q-2 -23 -2 -139q0 -159 24 -232q10 -31 26.5 -44t57.5 -13q44 0 62.5 14t27.5 51q14 59 20.5 172.5t6.5 391.5v755h186v-751q0 -341 -11 -477t-42 -213q-29 -75 -79.5 -105.5t-166.5 -30.5q-117 0 -173 41.5t-83 141.5q-24 93 -24 299z" />
<glyph unicode="k" horiz-adv-x="729" d="M68 0v1550h184v-540q0 -104 -2 -131h14q7 24 238 671h188v-10l-258 -700l270 -832v-8h-198q-232 724 -240 768h-14q2 -33 2 -135v-633h-184z" />
<glyph unicode="l" horiz-adv-x="548" d="M68 0v1550h180v-1357h276v-193h-456z" />
<glyph unicode="m" horiz-adv-x="987" d="M63 0v1550h291q126 -821 133 -903h11q1 16 2.5 31t4.5 39t6 46t9.5 65t12.5 82t17 111t21.5 138t28 176.5t33.5 214.5h289v-1550h-162v1008q0 149 2 204h-10q-5 -45 -215 -1212h-86q-210 1145 -218 1212h-10q2 -55 2 -204v-1008h-162z" />
<glyph unicode="n" horiz-adv-x="716" d="M66 0v1550h208q196 -741 203 -784h10q-2 51 -2 190v594h168v-1550h-94q-294 973 -319 1079h-11q2 -86 2 -295v-784h-165z" />
<glyph unicode="o" d="M49 776q0 348 11 472.5t42 201.5q28 70 81.5 98.5t158.5 28.5q103 0 157.5 -28.5t82.5 -98.5q30 -79 41.5 -204.5t11.5 -469.5t-11.5 -471.5t-41.5 -204.5q-27 -71 -81.5 -99t-158.5 -28q-105 0 -159 28t-81 99q-31 75 -42 201t-11 475zM229 780q0 -303 5 -399t20 -150 q9 -37 28.5 -51t59.5 -14t59.5 14t28.5 51q10 41 14 78.5t7.5 151t3.5 319.5q0 302 -5 398t-18 151q-9 37 -29.5 52.5t-60.5 15.5q-39 0 -59 -15t-29 -51q-10 -39 -14 -77t-7.5 -152.5t-3.5 -321.5z" />
<glyph unicode="p" horiz-adv-x="679" d="M68 0v1550h321q60 0 101 -16t70.5 -50.5t45.5 -96.5t23.5 -146t7.5 -207q0 -300 -52 -416t-198 -116h-139v-502h-180zM248 682h110q33 0 53.5 29t32 109t11.5 218q0 136 -12.5 210t-32.5 97t-54 23h-108v-686z" />
<glyph unicode="q" d="M49 803q0 337 11 457t42 194q28 69 81.5 96t158.5 27q104 0 158.5 -27.5t81.5 -95.5q30 -75 41.5 -197t11.5 -454q0 -333 -11.5 -456.5t-41.5 -196.5q-30 -70 -86 -99q44 -151 90 -227v-10h-183q-21 34 -77 213q-97 1 -147.5 29t-76.5 94q-31 72 -42 194t-11 459z M229 801q0 -295 5 -388t20 -145q9 -35 28.5 -49t59.5 -14t59.5 14t28.5 49q10 40 14 76t7.5 146.5t3.5 310.5q0 292 -5 384.5t-18 145.5q-9 35 -29.5 50.5t-60.5 15.5q-39 0 -59 -15t-29 -49q-14 -55 -19.5 -149.5t-5.5 -382.5z" />
<glyph unicode="r" horiz-adv-x="698" d="M68 0v1550h327q69 0 108.5 -16.5t69.5 -54.5q38 -49 53 -125t15 -221q0 -138 -8 -204.5t-27 -111.5q-25 -62 -76 -82v-10q56 -25 68 -129q27 -214 39 -444q5 -75 25 -144v-8h-187q-12 28 -18 71t-13 171q-14 242 -24 313q-9 62 -26.5 81t-59.5 19h-86v-655h-180zM248 821 h82q39 0 63.5 12t38.5 44q16 33 20.5 79t4.5 177q0 100 -4.5 138t-18.5 60q-24 39 -72 39h-114v-549z" />
<glyph unicode="s" horiz-adv-x="636" d="M43 1214q0 127 15.5 192t52.5 107q33 36 76 50t122 14q89 0 139 -19t78 -57q27 -38 38 -95t11 -161q0 -123 -12 -176h-153q6 41 6 127q0 78 -6 115.5t-23 60.5q-12 17 -28 22t-50 5q-33 0 -48.5 -6.5t-27.5 -24.5q-14 -24 -19 -61t-5 -117q0 -100 1.5 -129t10.5 -57 q9 -26 20 -39.5t44 -38.5q26 -21 92.5 -60.5t95.5 -60.5q40 -28 57 -45.5t31 -48.5q18 -38 23.5 -89t5.5 -200q0 -150 -13 -223.5t-42 -128.5q-52 -97 -230 -97q-86 0 -133.5 19.5t-75.5 70.5q-28 49 -39.5 109t-11.5 184q0 70 10 162h156q-6 -44 -6 -123q0 -91 4.5 -129.5 t17.5 -66.5q12 -23 29 -32t51 -9q40 0 58 9.5t32 35.5q14 29 18.5 74t4.5 147q0 121 -12 170q-7 27 -20 42t-46 38q-15 10 -70.5 46.5t-92.5 63.5t-62 52q-43 43 -58.5 116.5t-15.5 261.5z" />
<glyph unicode="t" horiz-adv-x="614" d="M25 1366v184h565v-184h-191v-1366h-182v1366h-192z" />
<glyph unicode="u" horiz-adv-x="698" d="M55 430v1120h187v-1120q0 -126 3.5 -164t20.5 -65q12 -20 31 -27.5t55 -7.5t54 7.5t30 27.5q17 27 21 66t4 163v1120h180v-1120q0 -170 -6 -232.5t-33 -115.5q-31 -61 -87 -85t-165 -24q-110 0 -167 24t-87 85q-28 54 -34.5 118t-6.5 230z" />
<glyph unicode="v" d="M33 1550h194q107 -1267 109 -1325h14q1 30 3.5 65.5t10.5 127.5t18 208.5t31 371t46 552.5h190l-168 -1550h-286z" />
<glyph unicode="w" horiz-adv-x="1069" d="M37 1550h182q82 -1275 82 -1296h16q1 15 2 29t3 40.5t5 54t8.5 83t11.5 113.5t16.5 160t22 207.5t28.5 271t35 337.5h180q130 -1229 133 -1296h16q3 122 80 1296h174l-121 -1550h-264q-98 1060 -101 1116q-1 20 -1 39h-15q-2 -73 -62 -702q-27 -274 -44 -453h-264z" />
<glyph unicode="x" horiz-adv-x="698" d="M27 0v10l182 819l-154 711v10h187q97 -527 102 -583h14q3 35 111 583h176v-10l-158 -706l181 -824v-10h-193q-116 616 -123 680h-14q-7 -67 -125 -680h-186z" />
<glyph unicode="y" horiz-adv-x="665" d="M18 1540v10h183q112 -514 125 -596h14q17 103 129 596h178v-10l-215 -862v-678h-194v676z" />
<glyph unicode="z" horiz-adv-x="686" d="M47 0v213l381 1139l-6 12h-363v186h588v-100l-418 -1245l7 -12h401v-193h-590z" />
<glyph unicode="{" d="M143 672v139h74q56 0 76 21.5t20 97.5q0 98 -26.5 367t-26.5 432q0 130 46 185.5t153 55.5h162v-141h-144q-41 0 -59.5 -23t-18.5 -77q0 -134 28 -406t28 -393q0 -137 -86 -182v-13q86 -45 86 -182q0 -121 -28 -393t-28 -406q0 -54 18.5 -77t59.5 -23h144v-141h-162 q-107 0 -153 55.5t-46 185.5q0 163 26.5 432.5t26.5 366.5q0 76 -20 97.5t-76 21.5h-74z" />
<glyph unicode="|" d="M270 -487v2457h142v-2457h-142z" />
<glyph unicode="}" d="M61 -346h144q41 0 59.5 23t18.5 77q0 134 -28 406t-28 393q0 137 86 182v13q-86 45 -86 182q0 121 28 393t28 406q0 54 -18.5 77t-59.5 23h-144v141h162q107 0 153 -55.5t46 -185.5q0 -163 -26.5 -432t-26.5 -367q0 -76 20 -97.5t76 -21.5h74v-139h-74q-56 0 -76 -21.5 t-20 -97.5q0 -97 26.5 -366.5t26.5 -432.5q0 -130 -46 -185.5t-153 -55.5h-162v141z" />
<glyph unicode="~" d="M39 664v145q52 92 147 92q90 0 170 -53q41 -27 68.5 -36t62.5 -9q91 0 146 94h12v-141q-60 -92 -162 -92q-78 0 -161 51q-41 26 -68 35.5t-61 9.5q-85 0 -142 -96h-12z" />
<glyph unicode="&#xa1;" horiz-adv-x="339" d="M68 -467l32 1149h140l32 -1149h-204zM80 838v309h180v-309h-180z" />
<glyph unicode="&#xa2;" d="M57 797q0 257 12 365.5t40 164.5q23 44 64.5 65t113.5 27v221h127v-221q71 -6 112 -27t64 -65q45 -85 45 -270q0 -49 -2 -78h-176q2 18 2 51q0 127 -17 191q-9 28 -28.5 38.5t-63.5 10.5q-71 0 -86 -45q-14 -36 -19 -120.5t-5 -303.5q0 -223 5 -308.5t19 -121.5 q14 -43 86 -43q75 0 92 43q11 35 14 72t3 124q0 42 -2 62h176q4 -33 4 -94q-1 -63 -3 -97.5t-13 -87t-31 -90.5q-23 -45 -64.5 -67t-111.5 -27v-254h-127v254q-72 4 -113.5 26t-64.5 68q-28 55 -40 165.5t-12 371.5z" />
<glyph unicode="&#xa3;" d="M41 580v127h88l4 6q-82 145 -82 360q0 223 10 302.5t41 127.5q29 45 77 59.5t167 14.5q100 0 145 -14.5t78 -59.5q37 -51 48.5 -123.5t11.5 -259.5q0 -120 -2 -155h-172q2 25 2 104q0 170 -4 221.5t-21 81.5q-8 14 -25.5 19.5t-60.5 5.5t-61 -6.5t-29 -24.5 q-17 -26 -21 -74.5t-4 -206.5q0 -136 16.5 -191t81.5 -163l15 -24h250v-127h-205l-4 -9q29 -85 29 -168q0 -92 -29 -184q26 -47 107 -47q21 0 36.5 2t30.5 8.5t22 10t24.5 15.5t25.5 17h14v-198q-54 -54 -137 -54q-63 0 -103.5 33t-52.5 92h-14q-55 -125 -186 -125 q-58 0 -91 43v172q68 -14 78 -14q42 0 66 56.5t24 162.5q0 64 -7 100.5t-29 86.5h-152z" />
<glyph unicode="&#xa4;" horiz-adv-x="1067" d="M68 401l147 146q-72 101 -72 229q0 125 72 232l-145 139l94 96l141 -147q93 78 232 78q125 0 229 -78l137 147l96 -96l-143 -139q74 -112 74 -232q0 -129 -74 -229l143 -146l-94 -94l-141 148q-106 -72 -227 -72q-134 0 -230 74l-143 -150zM285 776q0 -105 73.5 -178.5 t178.5 -73.5q103 0 177 74t74 178q0 103 -74.5 178.5t-176.5 75.5q-105 0 -178.5 -75t-73.5 -179z" />
<glyph unicode="&#xa5;" d="M27 1540v10h186l121 -569h16l123 569h182v-10l-219 -838v-38h185v-127h-185v-175h185v-126h-185v-236h-186v236h-195v126h195v175h-195v127h195v38z" />
<glyph unicode="&#xa6;" d="M270 -487v991h142v-991h-142zM270 1040v930h142v-930h-142z" />
<glyph unicode="&#xa7;" horiz-adv-x="737" d="M51 788q0 135 28.5 194.5t96.5 88.5q-10 56 -10 199q0 107 14.5 162.5t48.5 91.5q32 31 69.5 42t121.5 11q89 0 132 -12.5t73 -48.5q45 -59 45 -220q0 -97 -13 -151h-143q6 35 6 108q0 68 -5.5 99t-22.5 51q-17 22 -72 22q-32 0 -47 -5.5t-27 -20.5q-24 -33 -24 -150 q0 -86 1.5 -110.5t10.5 -48.5q9 -21 19.5 -32.5t41.5 -33.5q24 -18 88 -51t90 -49q39 -28 54 -42t28 -40q18 -32 23.5 -75.5t5.5 -170.5q0 -112 -14.5 -179.5t-35 -97t-65.5 -69.5q2 -33 2 -137q0 -138 -14 -205.5t-55 -112.5q-32 -35 -75 -49t-128 -14q-79 0 -123 16.5 t-74 58.5q-27 40 -38 92t-11 158q0 61 10 138h148q-6 -38 -6 -105q0 -76 4 -109.5t16 -56.5q12 -20 28 -27.5t48 -7.5q39 0 56.5 7.5t31.5 29.5q21 43 21 189q0 106 -11 145q-6 22 -18.5 34.5t-44.5 33.5q-14 9 -67.5 40.5t-88.5 54.5t-59 44q-40 37 -55 99.5t-15 221.5z M209 768q0 -86 1.5 -110t8.5 -48q9 -22 19 -33t43 -34q26 -17 96.5 -54t128.5 -81q18 42 18 190q0 103 -12 145q-7 22 -19.5 35t-43.5 33q-7 4 -62 36.5t-88 54t-57 40.5q-21 -15 -27 -45.5t-6 -128.5z" />
<glyph unicode="&#xa8;" horiz-adv-x="595" d="M68 1266v229h157v-229h-157zM371 1266v229h157v-229h-157z" />
<glyph unicode="&#xaa;" horiz-adv-x="423" d="M47 1004q0 98 15 143t44.5 57.5t94.5 12.5q22 0 43 -7v35q0 54 -3 76.5t-10 28.5t-24 6q-25 0 -32 -13t-7 -67q0 -23 4 -37h-109q-4 20 -4 37q0 64 5 97.5t23.5 52.5t43.5 23.5t76 4.5q93 0 121 -42t28 -163v-344q0 -22 11 -22q12 4 28 8v-80q-20 -27 -61 -27 q-46 0 -64 25q-32 -25 -88 -25q-48 0 -70.5 5t-39.5 28.5t-21 65t-4 121.5zM158 1004q0 -88 8 -101q5 -8 11 -10t28 -2q27 0 39 12v207q-10 10 -29 10q-39 0 -48 -17.5t-9 -98.5z" />
<glyph unicode="&#xab;" horiz-adv-x="679" d="M45 719v119l289 295h8v-172l-186 -177v-14l186 -174v-170h-8zM334 719v119l289 295h8v-172l-187 -177v-14l187 -174v-170h-8z" />
<glyph unicode="&#xac;" d="M39 756v141h606v-897h-139v756h-467z" />
<glyph unicode="&#xad;" horiz-adv-x="557" d="M45 707v147h465v-147h-465z" />
<glyph unicode="&#xaf;" horiz-adv-x="708" d="M68 1327v129h573v-129h-573z" />
<glyph unicode="&#xb0;" horiz-adv-x="514" d="M51 1264q0 152 7.5 206t29.5 89q19 29 57.5 42t108.5 13q137 0 172 -55q20 -33 27.5 -89t7.5 -206q0 -153 -7.5 -208.5t-27.5 -88.5q-20 -32 -58.5 -44t-113.5 -12q-72 0 -110 12t-56 44q-21 34 -29 90t-8 207zM178 1266q0 -98 3 -129.5t14 -46.5q9 -17 59 -17 q54 0 63 17q11 15 14 46.5t3 129.5q0 96 -3 126.5t-14 45.5q-12 18 -63 18q-47 0 -59 -18q-11 -15 -14 -46t-3 -126z" />
<glyph unicode="&#xb1;" d="M39 0v139h606v-139h-606zM39 707v139h231v233h142v-233h233v-139h-233v-234h-142v234h-231z" />
<glyph unicode="&#xb2;" horiz-adv-x="438" d="M51 1329q0 111 13 163.5t46.5 73.5t104.5 21q39 0 62.5 -2.5t45 -13.5t31.5 -28.5t18 -51t10.5 -77t2.5 -111.5q0 -105 -5.5 -147.5t-18 -69.5t-56.5 -89q-11 -17 -18 -26l-94 -133h188v-125h-328v127l125 182q59 86 73.5 134t14.5 147q0 86 -3 111t-11 38q-5 12 -37 12 q-28 0 -37 -12q-8 -16 -8 -123q0 -61 2 -96h-119q-2 23 -2 96z" />
<glyph unicode="&#xb3;" horiz-adv-x="438" d="M47 961q0 29 4 65h115q-2 -23 -2 -65q0 -64 4.5 -91t13.5 -35t33 -8q25 0 34.5 8t14 35.5t4.5 92.5t-4 90t-13.5 32t-35.5 7h-80v122h80q33 0 41 18.5t8 98.5q0 67 -4 93.5t-12.5 34t-32.5 7.5q-23 0 -31.5 -6t-13 -29t-4.5 -79q0 -39 2 -72h-117q-2 25 -2 72 q0 74 5 114.5t23 70.5t50 40t88 10q44 0 70 -5.5t46.5 -19t29.5 -42.5t13.5 -70t4.5 -107q0 -95 -8.5 -132t-34.5 -56q18 -11 28 -28t16.5 -59.5t6.5 -117.5q0 -62 -2.5 -103t-12 -70t-19.5 -44t-33 -23.5t-44 -10t-61 -1.5q-73 0 -107.5 21.5t-47.5 75t-13 166.5z" />
<glyph unicode="&#xb4;" horiz-adv-x="466" d="M74 1212v9l164 346h165v-11l-194 -344h-135z" />
<glyph unicode="&#xb6;" horiz-adv-x="837" d="M37 1190q0 196 48 278t148 82h537v-1759h-149v1610h-152v-1610h-150v1028h-71q-84 0 -128.5 32t-63.5 110.5t-19 228.5z" />
<glyph unicode="&#xb7;" horiz-adv-x="315" d="M68 641v258h180v-258h-180z" />
<glyph unicode="&#xb8;" horiz-adv-x="411" d="M68 -477l114 393h162v-10l-145 -393h-131v10z" />
<glyph unicode="&#xb9;" horiz-adv-x="438" d="M59 1327v111h66q25 0 36 10t11 39v84h109v-729h92v-129h-312v129h97v485h-99z" />
<glyph unicode="&#xba;" horiz-adv-x="413" d="M47 1122q0 135 6 188t21 89q13 30 43.5 42.5t87.5 12.5q56 0 86 -12.5t45 -42.5q16 -34 21 -85t5 -192q0 -146 -5 -197.5t-21 -80.5q-19 -34 -48 -47t-83 -13q-57 0 -86.5 13.5t-44.5 48.5q-14 35 -20.5 88t-6.5 188zM162 1124q0 -168 10 -213q6 -14 33 -14t33 14 q10 34 10 213q0 178 -10 207q-6 17 -33 17t-33 -17q-10 -38 -10 -207z" />
<glyph unicode="&#xbb;" horiz-adv-x="679" d="M45 426v172l186 176v14l-186 175v170h8l289 -293v-119l-289 -295h-8zM334 426v172l186 176v14l-186 175v170h8l289 -293v-119l-289 -295h-8z" />
<glyph unicode="&#xbc;" horiz-adv-x="929" d="M35 1327v111h65q25 0 36 10t11 39v84h109v-729h92v-129h-311v129h96v485h-98zM113 0v8l639 1542h118v-10l-641 -1540h-116zM539 147v113l186 578h125v-578h43v-113h-43v-167h-123v167h-188zM655 260h76v221h-8z" />
<glyph unicode="&#xbd;" horiz-adv-x="929" d="M25 1327v111h65q25 0 36 10t11 39v84h109v-729h92v-129h-311v129h96v485h-98zM92 0v8l639 1542h119v-10l-641 -1540h-117zM569 596q0 111 13 163.5t46.5 73.5t104.5 21q39 0 62.5 -3t45 -13.5t31.5 -28t18 -51.5t10.5 -77.5t2.5 -111.5q0 -81 -0.5 -114.5t-11.5 -70.5 t-22 -54t-45 -65q-12 -17 -19 -27l-94 -134h188v-124h-328v126l125 183q59 86 73.5 133.5t14.5 146.5q0 86 -3 111.5t-11 38.5q-5 12 -37 12q-28 0 -37 -12q-8 -16 -8 -123q0 -61 2 -96h-119q-2 23 -2 96z" />
<glyph unicode="&#xbe;" horiz-adv-x="929" d="M39 961q0 29 4 65h115q-2 -23 -2 -65q0 -64 4.5 -91t13.5 -35t33 -8q25 0 34.5 8t14 35.5t4.5 92.5t-4 90t-13.5 32t-35.5 7h-80v122h80q33 0 41 18.5t8 98.5q0 67 -4 93.5t-12.5 34t-32.5 7.5q-23 0 -31.5 -6t-13 -29t-4.5 -79q0 -39 2 -72h-117q-2 25 -2 72 q0 74 5 114.5t23 70.5t50 40t88 10q44 0 70 -5.5t46.5 -19t29.5 -42.5t13.5 -70t4.5 -107q0 -95 -8.5 -132t-34.5 -56q18 -11 28 -28t16.5 -59.5t6.5 -117.5q0 -62 -2.5 -103t-12 -70t-19.5 -44t-33 -23.5t-44 -10t-61 -1.5q-73 0 -107.5 21.5t-47.5 75t-13 166.5zM113 0v8 l639 1542h118v-10l-641 -1540h-116zM537 147v113l186 578h125v-578h43v-113h-43v-167h-123v167h-188zM653 260h76v221h-8z" />
<glyph unicode="&#xbf;" horiz-adv-x="630" d="M47 -39q0 165 10 217.5t52 110.5q12 17 53.5 65.5t54.5 67.5q19 27 25 48.5t6 55.5q0 116 -4 156h155q9 -56 9 -188q0 -56 -7.5 -89.5t-27.5 -62.5q-14 -20 -32.5 -43.5t-42.5 -52t-38 -45.5q-33 -42 -40 -73t-7 -142q0 -121 2.5 -157.5t11.5 -51.5q10 -19 25.5 -24 t58.5 -5t58.5 5.5t27.5 23.5q12 19 16.5 50.5t4.5 113.5q0 108 -4 137h155q9 -46 9 -137q0 -153 -14 -216.5t-54 -103.5q-31 -33 -66.5 -42t-132.5 -9q-90 0 -124.5 8.5t-65.5 38.5q-44 42 -59 113t-15 231zM233 838v309h183v-309h-183z" />
<glyph unicode="&#xc0;" horiz-adv-x="669" d="M33 0l153 1550h308l143 -1550h-186l-35 422h-166l-35 -422h-182zM86 1960v10h166l166 -346v-8h-135zM258 600h150l-50 582q-13 133 -16 184h-14q-1 -18 -17 -184z" />
<glyph unicode="&#xc1;" horiz-adv-x="669" d="M33 0l153 1550h308l143 -1550h-186l-35 422h-166l-35 -422h-182zM254 1616v8l164 346h166v-10l-195 -344h-135zM258 600h150l-50 582q-13 133 -16 184h-14q-1 -18 -17 -184z" />
<glyph unicode="&#xc2;" horiz-adv-x="669" d="M33 0l153 1550h308l143 -1550h-186l-35 422h-166l-35 -422h-182zM82 1616v8l188 346h125l191 -346v-8h-152l-94 186h-14l-95 -186h-149zM258 600h150l-50 582q-13 133 -16 184h-14q-1 -18 -17 -184z" />
<glyph unicode="&#xc3;" horiz-adv-x="669" d="M33 0l153 1550h308l143 -1550h-186l-35 422h-166l-35 -422h-182zM49 1679v140q21 38 60.5 61t87.5 23q81 0 145 -43q34 -22 49.5 -31t36 -15t45.5 -6q84 0 139 90h11v-137q-55 -86 -160 -86q-78 0 -156 58q-29 21 -52 28.5t-60 7.5q-77 0 -138 -90h-8zM258 600h150 l-50 582q-13 133 -16 184h-14q-1 -18 -17 -184z" />
<glyph unicode="&#xc4;" horiz-adv-x="669" d="M33 0l153 1550h308l143 -1550h-186l-35 422h-166l-35 -422h-182zM104 1669v229h158v-229h-158zM258 600h150l-50 582q-13 133 -16 184h-14q-1 -18 -17 -184zM408 1669v229h157v-229h-157z" />
<glyph unicode="&#xc5;" horiz-adv-x="669" d="M33 0l153 1550h308l143 -1550h-186l-35 422h-166l-35 -422h-182zM184 1778q0 84 5.5 113.5t21.5 47.5q24 31 123 31t123 -31q16 -19 22 -48.5t6 -112.5q0 -81 -6.5 -110.5t-21.5 -49.5q-15 -18 -41 -24.5t-82 -6.5t-82 6.5t-41 24.5q-15 19 -21 48.5t-6 111.5zM258 600 h150l-50 582q-13 133 -16 184h-14q-1 -18 -17 -184zM272 1780q0 -90 11 -101q10 -10 51 -10q42 0 49 10q12 12 12 101q0 41 -1.5 62.5t-3.5 27.5t-7 12q-10 10 -49 10q-41 0 -51 -10q-7 -8 -9 -25t-2 -77z" />
<glyph unicode="&#xc6;" horiz-adv-x="956" d="M33 0l153 1550h709v-184h-299v-487h295v-177h-295v-509h297v-193h-479v422h-164l-35 -422h-182zM258 600h156v768h-86z" />
<glyph unicode="&#xc7;" d="M49 788q0 195 4.5 325.5t15 197t16.5 89.5t19 52q30 69 81 97t157 28q75 0 121 -13.5t78 -45.5q40 -40 63 -144.5t23 -253.5q0 -43 -4 -137h-172q2 45 2 133q0 175 -29 238q-12 25 -30 34t-52 9q-41 0 -60 -14.5t-28 -51.5q-15 -51 -20 -151t-5 -389q0 -287 6 -395.5 t19 -164.5q9 -36 30 -50.5t66 -14.5q67 0 86 84q21 96 21 221q0 82 -2 123h170q4 -47 4 -139q0 -252 -61 -367t-218 -115q-108 0 -164 28.5t-84 98.5q-30 72 -41.5 209t-11.5 479zM145 -477l115 393h162v-10l-146 -393h-131v10z" />
<glyph unicode="&#xc8;" horiz-adv-x="602" d="M61 1960v10h166l166 -346v-8h-135zM68 0v1550h479v-184h-299v-487h295v-177h-295v-509h297v-193h-477z" />
<glyph unicode="&#xc9;" horiz-adv-x="602" d="M68 0v1550h479v-184h-299v-487h295v-177h-295v-509h297v-193h-477zM225 1616v8l164 346h166v-10l-195 -344h-135z" />
<glyph unicode="&#xca;" horiz-adv-x="602" d="M57 1616v8l189 346h125l190 -346v-8h-151l-95 186h-14l-94 -186h-150zM68 0v1550h479v-184h-299v-487h295v-177h-295v-509h297v-193h-477z" />
<glyph unicode="&#xcb;" horiz-adv-x="602" d="M68 0v1550h479v-184h-299v-487h295v-177h-295v-509h297v-193h-477zM78 1669v229h158v-229h-158zM381 1669v229h158v-229h-158z" />
<glyph unicode="&#xcc;" horiz-adv-x="356" d="M-53 1960v10h166l166 -346v-8h-136zM100 0v1550h187v-1550h-187z" />
<glyph unicode="&#xcd;" horiz-adv-x="337" d="M70 0v1550h186v-1550h-186zM80 1616v8l164 346h166v-10l-195 -344h-135z" />
<glyph unicode="&#xce;" horiz-adv-x="374" d="M-63 1616v8l188 346h125l190 -346v-8h-151l-94 186h-15l-94 -186h-149zM94 0v1550h187v-1550h-187z" />
<glyph unicode="&#xcf;" horiz-adv-x="370" d="M-45 1669v229h158v-229h-158zM92 0v1550h187v-1550h-187zM258 1669v229h158v-229h-158z" />
<glyph unicode="&#xd0;" horiz-adv-x="708" d="M14 702v177h54v671h301q103 0 156.5 -27t84.5 -96q31 -73 41.5 -193.5t10.5 -457.5q0 -343 -11 -462t-41 -193q-27 -68 -80.5 -94.5t-160.5 -26.5h-301v702h-54zM248 190h117q41 0 60 13.5t30 48.5q14 47 18 139t4 387q0 299 -3.5 389.5t-18.5 135.5q-12 35 -32 49 t-58 14h-117v-487h145v-177h-145v-512z" />
<glyph unicode="&#xd1;" horiz-adv-x="716" d="M66 0v1550h208q196 -741 203 -784h10q-2 51 -2 190v594h168v-1550h-94q-294 973 -319 1079h-11q2 -86 2 -295v-784h-165zM72 1679v140q21 38 60 61t87 23q82 0 146 -43q34 -22 49.5 -31t36 -15t45.5 -6q84 0 139 90h10v-137q-55 -86 -160 -86q-77 0 -155 58 q-29 21 -52.5 28.5t-60.5 7.5q-76 0 -137 -90h-8z" />
<glyph unicode="&#xd2;" d="M49 776q0 348 11 472.5t42 201.5q28 70 81.5 98.5t158.5 28.5q103 0 157.5 -28.5t82.5 -98.5q30 -79 41.5 -204.5t11.5 -469.5t-11.5 -471.5t-41.5 -204.5q-27 -71 -81.5 -99t-158.5 -28q-105 0 -159 28t-81 99q-31 75 -42 201t-11 475zM94 1960v10h166l166 -346v-8h-135 zM229 780q0 -303 5 -399t20 -150q9 -37 28.5 -51t59.5 -14t59.5 14t28.5 51q10 41 14 78.5t7.5 151t3.5 319.5q0 302 -5 398t-18 151q-9 37 -29.5 52.5t-60.5 15.5q-39 0 -59 -15t-29 -51q-10 -39 -14 -77t-7.5 -152.5t-3.5 -321.5z" />
<glyph unicode="&#xd3;" d="M49 776q0 348 11 472.5t42 201.5q28 70 81.5 98.5t158.5 28.5q103 0 157.5 -28.5t82.5 -98.5q30 -79 41.5 -204.5t11.5 -469.5t-11.5 -471.5t-41.5 -204.5q-27 -71 -81.5 -99t-158.5 -28q-105 0 -159 28t-81 99q-31 75 -42 201t-11 475zM229 780q0 -303 5 -399t20 -150 q9 -37 28.5 -51t59.5 -14t59.5 14t28.5 51q10 41 14 78.5t7.5 151t3.5 319.5q0 302 -5 398t-18 151q-9 37 -29.5 52.5t-60.5 15.5q-39 0 -59 -15t-29 -51q-10 -39 -14 -77t-7.5 -152.5t-3.5 -321.5zM258 1616v8l164 346h166v-10l-195 -344h-135z" />
<glyph unicode="&#xd4;" d="M49 776q0 348 11 472.5t42 201.5q28 70 81.5 98.5t158.5 28.5q103 0 157.5 -28.5t82.5 -98.5q30 -79 41.5 -204.5t11.5 -469.5t-11.5 -471.5t-41.5 -204.5q-27 -71 -81.5 -99t-158.5 -28q-105 0 -159 28t-81 99q-31 75 -42 201t-11 475zM90 1616v8l189 346h124l191 -346 v-8h-152l-94 186h-14l-94 -186h-150zM229 780q0 -303 5 -399t20 -150q9 -37 28.5 -51t59.5 -14t59.5 14t28.5 51q10 41 14 78.5t7.5 151t3.5 319.5q0 302 -5 398t-18 151q-9 37 -29.5 52.5t-60.5 15.5q-39 0 -59 -15t-29 -51q-10 -39 -14 -77t-7.5 -152.5t-3.5 -321.5z" />
<glyph unicode="&#xd5;" d="M49 776q0 348 11 472.5t42 201.5q28 70 81.5 98.5t158.5 28.5q103 0 157.5 -28.5t82.5 -98.5q30 -79 41.5 -204.5t11.5 -469.5t-11.5 -471.5t-41.5 -204.5q-27 -71 -81.5 -99t-158.5 -28q-105 0 -159 28t-81 99q-31 75 -42 201t-11 475zM55 1679v140q21 38 60.5 61 t87.5 23q81 0 145 -43q34 -22 49.5 -31t36 -15t45.5 -6q84 0 139 90h11v-137q-55 -86 -160 -86q-78 0 -156 58q-29 21 -52 28.5t-60 7.5q-77 0 -138 -90h-8zM229 780q0 -303 5 -399t20 -150q9 -37 28.5 -51t59.5 -14t59.5 14t28.5 51q10 41 14 78.5t7.5 151t3.5 319.5 q0 302 -5 398t-18 151q-9 37 -29.5 52.5t-60.5 15.5q-39 0 -59 -15t-29 -51q-10 -39 -14 -77t-7.5 -152.5t-3.5 -321.5z" />
<glyph unicode="&#xd6;" d="M49 776q0 348 11 472.5t42 201.5q28 70 81.5 98.5t158.5 28.5q103 0 157.5 -28.5t82.5 -98.5q30 -79 41.5 -204.5t11.5 -469.5t-11.5 -471.5t-41.5 -204.5q-27 -71 -81.5 -99t-158.5 -28q-105 0 -159 28t-81 99q-31 75 -42 201t-11 475zM111 1669v229h157v-229h-157z M229 780q0 -303 5 -399t20 -150q9 -37 28.5 -51t59.5 -14t59.5 14t28.5 51q10 41 14 78.5t7.5 151t3.5 319.5q0 302 -5 398t-18 151q-9 37 -29.5 52.5t-60.5 15.5q-39 0 -59 -15t-29 -51q-10 -39 -14 -77t-7.5 -152.5t-3.5 -321.5zM414 1669v229h157v-229h-157z" />
<glyph unicode="&#xd7;" d="M61 596l181 180l-179 178l99 101l178 -181l180 181l98 -101l-178 -178l183 -180l-101 -100l-180 180l-180 -180z" />
<glyph unicode="&#xd8;" d="M49 776q0 348 11 472.5t42 201.5q28 70 81.5 98.5t158.5 28.5q77 0 123 -14l41 184h94l-53 -238q19 -21 35 -59q30 -79 41.5 -204.5t11.5 -469.5t-11.5 -471.5t-41.5 -204.5q-27 -71 -81.5 -99t-158.5 -28q-81 0 -131 17l-55 -256h-95l70 313q-15 17 -29 53 q-31 75 -42 201t-11 475zM225 444h8q19 105 187 916q-19 37 -78 37q-39 0 -59 -15t-29 -51q-10 -39 -14 -77t-7.5 -152.5t-3.5 -321.5q0 -234 -4 -336zM260 209q10 -24 28.5 -33.5t53.5 -9.5q40 0 59.5 14t28.5 51q10 41 14 78.5t7.5 151t3.5 319.5q0 236 4 332h-8 q-9 -73 -38.5 -212.5t-152.5 -690.5z" />
<glyph unicode="&#xd9;" horiz-adv-x="698" d="M55 430v1120h187v-1120q0 -126 3.5 -164t20.5 -65q12 -20 31 -27.5t55 -7.5t54 7.5t30 27.5q17 27 21 66t4 163v1120h180v-1120q0 -170 -6 -232.5t-33 -115.5q-31 -61 -87 -85t-165 -24q-110 0 -167 24t-87 85q-28 54 -34.5 118t-6.5 230zM104 1960v10h166l166 -346v-8 h-135z" />
<glyph unicode="&#xda;" horiz-adv-x="698" d="M55 430v1120h187v-1120q0 -126 3.5 -164t20.5 -65q12 -20 31 -27.5t55 -7.5t54 7.5t30 27.5q17 27 21 66t4 163v1120h180v-1120q0 -170 -6 -232.5t-33 -115.5q-31 -61 -87 -85t-165 -24q-110 0 -167 24t-87 85q-28 54 -34.5 118t-6.5 230zM268 1616v8l164 346h166v-10 l-195 -344h-135z" />
<glyph unicode="&#xdb;" horiz-adv-x="698" d="M55 430v1120h187v-1120q0 -126 3.5 -164t20.5 -65q12 -20 31 -27.5t55 -7.5t54 7.5t30 27.5q17 27 21 66t4 163v1120h180v-1120q0 -170 -6 -232.5t-33 -115.5q-31 -61 -87 -85t-165 -24q-110 0 -167 24t-87 85q-28 54 -34.5 118t-6.5 230zM100 1616v8l189 346h125 l190 -346v-8h-151l-95 186h-14l-94 -186h-150z" />
<glyph unicode="&#xdc;" horiz-adv-x="698" d="M55 430v1120h187v-1120q0 -126 3.5 -164t20.5 -65q12 -20 31 -27.5t55 -7.5t54 7.5t30 27.5q17 27 21 66t4 163v1120h180v-1120q0 -170 -6 -232.5t-33 -115.5q-31 -61 -87 -85t-165 -24q-110 0 -167 24t-87 85q-28 54 -34.5 118t-6.5 230zM119 1669v229h157v-229h-157z M422 1669v229h158v-229h-158z" />
<glyph unicode="&#xdd;" horiz-adv-x="665" d="M18 1540v10h183q112 -514 125 -596h14q17 103 129 596h178v-10l-215 -862v-678h-194v676zM252 1616v8l164 346h166v-10l-195 -344h-135z" />
<glyph unicode="&#xde;" horiz-adv-x="681" d="M68 0v1550h180v-237h143q60 0 100.5 -16.5t70 -52t45.5 -100t23 -151.5t7 -215q0 -311 -51 -431t-195 -120h-143v-227h-180zM248 408h114q39 0 56.5 22t27 102t9.5 250q0 156 -9.5 230t-28.5 96t-59 22h-110v-722z" />
<glyph unicode="&#xdf;" horiz-adv-x="970" d="M111 0v1257q0 88 9.5 140t39.5 92.5t87.5 57t151.5 16.5q74 0 123.5 -12t79.5 -33t45.5 -61.5t20 -84t4.5 -115.5v-163q0 -45 7 -63t30 -38q24 -23 76.5 -60t74.5 -59t30.5 -36t16.5 -39q9 -32 12 -75.5t3 -174.5q0 -246 -11.5 -337t-38.5 -142q-29 -57 -75.5 -77 t-147.5 -20q-102 0 -143 14t-68 66q-24 43 -31.5 102.5t-7.5 188.5q0 40 7 94h151q-4 -20 -4 -61q0 -98 2.5 -131t13.5 -68q7 -25 23.5 -33t56.5 -8q37 0 54 8.5t26 32.5q14 39 18.5 100t4.5 267q0 114 -7.5 156.5t-33.5 66.5q-13 12 -69.5 52t-84.5 73q-35 41 -45 78 q-10 36 -10 203v65q0 105 -19 139q-12 20 -27.5 25.5t-54.5 5.5q-40 0 -58.5 -6t-29.5 -25q-20 -31 -20 -139v-1239h-182z" />
<glyph unicode="&#xe0;" horiz-adv-x="669" d="M33 0l153 1550h308l143 -1550h-186l-35 422h-166l-35 -422h-182zM86 1960v10h166l166 -346v-8h-135zM258 600h150l-50 582q-13 133 -16 184h-14q-1 -18 -17 -184z" />
<glyph unicode="&#xe1;" horiz-adv-x="669" d="M33 0l153 1550h308l143 -1550h-186l-35 422h-166l-35 -422h-182zM254 1616v8l164 346h166v-10l-195 -344h-135zM258 600h150l-50 582q-13 133 -16 184h-14q-1 -18 -17 -184z" />
<glyph unicode="&#xe2;" horiz-adv-x="669" d="M33 0l153 1550h308l143 -1550h-186l-35 422h-166l-35 -422h-182zM82 1616v8l188 346h125l191 -346v-8h-152l-94 186h-14l-95 -186h-149zM258 600h150l-50 582q-13 133 -16 184h-14q-1 -18 -17 -184z" />
<glyph unicode="&#xe3;" horiz-adv-x="669" d="M33 0l153 1550h308l143 -1550h-186l-35 422h-166l-35 -422h-182zM49 1679v140q21 38 60.5 61t87.5 23q81 0 145 -43q34 -22 49.5 -31t36 -15t45.5 -6q84 0 139 90h11v-137q-55 -86 -160 -86q-78 0 -156 58q-29 21 -52 28.5t-60 7.5q-77 0 -138 -90h-8zM258 600h150 l-50 582q-13 133 -16 184h-14q-1 -18 -17 -184z" />
<glyph unicode="&#xe4;" horiz-adv-x="669" d="M33 0l153 1550h308l143 -1550h-186l-35 422h-166l-35 -422h-182zM104 1669v229h158v-229h-158zM258 600h150l-50 582q-13 133 -16 184h-14q-1 -18 -17 -184zM408 1669v229h157v-229h-157z" />
<glyph unicode="&#xe5;" horiz-adv-x="669" d="M33 0l153 1550h308l143 -1550h-186l-35 422h-166l-35 -422h-182zM184 1778q0 84 5.5 113.5t21.5 47.5q24 31 123 31t123 -31q16 -19 22 -48.5t6 -112.5q0 -81 -6.5 -110.5t-21.5 -49.5q-15 -18 -41 -24.5t-82 -6.5t-82 6.5t-41 24.5q-15 19 -21 48.5t-6 111.5zM258 600 h150l-50 582q-13 133 -16 184h-14q-1 -18 -17 -184zM272 1780q0 -90 11 -101q10 -10 51 -10q42 0 49 10q12 12 12 101q0 41 -1.5 62.5t-3.5 27.5t-7 12q-10 10 -49 10q-41 0 -51 -10q-7 -8 -9 -25t-2 -77z" />
<glyph unicode="&#xe6;" horiz-adv-x="956" d="M33 0l153 1550h709v-184h-299v-487h295v-177h-295v-509h297v-193h-479v422h-164l-35 -422h-182zM258 600h156v768h-86z" />
<glyph unicode="&#xe7;" d="M49 788q0 195 4.5 325.5t15 197t16.5 89.5t19 52q30 69 81 97t157 28q75 0 121 -13.5t78 -45.5q40 -40 63 -144.5t23 -253.5q0 -43 -4 -137h-172q2 45 2 133q0 175 -29 238q-12 25 -30 34t-52 9q-41 0 -60 -14.5t-28 -51.5q-15 -51 -20 -151t-5 -389q0 -287 6 -395.5 t19 -164.5q9 -36 30 -50.5t66 -14.5q67 0 86 84q21 96 21 221q0 82 -2 123h170q4 -47 4 -139q0 -252 -61 -367t-218 -115q-108 0 -164 28.5t-84 98.5q-30 72 -41.5 209t-11.5 479zM145 -477l115 393h162v-10l-146 -393h-131v10z" />
<glyph unicode="&#xe8;" horiz-adv-x="602" d="M61 1960v10h166l166 -346v-8h-135zM68 0v1550h479v-184h-299v-487h295v-177h-295v-509h297v-193h-477z" />
<glyph unicode="&#xe9;" horiz-adv-x="602" d="M68 0v1550h479v-184h-299v-487h295v-177h-295v-509h297v-193h-477zM225 1616v8l164 346h166v-10l-195 -344h-135z" />
<glyph unicode="&#xea;" horiz-adv-x="602" d="M57 1616v8l189 346h125l190 -346v-8h-151l-95 186h-14l-94 -186h-150zM68 0v1550h479v-184h-299v-487h295v-177h-295v-509h297v-193h-477z" />
<glyph unicode="&#xeb;" horiz-adv-x="602" d="M68 0v1550h479v-184h-299v-487h295v-177h-295v-509h297v-193h-477zM78 1669v229h158v-229h-158zM381 1669v229h158v-229h-158z" />
<glyph unicode="&#xec;" horiz-adv-x="356" d="M-53 1960v10h166l166 -346v-8h-136zM100 0v1550h187v-1550h-187z" />
<glyph unicode="&#xed;" horiz-adv-x="337" d="M70 0v1550h186v-1550h-186zM80 1616v8l164 346h166v-10l-195 -344h-135z" />
<glyph unicode="&#xee;" horiz-adv-x="374" d="M-63 1616v8l188 346h125l190 -346v-8h-151l-94 186h-15l-94 -186h-149zM94 0v1550h187v-1550h-187z" />
<glyph unicode="&#xef;" horiz-adv-x="370" d="M-45 1669v229h158v-229h-158zM92 0v1550h187v-1550h-187zM258 1669v229h158v-229h-158z" />
<glyph unicode="&#xf0;" horiz-adv-x="708" d="M14 702v177h54v671h301q103 0 156.5 -27t84.5 -96q31 -73 41.5 -193.5t10.5 -457.5q0 -343 -11 -462t-41 -193q-27 -68 -80.5 -94.5t-160.5 -26.5h-301v702h-54zM248 190h117q41 0 60 13.5t30 48.5q14 47 18 139t4 387q0 299 -3.5 389.5t-18.5 135.5q-12 35 -32 49 t-58 14h-117v-487h145v-177h-145v-512z" />
<glyph unicode="&#xf1;" horiz-adv-x="716" d="M66 0v1550h208q196 -741 203 -784h10q-2 51 -2 190v594h168v-1550h-94q-294 973 -319 1079h-11q2 -86 2 -295v-784h-165zM72 1679v140q21 38 60 61t87 23q82 0 146 -43q34 -22 49.5 -31t36 -15t45.5 -6q84 0 139 90h10v-137q-55 -86 -160 -86q-77 0 -155 58 q-29 21 -52.5 28.5t-60.5 7.5q-76 0 -137 -90h-8z" />
<glyph unicode="&#xf2;" d="M49 776q0 348 11 472.5t42 201.5q28 70 81.5 98.5t158.5 28.5q103 0 157.5 -28.5t82.5 -98.5q30 -79 41.5 -204.5t11.5 -469.5t-11.5 -471.5t-41.5 -204.5q-27 -71 -81.5 -99t-158.5 -28q-105 0 -159 28t-81 99q-31 75 -42 201t-11 475zM94 1960v10h166l166 -346v-8h-135 zM229 780q0 -303 5 -399t20 -150q9 -37 28.5 -51t59.5 -14t59.5 14t28.5 51q10 41 14 78.5t7.5 151t3.5 319.5q0 302 -5 398t-18 151q-9 37 -29.5 52.5t-60.5 15.5q-39 0 -59 -15t-29 -51q-10 -39 -14 -77t-7.5 -152.5t-3.5 -321.5z" />
<glyph unicode="&#xf3;" d="M49 776q0 348 11 472.5t42 201.5q28 70 81.5 98.5t158.5 28.5q103 0 157.5 -28.5t82.5 -98.5q30 -79 41.5 -204.5t11.5 -469.5t-11.5 -471.5t-41.5 -204.5q-27 -71 -81.5 -99t-158.5 -28q-105 0 -159 28t-81 99q-31 75 -42 201t-11 475zM229 780q0 -303 5 -399t20 -150 q9 -37 28.5 -51t59.5 -14t59.5 14t28.5 51q10 41 14 78.5t7.5 151t3.5 319.5q0 302 -5 398t-18 151q-9 37 -29.5 52.5t-60.5 15.5q-39 0 -59 -15t-29 -51q-10 -39 -14 -77t-7.5 -152.5t-3.5 -321.5zM258 1616v8l164 346h166v-10l-195 -344h-135z" />
<glyph unicode="&#xf4;" d="M49 776q0 348 11 472.5t42 201.5q28 70 81.5 98.5t158.5 28.5q103 0 157.5 -28.5t82.5 -98.5q30 -79 41.5 -204.5t11.5 -469.5t-11.5 -471.5t-41.5 -204.5q-27 -71 -81.5 -99t-158.5 -28q-105 0 -159 28t-81 99q-31 75 -42 201t-11 475zM90 1616v8l189 346h124l191 -346 v-8h-152l-94 186h-14l-94 -186h-150zM229 780q0 -303 5 -399t20 -150q9 -37 28.5 -51t59.5 -14t59.5 14t28.5 51q10 41 14 78.5t7.5 151t3.5 319.5q0 302 -5 398t-18 151q-9 37 -29.5 52.5t-60.5 15.5q-39 0 -59 -15t-29 -51q-10 -39 -14 -77t-7.5 -152.5t-3.5 -321.5z" />
<glyph unicode="&#xf5;" d="M49 776q0 348 11 472.5t42 201.5q28 70 81.5 98.5t158.5 28.5q103 0 157.5 -28.5t82.5 -98.5q30 -79 41.5 -204.5t11.5 -469.5t-11.5 -471.5t-41.5 -204.5q-27 -71 -81.5 -99t-158.5 -28q-105 0 -159 28t-81 99q-31 75 -42 201t-11 475zM55 1679v140q21 38 60.5 61 t87.5 23q81 0 145 -43q34 -22 49.5 -31t36 -15t45.5 -6q84 0 139 90h11v-137q-55 -86 -160 -86q-78 0 -156 58q-29 21 -52 28.5t-60 7.5q-77 0 -138 -90h-8zM229 780q0 -303 5 -399t20 -150q9 -37 28.5 -51t59.5 -14t59.5 14t28.5 51q10 41 14 78.5t7.5 151t3.5 319.5 q0 302 -5 398t-18 151q-9 37 -29.5 52.5t-60.5 15.5q-39 0 -59 -15t-29 -51q-10 -39 -14 -77t-7.5 -152.5t-3.5 -321.5z" />
<glyph unicode="&#xf6;" d="M49 776q0 348 11 472.5t42 201.5q28 70 81.5 98.5t158.5 28.5q103 0 157.5 -28.5t82.5 -98.5q30 -79 41.5 -204.5t11.5 -469.5t-11.5 -471.5t-41.5 -204.5q-27 -71 -81.5 -99t-158.5 -28q-105 0 -159 28t-81 99q-31 75 -42 201t-11 475zM111 1669v229h157v-229h-157z M229 780q0 -303 5 -399t20 -150q9 -37 28.5 -51t59.5 -14t59.5 14t28.5 51q10 41 14 78.5t7.5 151t3.5 319.5q0 302 -5 398t-18 151q-9 37 -29.5 52.5t-60.5 15.5q-39 0 -59 -15t-29 -51q-10 -39 -14 -77t-7.5 -152.5t-3.5 -321.5zM414 1669v229h157v-229h-157z" />
<glyph unicode="&#xf7;" d="M39 707v139h606v-139h-606zM252 244v258h180v-258h-180zM252 1051v258h180v-258h-180z" />
<glyph unicode="&#xf8;" d="M49 776q0 348 11 472.5t42 201.5q28 70 81.5 98.5t158.5 28.5q77 0 123 -14l41 184h94l-53 -238q19 -21 35 -59q30 -79 41.5 -204.5t11.5 -469.5t-11.5 -471.5t-41.5 -204.5q-27 -71 -81.5 -99t-158.5 -28q-81 0 -131 17l-55 -256h-95l70 313q-15 17 -29 53 q-31 75 -42 201t-11 475zM225 444h8q19 105 187 916q-19 37 -78 37q-39 0 -59 -15t-29 -51q-10 -39 -14 -77t-7.5 -152.5t-3.5 -321.5q0 -234 -4 -336zM260 209q10 -24 28.5 -33.5t53.5 -9.5q40 0 59.5 14t28.5 51q10 41 14 78.5t7.5 151t3.5 319.5q0 236 4 332h-8 q-9 -73 -38.5 -212.5t-152.5 -690.5z" />
<glyph unicode="&#xf9;" horiz-adv-x="698" d="M55 430v1120h187v-1120q0 -126 3.5 -164t20.5 -65q12 -20 31 -27.5t55 -7.5t54 7.5t30 27.5q17 27 21 66t4 163v1120h180v-1120q0 -170 -6 -232.5t-33 -115.5q-31 -61 -87 -85t-165 -24q-110 0 -167 24t-87 85q-28 54 -34.5 118t-6.5 230zM104 1960v10h166l166 -346v-8 h-135z" />
<glyph unicode="&#xfa;" horiz-adv-x="698" d="M55 430v1120h187v-1120q0 -126 3.5 -164t20.5 -65q12 -20 31 -27.5t55 -7.5t54 7.5t30 27.5q17 27 21 66t4 163v1120h180v-1120q0 -170 -6 -232.5t-33 -115.5q-31 -61 -87 -85t-165 -24q-110 0 -167 24t-87 85q-28 54 -34.5 118t-6.5 230zM268 1616v8l164 346h166v-10 l-195 -344h-135z" />
<glyph unicode="&#xfb;" horiz-adv-x="698" d="M55 430v1120h187v-1120q0 -126 3.5 -164t20.5 -65q12 -20 31 -27.5t55 -7.5t54 7.5t30 27.5q17 27 21 66t4 163v1120h180v-1120q0 -170 -6 -232.5t-33 -115.5q-31 -61 -87 -85t-165 -24q-110 0 -167 24t-87 85q-28 54 -34.5 118t-6.5 230zM100 1616v8l189 346h125 l190 -346v-8h-151l-95 186h-14l-94 -186h-150z" />
<glyph unicode="&#xfc;" horiz-adv-x="698" d="M55 430v1120h187v-1120q0 -126 3.5 -164t20.5 -65q12 -20 31 -27.5t55 -7.5t54 7.5t30 27.5q17 27 21 66t4 163v1120h180v-1120q0 -170 -6 -232.5t-33 -115.5q-31 -61 -87 -85t-165 -24q-110 0 -167 24t-87 85q-28 54 -34.5 118t-6.5 230zM119 1669v229h157v-229h-157z M422 1669v229h158v-229h-158z" />
<glyph unicode="&#xfd;" horiz-adv-x="665" d="M18 1540v10h183q112 -514 125 -596h14q17 103 129 596h178v-10l-215 -862v-678h-194v676zM252 1616v8l164 346h166v-10l-195 -344h-135z" />
<glyph unicode="&#xfe;" horiz-adv-x="681" d="M68 0v1550h180v-237h143q60 0 100.5 -16.5t70 -52t45.5 -100t23 -151.5t7 -215q0 -311 -51 -431t-195 -120h-143v-227h-180zM248 408h114q39 0 56.5 22t27 102t9.5 250q0 156 -9.5 230t-28.5 96t-59 22h-110v-722z" />
<glyph unicode="&#xff;" horiz-adv-x="665" d="M18 1540v10h183q112 -514 125 -596h14q17 103 129 596h178v-10l-215 -862v-678h-194v676zM102 1669v229h158v-229h-158zM406 1669v229h157v-229h-157z" />
<glyph unicode="&#x152;" horiz-adv-x="1003" d="M49 776q0 340 10.5 458.5t42.5 192.5q29 69 83 96t157 27h602v-184h-301v-487h295v-177h-295v-509h299v-193h-600q-111 0 -163 25t-79 96q-29 77 -40 195.5t-11 459.5zM233 778q0 -285 5 -380t20 -146q9 -35 28 -48.5t60 -13.5h117v1176h-117q-39 0 -58 -14t-30 -49 q-15 -47 -20 -142t-5 -383z" />
<glyph unicode="&#x153;" horiz-adv-x="1003" d="M49 776q0 340 10.5 458.5t42.5 192.5q29 69 83 96t157 27h602v-184h-301v-487h295v-177h-295v-509h299v-193h-600q-111 0 -163 25t-79 96q-29 77 -40 195.5t-11 459.5zM233 778q0 -285 5 -380t20 -146q9 -35 28 -48.5t60 -13.5h117v1176h-117q-39 0 -58 -14t-30 -49 q-15 -47 -20 -142t-5 -383z" />
<glyph unicode="&#x178;" horiz-adv-x="665" d="M18 1540v10h183q112 -514 125 -596h14q17 103 129 596h178v-10l-215 -862v-678h-194v676zM102 1669v229h158v-229h-158zM406 1669v229h157v-229h-157z" />
<glyph unicode="&#x2c6;" horiz-adv-x="638" d="M68 1212v9l188 346h125l190 -346v-9h-151l-94 187h-15l-94 -187h-149z" />
<glyph unicode="&#x2dc;" horiz-adv-x="708" d="M68 1276v139q21 38 60 61t87 23q81 0 145 -43q47 -31 71.5 -41t60.5 -10q84 0 139 90h10v-137q-55 -86 -160 -86q-78 0 -155 57q-29 22 -52.5 29.5t-60.5 7.5q-76 0 -137 -90h-8z" />
<glyph unicode="&#x2000;" horiz-adv-x="985" />
<glyph unicode="&#x2001;" horiz-adv-x="1970" />
<glyph unicode="&#x2002;" horiz-adv-x="985" />
<glyph unicode="&#x2003;" horiz-adv-x="1970" />
<glyph unicode="&#x2004;" horiz-adv-x="656" />
<glyph unicode="&#x2005;" horiz-adv-x="492" />
<glyph unicode="&#x2006;" horiz-adv-x="328" />
<glyph unicode="&#x2007;" horiz-adv-x="328" />
<glyph unicode="&#x2008;" horiz-adv-x="246" />
<glyph unicode="&#x2009;" horiz-adv-x="394" />
<glyph unicode="&#x200a;" horiz-adv-x="109" />
<glyph unicode="&#x2010;" horiz-adv-x="557" d="M45 707v147h465v-147h-465z" />
<glyph unicode="&#x2011;" horiz-adv-x="557" d="M45 707v147h465v-147h-465z" />
<glyph unicode="&#x2012;" horiz-adv-x="557" d="M45 707v147h465v-147h-465z" />
<glyph unicode="&#x2013;" horiz-adv-x="823" d="M45 707v147h731v-147h-731z" />
<glyph unicode="&#x2014;" horiz-adv-x="1132" d="M45 707v147h1040v-147h-1040z" />
<glyph unicode="&#x2018;" horiz-adv-x="319" d="M68 1065v250l92 299h86v-10l-60 -289l4 -12h62v-238h-184z" />
<glyph unicode="&#x2019;" horiz-adv-x="319" d="M68 1376v238h184v-250l-92 -299h-86v10l59 289l-4 12h-61z" />
<glyph unicode="&#x201a;" horiz-adv-x="319" d="M68 20v238h184v-250l-92 -299h-86v10l59 289l-4 12h-61z" />
<glyph unicode="&#x201c;" horiz-adv-x="638" d="M68 1065v250l92 299h86v-10l-60 -289l4 -12h62v-238h-184zM387 1065v250l92 299h86v-10l-59 -289l4 -12h61v-238h-184z" />
<glyph unicode="&#x201d;" horiz-adv-x="638" d="M68 1376v238h184v-250l-92 -299h-86v10l59 289l-4 12h-61zM387 1376v238h184v-250l-92 -299h-86v10l60 289l-4 12h-62z" />
<glyph unicode="&#x201e;" horiz-adv-x="638" d="M68 20v238h184v-250l-92 -299h-86v10l59 289l-4 12h-61zM387 20v238h184v-250l-92 -299h-86v10l60 289l-4 12h-62z" />
<glyph unicode="&#x2022;" horiz-adv-x="516" d="M68 766q0 95 6.5 129t25.5 55q33 33 158 33t158 -33q20 -21 26.5 -55t6.5 -129q0 -94 -6.5 -127.5t-26.5 -54.5q-35 -35 -158 -35t-158 35q-18 20 -25 54.5t-7 127.5z" />
<glyph unicode="&#x2026;" horiz-adv-x="1083" d="M86 0v258h180v-258h-180zM451 0v258h180v-258h-180zM815 0v258h180v-258h-180z" />
<glyph unicode="&#x202f;" horiz-adv-x="394" />
<glyph unicode="&#x2039;" horiz-adv-x="391" d="M45 719v119l289 295h8v-172l-186 -177v-14l186 -174v-170h-8z" />
<glyph unicode="&#x203a;" horiz-adv-x="391" d="M45 426v172l186 176v14l-186 175v170h8l289 -293v-119l-289 -295h-8z" />
<glyph unicode="&#x205f;" horiz-adv-x="492" />
<glyph unicode="&#x20ac;" d="M29 580l18 127h49v159h-67l18 127h49q0 262 10 343.5t48 146.5q33 55 82 74.5t139 19.5q173 0 231 -94l-39 -176h-10q-23 46 -55 70t-88 24q-58 0 -82 -8t-41 -35q-18 -27 -22.5 -88.5t-4.5 -276.5h260l-18 -127h-242v-159h213l-16 -127h-197q0 -194 4 -264t17 -113 q8 -27 25.5 -35t72.5 -8q66 0 80 26q14 23 14 95q0 69 -6 143h168q6 -49 6 -143q0 -81 -11 -135t-39 -95t-79 -59.5t-129 -18.5q-50 0 -83.5 3.5t-65.5 15t-51.5 29t-37 51t-26.5 75.5t-16 107.5t-9 142t-2 183.5h-67z" />
<glyph unicode="&#x2122;" horiz-adv-x="1091" d="M43 1442v108h356v-108h-116v-627h-123v627h-117zM449 815v735h186l90 -465h16l101 465h182v-735h-115v539h-14l-125 -539h-68l-124 539h-15v-539h-114z" />
<glyph unicode="&#x25fc;" horiz-adv-x="1546" d="M0 0v1546h1546v-1546h-1546z" />
</font>
</defs>
</svg>
