<?xml version="1.0" standalone="no"?>
<!DOCTYPE svg PUBLIC "-//W3C//DTD SVG 1.1//EN" "http://www.w3.org/Graphics/SVG/1.1/DTD/svg11.dtd" >
<svg xmlns="http://www.w3.org/2000/svg" xmlns:xlink="http://www.w3.org/1999/xlink" version="1.1">
<metadata></metadata>
<defs>
<font id="built_titlinglight" horiz-adv-x="561" >
<font-face units-per-em="2048" ascent="1561" descent="-487" />
<missing-glyph horiz-adv-x="251" />
<glyph unicode="&#x28;C&#x29;" horiz-adv-x="761" d="M51 776q0 369 10.5 487.5t49.5 186.5q41 71 98.5 99t171.5 28q119 0 177.5 -28.5t92.5 -98.5q36 -76 48 -200t12 -474q0 -365 -11 -486t-49 -190q-37 -69 -97.5 -98t-172.5 -29q-120 0 -178 28t-92 99q-36 74 -48 199t-12 477zM125 776q0 -339 10 -458.5t39 -180.5 q22 -46 71 -68t136 -22q95 0 139.5 20.5t67.5 69.5q29 62 38 179.5t9 459.5q0 367 -7 473.5t-40 163.5q-30 49 -74.5 68.5t-132.5 19.5q-95 0 -139.5 -20t-67.5 -68q-29 -65 -39 -182t-10 -455zM246 784q0 201 4.5 270t17.5 107q14 42 37 58t76 16q51 0 73.5 -15t34.5 -55 q19 -58 19 -192q0 -57 -2 -84h-70q2 27 2 82q0 130 -14 164q-11 28 -43 28q-20 0 -30.5 -7t-16.5 -26q-9 -29 -12 -88t-3 -258q0 -203 3 -265t12 -89q11 -35 47 -35q29 0 41 31q16 33 16 170q0 55 -2 82h70q2 -27 2 -84q0 -147 -21 -203q-13 -37 -35 -52t-71 -15 q-53 0 -76 16t-37 59q-13 38 -17.5 109.5t-4.5 275.5z" />
<glyph unicode="&#x28;R&#x29;" horiz-adv-x="761" d="M51 776q0 369 10.5 487.5t49.5 186.5q41 71 98.5 99t171.5 28q119 0 177.5 -28.5t92.5 -98.5q36 -76 48 -200t12 -474q0 -365 -11 -486t-49 -190q-37 -69 -97.5 -98t-172.5 -29q-120 0 -178 28t-92 99q-36 74 -48 199t-12 477zM125 776q0 -339 10 -458.5t39 -180.5 q22 -46 71 -68t136 -22q95 0 139.5 20.5t67.5 69.5q29 62 38 179.5t9 459.5q0 367 -7 473.5t-40 163.5q-30 49 -74.5 68.5t-132.5 19.5q-95 0 -139.5 -20t-67.5 -68q-29 -65 -39 -182t-10 -455zM254 336v885h147q67 0 90 -55t23 -187q0 -114 -9.5 -158t-37.5 -63v-8 q17 -17 23 -50t12 -129q1 -23 2 -36q4 -65 9 -110t7 -62t2 -27h-69q-11 28 -19 190q-4 72 -7 107t-9.5 57t-14.5 26.5t-24 4.5h-53v-385h-72zM326 788h57q25 0 36 11t17 50.5t6 123.5q0 50 -4.5 86t-10 53t-13.5 26t-12 10t-8 1h-1h-67v-361z" />
<glyph horiz-adv-x="0" />
<glyph horiz-adv-x="682" />
<glyph horiz-adv-x="251" />
<glyph unicode=" "  horiz-adv-x="251" />
<glyph unicode="&#x09;" horiz-adv-x="251" />
<glyph unicode="&#xa0;" horiz-adv-x="251" />
<glyph unicode="!" horiz-adv-x="264" d="M66 1614h131l-23 -1149h-84zM76 0v309h110v-309h-110z" />
<glyph unicode="&#x22;" horiz-adv-x="468" d="M59 1614h117l-20 -531h-76zM291 1614h117l-21 -531h-76z" />
<glyph unicode="#" d="M43 481v80h98v430h-98v80h98v479h80v-479h119v479h80v-479h98v-80h-98v-430h98v-80h-98v-481h-80v481h-119v-481h-80v481h-98zM221 561h119v430h-119v-430z" />
<glyph unicode="$" d="M72 1145q0 84 11 139t34 83t49 38.5t65 13.5v221h84v-221q57 -2 90 -20t53.5 -73t20.5 -155q0 -101 -6 -147h-98q2 27 2 127q0 108 -20.5 142t-80.5 34q-30 0 -44.5 -4t-29.5 -22t-20.5 -58t-5.5 -108q0 -148 17 -187q11 -27 45 -51t88 -53.5t84 -52.5q31 -23 44.5 -37 t23.5 -47t12 -74.5t2 -128.5q0 -178 -40 -253.5t-137 -84.5v-254h-84v254q-41 2 -67.5 14.5t-48 43.5t-31.5 88.5t-10 144.5q0 54 6 135h102q-4 -23 -4 -119q0 -93 9.5 -137.5t28 -58t58.5 -13.5q67 0 89 48.5t22 193.5q0 135 -25 178q-14 21 -46 42t-78 46.5t-72 44.5 q-45 32 -61.5 60t-23.5 83.5t-7 184.5z" />
<glyph unicode="%" horiz-adv-x="761" d="M39 1143q0 193 4.5 272.5t17.5 114.5q14 35 35 46t78 11t78 -11t35 -46q13 -35 17.5 -114.5t4.5 -272.5t-4.5 -273.5t-17.5 -115.5q-15 -36 -35.5 -46t-77.5 -10t-77.5 10t-35.5 46q-13 35 -17.5 115.5t-4.5 273.5zM84 0v8l516 1542h80v-10l-518 -1540h-78zM123 1143 q0 -139 1 -205t8 -104.5t15 -44t27 -5.5t27 5.5t15 44t8 104.5t1 205q0 284 -11 329q-7 27 -26 30q-5 1 -14 1q-26 0 -34 -15q-15 -29 -17 -217v-128zM455 410q0 193 4.5 272.5t17.5 114.5q14 35 35 46t78 11t77.5 -11t34.5 -46q13 -35 18 -116t5 -271t-5 -272.5t-18 -117.5 q-15 -36 -35 -45.5t-77 -9.5t-77.5 9.5t-35.5 45.5q-13 35 -17.5 116t-4.5 274zM539 410q0 -139 1 -205t8 -104.5t15 -44t27 -5.5t27 5.5t15 44t8 104.5t1 205q0 284 -11 329q-7 27 -26 30q-5 1 -14 1q-26 0 -34 -15q-15 -29 -17 -217v-128z" />
<glyph unicode="&#x26;" horiz-adv-x="661" d="M51 430q0 178 21 247.5t98 143.5l45 43l-35 99q-34 95 -42.5 146.5t-8.5 156.5q0 70 3 117t12 83.5t22 56.5t37 33t52.5 17t72.5 4q45 0 72 -7t49.5 -25.5t33 -57.5t16 -97.5t5.5 -150.5q0 -116 -10.5 -178t-32 -97.5t-70.5 -78.5l-61 -54l112 -339h9l71 294h105v-10 l-119 -432l125 -336v-8h-101l-65 193h-8q-22 -124 -65.5 -172t-135.5 -48q-46 0 -74 5t-54 22t-39 46t-23 82t-13.5 124t-3.5 178zM162 444q0 -164 10 -238t30 -95t66 -21q41 0 60.5 25t40.5 100l34 131l-151 426l-37 -41q-35 -39 -44 -89.5t-9 -197.5zM227 1247 q0 -106 10 -157t58 -166l43 39q30 27 41 39t20 43.5t10 67.5t1 120q0 112 -7.5 162t-24 65t-54.5 15q-27 0 -42.5 -4.5t-27.5 -16t-17 -39t-7.5 -65.5t-2.5 -103z" />
<glyph unicode="'" horiz-adv-x="237" d="M59 1614h117l-20 -531h-76z" />
<glyph unicode="(" d="M178 741q0 271 18 482t51.5 352t71.5 232.5t89 162.5h92v-10q-53 -75 -91.5 -167t-72 -232.5t-51 -347t-17.5 -474.5q0 -267 17 -470.5t50.5 -343.5t72 -231t92.5 -171v-10h-92q-51 72 -89 162.5t-71.5 231.5t-51.5 351.5t-18 482.5z" />
<glyph unicode=")" d="M59 -477q54 80 92.5 171t72 231t50.5 343.5t17 470.5q0 266 -17.5 471t-51.5 345t-72 231.5t-91 173.5v10h93q50 -71 88 -162.5t71.5 -232.5t51.5 -352t18 -482q0 -272 -17.5 -482.5t-51.5 -351.5t-71.5 -231.5t-88.5 -162.5h-93v10z" />
<glyph unicode="*" horiz-adv-x="987" d="M90 1057l354 78l2 12l-303 201l45 61l285 -227l14 6l-16 362h76l-19 -362l13 -6l272 241l47 -59l-293 -215l4 -14l359 -58l-17 -73l-352 92l-8 -11l180 -317l-67 -33l-150 330h-12l-135 -338l-68 31l164 325l-8 11l-348 -111z" />
<glyph unicode="+" d="M43 731v90h190v193h93v-193h192v-90h-192v-194h-93v194h-190z" />
<glyph unicode="," horiz-adv-x="247" d="M66 20v211h116v-223l-61 -299h-51l39 301l-5 10h-38z" />
<glyph unicode="-" horiz-adv-x="462" d="M47 733v94h367v-94h-367z" />
<glyph unicode="." horiz-adv-x="243" d="M66 0v231h110v-231h-110z" />
<glyph unicode="/" d="M8 -313l457 2050h90l-459 -2050h-88z" />
<glyph unicode="0" d="M51 776q0 357 8 503.5t33 211.5q20 55 56 70.5t133 15.5q95 0 131 -15.5t57 -70.5q25 -65 33 -211t8 -504t-8 -505.5t-33 -211.5q-21 -55 -57 -70.5t-131 -15.5q-98 0 -133 15t-56 71q-24 66 -32.5 217t-8.5 500zM162 776q0 -351 4 -467t20 -166q10 -34 28.5 -43.5 t66.5 -9.5q47 0 64.5 9.5t29.5 43.5q16 50 20 165.5t4 467.5q0 359 -4 472t-20 163q-12 35 -30 45t-64 10q-47 0 -66 -10.5t-29 -44.5q-16 -50 -20 -163.5t-4 -471.5z" />
<glyph unicode="1" d="M68 1202v103h88q48 0 66.5 19.5t21.5 78.5l6 147h92v-1433h152v-117h-424v117h157v1085h-159z" />
<glyph unicode="2" d="M53 0v129l232 424q43 79 66.5 133.5t34.5 119.5t13 112.5t2 152.5q0 149 -7 216t-21 116q-10 35 -30.5 49t-59.5 14q-38 0 -58 -11t-30 -40q-29 -85 -29 -295q0 -114 2 -155h-107q-2 47 -2 155q0 258 43 359q42 98 181 98q86 0 125 -25t63 -92q23 -66 33 -145.5 t10 -241.5q0 -98 -5 -163.5t-11 -111.5t-29.5 -104t-41.5 -95t-67 -130l-180 -346l4 -10h322v-113h-453z" />
<glyph unicode="3" d="M49 446q0 73 2 91h107q-2 -18 -2 -91q0 -161 4.5 -213t21.5 -92q12 -29 32.5 -40t61.5 -11q54 0 75.5 12t33.5 50q18 60 18 278q0 205 -16 258q-9 31 -32.5 42t-75.5 11h-107v113h107q50 0 67 6.5t29 30.5q18 37 18 248q0 150 -7 204t-26 89q-17 36 -84 36 q-36 0 -52.5 -8.5t-30.5 -32.5q-20 -34 -27.5 -90t-7.5 -196q0 -61 2 -86h-107q-2 20 -2 86q0 290 60 372q26 36 60 50t110 14q67 0 99 -11.5t58 -43.5q34 -43 48 -121t14 -250q0 -185 -11.5 -246.5t-64.5 -97.5v-10q36 -17 53 -46t26 -105.5t9 -227.5q0 -283 -57 -369 q-51 -76 -174 -76q-74 0 -118.5 28.5t-70.5 84.5q-43 91 -43 360z" />
<glyph unicode="4" d="M39 338v117l287 1095h127v-1110h67v-102h-67v-338h-111v338h-303zM145 451l5 -11h194v521q0 175 6 292h-12q-2 -27 -193 -802z" />
<glyph unicode="5" d="M51 455q0 49 4 139h107q-4 -74 -4 -139q0 -149 18 -252q10 -64 32.5 -88.5t67.5 -24.5q44 0 64 15.5t31 54.5q17 54 21.5 140.5t4.5 322.5q0 156 -10 228.5t-31 95t-67 22.5q-51 0 -77 -26t-40 -71l-98 29l26 649h396v-114h-295l-17 -334q-2 -58 -8 -101l10 -4 q15 33 51 52.5t82 19.5q73 0 112.5 -36t58 -131t18.5 -275q0 -400 -41 -527q-24 -72 -65 -99.5t-134 -27.5q-87 0 -131 42t-63 135q-23 115 -23 305z" />
<glyph unicode="6" d="M51 776q0 327 12.5 487.5t45.5 229.5q24 50 62 67t110 17t111 -17.5t63 -62.5q45 -88 45 -295q0 -51 -2 -78h-105q2 25 2 78q0 174 -33 230q-12 20 -28 27t-53 7q-35 0 -50 -7t-28 -27q-41 -59 -41 -369v-152l8 -4q40 56 133 56q47 0 77.5 -9t57.5 -35t41.5 -75.5 t22.5 -129t8 -196.5q0 -249 -29 -381q-22 -93 -66 -128.5t-134 -35.5q-70 0 -111.5 18t-65.5 72q-33 72 -43 212t-10 501zM162 561q0 -304 28 -399q12 -40 32.5 -56t62.5 -16q38 0 55.5 12t30.5 54q28 96 28 374q0 153 -9 220t-31.5 91.5t-75.5 24.5q-99 0 -121 -88v-217z " />
<glyph unicode="7" d="M51 1436v114h457v-96l-264 -1454h-117l260 1425l-4 11h-332z" />
<glyph unicode="8" d="M45 418q0 160 8 235.5t25 102.5t55 41v10q-55 37 -66.5 98.5t-11.5 245.5q0 289 66 373q42 53 160 53q115 0 157 -53q66 -84 66 -373q0 -184 -11.5 -245.5t-66.5 -98.5v-10q38 -14 55 -41t25 -102.5t8 -235.5q0 -257 -45 -352q-24 -53 -66 -73t-122 -20t-123.5 20 t-67.5 73q-45 95 -45 352zM154 428q0 -220 32 -295q18 -45 95 -45q37 0 59 9t33 36q33 78 33 295q0 195 -17 258q-9 33 -34.5 48.5t-73.5 15.5q-93 0 -111 -64q-16 -59 -16 -258zM164 1141q0 -124 4 -173t16 -77q11 -24 31.5 -33.5t65.5 -9.5q44 0 63.5 9.5t30.5 33.5 q12 28 16 77t4 173q0 143 -9 210t-28 91q-12 15 -28.5 20.5t-48.5 5.5q-59 0 -80 -26q-19 -24 -28 -91t-9 -210z" />
<glyph unicode="9" d="M51 1083q0 308 47 404q19 37 46 57t57.5 26.5t77.5 6.5q74 0 116 -18t70 -72q45 -88 45 -416q0 -293 -55 -548.5t-170 -522.5h-125v6q134 279 207 637l-13 6q-16 -22 -50.5 -38.5t-74.5 -16.5q-42 0 -68 5.5t-47.5 26.5t-32.5 51t-18.5 89t-9.5 130.5t-2 186.5zM162 1087 q0 -102 1 -164t6.5 -109t10 -68t19.5 -34t26.5 -14.5t38.5 -1.5q39 0 69.5 24.5t47.5 59.5q18 117 18 297q0 277 -32 350q-17 39 -88 39q-41 0 -56 -8.5t-28 -34.5q-33 -68 -33 -336z" />
<glyph unicode=":" horiz-adv-x="274" d="M82 0v231h111v-231h-111zM82 838v231h111v-231h-111z" />
<glyph unicode=";" horiz-adv-x="280" d="M82 20v211h115v-223l-60 -299h-53l41 301l-4 10h-39zM82 838v231h111v-231h-111z" />
<glyph unicode="&#x3c;" d="M43 733v86l467 377h8v-109l-385 -305v-12l385 -305v-109h-8z" />
<glyph unicode="=" d="M43 510v90h475v-90h-475zM43 950v90h475v-90h-475z" />
<glyph unicode="&#x3e;" d="M43 356v109l385 305v12l-385 305v109h8l467 -377v-86l-467 -377h-8z" />
<glyph unicode="?" horiz-adv-x="520" d="M53 1221q0 224 47 290q26 36 63.5 51t98.5 15q59 0 95.5 -14t60.5 -47q53 -72 53 -330q0 -132 -10 -192t-43 -120q-15 -28 -49 -77t-45 -72q-13 -24 -19 -52.5t-7 -49.5t-1 -64q0 -62 4 -94h-98q-6 35 -6 94q0 93 7 135.5t27 79.5q14 27 58.5 93.5t56.5 93.5 q14 33 17.5 68t3.5 145q0 231 -39 270q-22 22 -66 22q-52 0 -74 -28q-34 -46 -34 -217q0 -119 4 -152h-99q-6 53 -6 152zM195 0v309h110v-309h-110z" />
<glyph unicode="@" horiz-adv-x="813" d="M61 506q0 285 7 442t18 216t33 102q37 71 106.5 100t186.5 29q111 0 169.5 -23t104.5 -88q28 -39 39.5 -91t17 -176t5.5 -388q0 -305 -5 -387.5t-24 -116.5q-16 -30 -38.5 -42.5t-70.5 -12.5q-78 0 -106 47h-12q-31 -47 -97 -47q-36 0 -55 9.5t-31 33.5 q-19 37 -24.5 102.5t-5.5 265.5v70q0 199 5.5 265t24.5 102q12 23 30 33t50 10q54 0 72 -54h8l4 37h78v-704q0 -44 10 -74q9 -25 41 -25q21 0 30.5 6t14.5 21q10 30 12.5 103.5t2.5 361.5q0 310 -10.5 424t-37.5 160q-24 42 -68.5 60.5t-133.5 18.5q-88 0 -131.5 -18.5 t-69.5 -65.5q-28 -48 -36.5 -172t-8.5 -534q0 -381 7 -516t26 -193q23 -67 73 -94t152 -27q91 0 134.5 13.5t72.5 46.5q21 25 27 60.5t6 113.5q0 49 -2 63h100q2 -14 2 -69q0 -90 -8 -138.5t-33 -87.5q-36 -56 -105 -83t-202 -27q-138 0 -207 34.5t-103 127.5 q-25 65 -35 214.5t-10 561.5zM365 428q0 -151 2.5 -194.5t13.5 -65.5q11 -21 35 -21q35 0 51 33v643q-13 54 -49 54q-26 0 -37 -21q-11 -22 -13.5 -69.5t-2.5 -237.5v-121z" />
<glyph unicode="A" horiz-adv-x="548" d="M37 0l147 1550h191l137 -1550h-115l-37 455h-172l-38 -455h-113zM195 563h159l-61 701q-12 141 -12 198h-9q0 -57 -12 -198z" />
<glyph unicode="B" horiz-adv-x="571" d="M66 0v1550h253q70 0 104.5 -20t57.5 -78q19 -49 27 -117t8 -202t-8 -194t-25 -91q-18 -30 -43 -41v-10q29 -12 47 -37q24 -31 32.5 -94.5t8.5 -247.5q0 -143 -7 -204t-29 -114q-24 -59 -58 -79.5t-100 -20.5h-268zM176 109h141q32 0 49 9.5t27 35.5q13 33 18 86t5 188 q0 155 -3.5 202.5t-17.5 78.5q-11 24 -29 32.5t-67 8.5h-123v-641zM176 844h117q48 0 65.5 8t26.5 31q14 28 17.5 72t3.5 188q0 126 -5 176t-18 80q-9 24 -25.5 33.5t-46.5 9.5h-135v-598z" />
<glyph unicode="C" horiz-adv-x="563" d="M51 788q0 243 6 385t13.5 187.5t21.5 91.5q22 69 64.5 97t124.5 28q78 0 123.5 -28.5t68.5 -112.5q31 -117 31 -316q0 -108 -2 -137h-107q2 29 2 135q0 167 -22 268q-10 45 -32.5 62.5t-61.5 17.5q-41 0 -61.5 -18t-31.5 -62q-16 -60 -21 -169t-5 -429q0 -316 5.5 -437 t20.5 -181q10 -44 32.5 -62t66.5 -18q36 0 55 16.5t29 57.5q28 106 28 299q0 86 -2 131h107q2 -47 2 -129q0 -246 -39 -371q-21 -67 -63.5 -94t-116.5 -27q-85 0 -128.5 28.5t-66.5 98.5q-23 72 -32 208.5t-9 479.5z" />
<glyph unicode="D" horiz-adv-x="583" d="M66 0v1550h237q80 0 122 -27t67 -96q25 -70 32.5 -187t7.5 -464q0 -354 -7.5 -469.5t-30.5 -187.5q-23 -68 -64.5 -93.5t-126.5 -25.5h-237zM176 115h125q42 0 63 15.5t31 57.5q15 60 20 166t5 422q0 329 -4 428.5t-21 153.5q-14 45 -34.5 62.5t-59.5 17.5h-125v-1323z " />
<glyph unicode="E" horiz-adv-x="495" d="M66 0v1550h376v-112h-266v-594h262v-109h-262v-618h264v-117h-374z" />
<glyph unicode="F" horiz-adv-x="468" d="M66 0v1550h372v-112h-262v-604h256v-109h-256v-725h-110z" />
<glyph unicode="G" horiz-adv-x="557" d="M51 788q0 337 8 461.5t29 188.5q26 81 67 110t126 29q83 0 125 -29t63 -96q35 -113 35 -295q0 -60 -2 -80h-107q2 14 2 80q0 127 -20 215q-11 52 -31 73t-65 21q-42 0 -63.5 -20.5t-33.5 -73.5q-13 -51 -18.5 -162.5t-5.5 -421.5q0 -321 6.5 -437t21.5 -181 q11 -46 31.5 -64t63.5 -18q44 0 63.5 18t30.5 64q15 61 22 146.5t7 269.5q0 104 -3 139h-159v109h262q4 -98 4 -228q0 -223 -10 -331t-31 -175q-23 -73 -63.5 -100t-124.5 -27q-82 0 -124 27.5t-65 99.5q-24 76 -32.5 205t-8.5 483z" />
<glyph unicode="H" horiz-adv-x="600" d="M63 0v1550h113v-706h248v706h113v-1550h-113v735h-248v-735h-113z" />
<glyph unicode="I" horiz-adv-x="249" d="M68 0v1550h114v-1550h-114z" />
<glyph unicode="J" horiz-adv-x="548" d="M37 455q0 93 6 139h102q-4 -31 -4 -139q0 -201 23 -277q15 -51 34.5 -69.5t57.5 -18.5q44 0 63.5 17.5t30.5 62.5q29 141 29 627v753h113v-751q0 -346 -8.5 -485t-32.5 -210q-24 -72 -65.5 -101.5t-127.5 -29.5q-80 0 -122.5 29t-65.5 100q-33 103 -33 353z" />
<glyph unicode="K" horiz-adv-x="593" d="M66 0v1550h112v-563q0 -86 -2 -119h8q10 42 256 682h115v-10l-270 -696l280 -836v-8h-119q-254 762 -262 805h-8q2 -33 2 -123v-682h-112z" />
<glyph unicode="L" horiz-adv-x="448" d="M66 0v1550h110v-1433h248v-117h-358z" />
<glyph unicode="M" horiz-adv-x="800" d="M63 0v1550h189q141 -1096 143 -1134h8q1 28 148 1134h186v-1550h-102v1174q0 129 2 182h-8q-6 -63 -199 -1356h-59q-33 220 -64.5 428t-50 327.5t-35.5 230t-25 164t-14.5 100.5t-8.5 67.5t-3 38.5h-8q2 -53 2 -182v-1174h-101z" />
<glyph unicode="N" horiz-adv-x="589" d="M63 0v1550h146q197 -939 209 -1022h8q-4 118 -4 275v747h104v-1550h-63q-63 274 -119.5 520.5t-82 355t-46.5 202t-29 130.5t-14 72h-8q4 -117 4 -371v-909h-105z" />
<glyph unicode="O" d="M51 776q0 350 8.5 474t32.5 200q22 70 64.5 98.5t124.5 28.5t124 -28.5t64 -98.5q24 -78 32.5 -203.5t8.5 -470.5t-8.5 -472.5t-32.5 -203.5q-22 -71 -63.5 -99t-124.5 -28q-82 0 -124 27.5t-65 99.5q-24 76 -32.5 203.5t-8.5 472.5zM162 778q0 -331 5 -439.5t21 -168.5 q10 -45 31 -62.5t62 -17.5t61.5 17t30.5 63q15 63 20.5 175.5t5.5 432.5q0 325 -5 433.5t-19 172.5q-9 44 -31 63t-63 19q-40 0 -62 -19t-31 -61q-15 -68 -20.5 -177.5t-5.5 -430.5z" />
<glyph unicode="P" horiz-adv-x="559" d="M66 0v1550h249q72 0 111 -30.5t57 -108.5q20 -88 25.5 -165t5.5 -204q0 -138 -5.5 -217t-25.5 -166q-17 -77 -56 -109t-114 -32h-137v-518h-110zM176 629h123q29 0 47 16t29 60q18 65 22 129t4 210q0 117 -5 182.5t-21 135.5q-10 43 -28.5 59.5t-47.5 16.5h-123v-809z " />
<glyph unicode="Q" d="M51 795q0 343 8 464t33 195q22 67 64.5 95t124.5 28t124 -27.5t64 -95.5q24 -77 32.5 -199.5t8.5 -459.5q0 -345 -6.5 -463.5t-26.5 -181.5q-31 -94 -90 -121q46 -136 86 -205v-10h-113q-21 34 -73 198q-87 0 -131.5 27t-67.5 96q-23 71 -30 192.5t-7 467.5zM162 793 q0 -257 2.5 -382t6 -156.5t11.5 -59.5q12 -39 29 -57t45 -23l4 6q-8 17 -35 129h103l24 -105l6 -2q19 27 27 74q14 88 14 576q0 319 -5 425t-19 168q-9 43 -31 61.5t-63 18.5q-40 0 -62 -18t-31 -59q-15 -67 -20.5 -173.5t-5.5 -422.5z" />
<glyph unicode="R" horiz-adv-x="573" d="M66 0v1550h249q99 0 146 -71q28 -42 41.5 -113.5t13.5 -232.5q0 -145 -6.5 -207.5t-22.5 -112.5q-23 -67 -69 -80v-8q38 -18 53 -76q15 -57 21.5 -117t13.5 -219q9 -183 13 -229t13 -76v-8h-112q-19 70 -27 291q-6 179 -11 236t-17 96q-19 59 -84 59h-105v-682h-110z M176 784h100q39 0 60 8.5t37 34.5q19 31 24.5 88.5t5.5 217.5q0 146 -4.5 189.5t-21.5 74.5q-22 43 -70 43h-131v-656z" />
<glyph unicode="S" horiz-adv-x="526" d="M45 1229q0 147 23 223q20 67 63 96t123 29q79 0 120 -24t62 -76q31 -79 31 -226q0 -127 -10 -182h-99q9 65 9 158q0 89 -17 159q-10 44 -32 62t-64 18q-39 0 -59.5 -18.5t-30.5 -63.5q-14 -66 -14 -167q0 -149 2.5 -186.5t13.5 -63.5q11 -28 37 -54q18 -19 92 -72.5 t96 -74.5q44 -42 62 -86q8 -20 12 -38.5t7 -75.5t3 -160q0 -238 -45 -340q-24 -54 -63.5 -73.5t-114.5 -19.5q-74 0 -113 27t-63 90q-29 82 -29 254q0 96 8 174h99q-7 -61 -7 -156q0 -102 6.5 -149.5t22.5 -81.5q21 -45 76 -45q34 0 54.5 8.5t31.5 34.5q33 78 33 277 q0 182 -15 225q-7 21 -43 57q-23 23 -94.5 78t-87.5 72q-45 45 -63 92q-13 38 -18 96.5t-5 202.5z" />
<glyph unicode="T" horiz-adv-x="491" d="M23 1438v112h444v-112h-164v-1438h-113v1438h-167z" />
<glyph unicode="U" horiz-adv-x="573" d="M55 403v1147h115v-1147q0 -133 5 -181t20 -83q21 -49 94 -49q71 0 92 49q15 35 20 83t5 181v1147h110v-1147q0 -159 -6 -220t-29 -109q-24 -54 -71 -77.5t-123 -23.5q-77 0 -124 23t-71 78q-23 49 -30 110.5t-7 218.5z" />
<glyph unicode="V" d="M37 1550h119q120 -1365 120 -1450h9q0 73 121 1450h116l-155 -1550h-181z" />
<glyph unicode="W" horiz-adv-x="864" d="M41 1550h111q92 -1380 92 -1450h8q0 52 127 1450h108q129 -1395 129 -1450h9q0 100 90 1450h108l-116 -1550h-164q-105 1200 -105 1257h-8q0 -44 -104 -1257h-168z" />
<glyph unicode="X" horiz-adv-x="571" d="M33 0l172 815l-150 725v10h113q21 -107 52 -268q63 -330 65 -364h8q4 47 117 632h108v-10l-153 -719l172 -821h-117q-124 650 -129 711h-8q-3 -42 -84 -444q-33 -163 -54 -267h-112z" />
<glyph unicode="Y" horiz-adv-x="540" d="M23 1540v10h112q122 -572 127 -641h8q5 67 138 641h108v-10l-186 -807v-733h-119v731z" />
<glyph unicode="Z" horiz-adv-x="563" d="M47 0v150l346 1277l-6 9h-332v114h469v-63l-366 -1362l4 -8h354v-117h-469z" />
<glyph unicode="[" d="M178 -487v2457h305v-92h-215v-2273h215v-92h-305z" />
<glyph unicode="\" d="M8 1737h88l459 -2050h-90z" />
<glyph unicode="]" d="M76 -395h215v2273h-215v92h305v-2457h-305v92z" />
<glyph unicode="^" d="M43 684v8l188 858h99l188 -858v-8h-90l-143 713h-9l-143 -713h-90z" />
<glyph unicode="_" d="M27 -131h508v-94h-508v94z" />
<glyph unicode="`" horiz-adv-x="393" d="M51 1556v11h105l155 -346v-9h-84z" />
<glyph unicode="a" horiz-adv-x="548" d="M37 0l147 1550h191l137 -1550h-115l-37 455h-172l-38 -455h-113zM195 563h159l-61 701q-12 141 -12 198h-9q0 -57 -12 -198z" />
<glyph unicode="b" horiz-adv-x="571" d="M66 0v1550h253q70 0 104.5 -20t57.5 -78q19 -49 27 -117t8 -202t-8 -194t-25 -91q-18 -30 -43 -41v-10q29 -12 47 -37q24 -31 32.5 -94.5t8.5 -247.5q0 -143 -7 -204t-29 -114q-24 -59 -58 -79.5t-100 -20.5h-268zM176 109h141q32 0 49 9.5t27 35.5q13 33 18 86t5 188 q0 155 -3.5 202.5t-17.5 78.5q-11 24 -29 32.5t-67 8.5h-123v-641zM176 844h117q48 0 65.5 8t26.5 31q14 28 17.5 72t3.5 188q0 126 -5 176t-18 80q-9 24 -25.5 33.5t-46.5 9.5h-135v-598z" />
<glyph unicode="c" horiz-adv-x="563" d="M51 788q0 243 6 385t13.5 187.5t21.5 91.5q22 69 64.5 97t124.5 28q78 0 123.5 -28.5t68.5 -112.5q31 -117 31 -316q0 -108 -2 -137h-107q2 29 2 135q0 167 -22 268q-10 45 -32.5 62.5t-61.5 17.5q-41 0 -61.5 -18t-31.5 -62q-16 -60 -21 -169t-5 -429q0 -316 5.5 -437 t20.5 -181q10 -44 32.5 -62t66.5 -18q36 0 55 16.5t29 57.5q28 106 28 299q0 86 -2 131h107q2 -47 2 -129q0 -246 -39 -371q-21 -67 -63.5 -94t-116.5 -27q-85 0 -128.5 28.5t-66.5 98.5q-23 72 -32 208.5t-9 479.5z" />
<glyph unicode="d" horiz-adv-x="583" d="M66 0v1550h237q80 0 122 -27t67 -96q25 -70 32.5 -187t7.5 -464q0 -354 -7.5 -469.5t-30.5 -187.5q-23 -68 -64.5 -93.5t-126.5 -25.5h-237zM176 115h125q42 0 63 15.5t31 57.5q15 60 20 166t5 422q0 329 -4 428.5t-21 153.5q-14 45 -34.5 62.5t-59.5 17.5h-125v-1323z " />
<glyph unicode="e" horiz-adv-x="495" d="M66 0v1550h376v-112h-266v-594h262v-109h-262v-618h264v-117h-374z" />
<glyph unicode="f" horiz-adv-x="468" d="M66 0v1550h372v-112h-262v-604h256v-109h-256v-725h-110z" />
<glyph unicode="g" horiz-adv-x="557" d="M51 788q0 337 8 461.5t29 188.5q26 81 67 110t126 29q83 0 125 -29t63 -96q35 -113 35 -295q0 -60 -2 -80h-107q2 14 2 80q0 127 -20 215q-11 52 -31 73t-65 21q-42 0 -63.5 -20.5t-33.5 -73.5q-13 -51 -18.5 -162.5t-5.5 -421.5q0 -321 6.5 -437t21.5 -181 q11 -46 31.5 -64t63.5 -18q44 0 63.5 18t30.5 64q15 61 22 146.5t7 269.5q0 104 -3 139h-159v109h262q4 -98 4 -228q0 -223 -10 -331t-31 -175q-23 -73 -63.5 -100t-124.5 -27q-82 0 -124 27.5t-65 99.5q-24 76 -32.5 205t-8.5 483z" />
<glyph unicode="h" horiz-adv-x="600" d="M63 0v1550h113v-706h248v706h113v-1550h-113v735h-248v-735h-113z" />
<glyph unicode="i" horiz-adv-x="249" d="M68 0v1550h114v-1550h-114z" />
<glyph unicode="j" horiz-adv-x="548" d="M37 455q0 93 6 139h102q-4 -31 -4 -139q0 -201 23 -277q15 -51 34.5 -69.5t57.5 -18.5q44 0 63.5 17.5t30.5 62.5q29 141 29 627v753h113v-751q0 -346 -8.5 -485t-32.5 -210q-24 -72 -65.5 -101.5t-127.5 -29.5q-80 0 -122.5 29t-65.5 100q-33 103 -33 353z" />
<glyph unicode="k" horiz-adv-x="593" d="M66 0v1550h112v-563q0 -86 -2 -119h8q10 42 256 682h115v-10l-270 -696l280 -836v-8h-119q-254 762 -262 805h-8q2 -33 2 -123v-682h-112z" />
<glyph unicode="l" horiz-adv-x="448" d="M66 0v1550h110v-1433h248v-117h-358z" />
<glyph unicode="m" horiz-adv-x="800" d="M63 0v1550h189q141 -1096 143 -1134h8q1 28 148 1134h186v-1550h-102v1174q0 129 2 182h-8q-6 -63 -199 -1356h-59q-33 220 -64.5 428t-50 327.5t-35.5 230t-25 164t-14.5 100.5t-8.5 67.5t-3 38.5h-8q2 -53 2 -182v-1174h-101z" />
<glyph unicode="n" horiz-adv-x="589" d="M63 0v1550h146q197 -939 209 -1022h8q-4 118 -4 275v747h104v-1550h-63q-63 274 -119.5 520.5t-82 355t-46.5 202t-29 130.5t-14 72h-8q4 -117 4 -371v-909h-105z" />
<glyph unicode="o" d="M51 776q0 350 8.5 474t32.5 200q22 70 64.5 98.5t124.5 28.5t124 -28.5t64 -98.5q24 -78 32.5 -203.5t8.5 -470.5t-8.5 -472.5t-32.5 -203.5q-22 -71 -63.5 -99t-124.5 -28q-82 0 -124 27.5t-65 99.5q-24 76 -32.5 203.5t-8.5 472.5zM162 778q0 -331 5 -439.5t21 -168.5 q10 -45 31 -62.5t62 -17.5t61.5 17t30.5 63q15 63 20.5 175.5t5.5 432.5q0 325 -5 433.5t-19 172.5q-9 44 -31 63t-63 19q-40 0 -62 -19t-31 -61q-15 -68 -20.5 -177.5t-5.5 -430.5z" />
<glyph unicode="p" horiz-adv-x="559" d="M66 0v1550h249q72 0 111 -30.5t57 -108.5q20 -88 25.5 -165t5.5 -204q0 -138 -5.5 -217t-25.5 -166q-17 -77 -56 -109t-114 -32h-137v-518h-110zM176 629h123q29 0 47 16t29 60q18 65 22 129t4 210q0 117 -5 182.5t-21 135.5q-10 43 -28.5 59.5t-47.5 16.5h-123v-809z " />
<glyph unicode="q" d="M51 795q0 343 8 464t33 195q22 67 64.5 95t124.5 28t124 -27.5t64 -95.5q24 -77 32.5 -199.5t8.5 -459.5q0 -345 -6.5 -463.5t-26.5 -181.5q-31 -94 -90 -121q46 -136 86 -205v-10h-113q-21 34 -73 198q-87 0 -131.5 27t-67.5 96q-23 71 -30 192.5t-7 467.5zM162 793 q0 -257 2.5 -382t6 -156.5t11.5 -59.5q12 -39 29 -57t45 -23l4 6q-8 17 -35 129h103l24 -105l6 -2q19 27 27 74q14 88 14 576q0 319 -5 425t-19 168q-9 43 -31 61.5t-63 18.5q-40 0 -62 -18t-31 -59q-15 -67 -20.5 -173.5t-5.5 -422.5z" />
<glyph unicode="r" horiz-adv-x="573" d="M66 0v1550h249q99 0 146 -71q28 -42 41.5 -113.5t13.5 -232.5q0 -145 -6.5 -207.5t-22.5 -112.5q-23 -67 -69 -80v-8q38 -18 53 -76q15 -57 21.5 -117t13.5 -219q9 -183 13 -229t13 -76v-8h-112q-19 70 -27 291q-6 179 -11 236t-17 96q-19 59 -84 59h-105v-682h-110z M176 784h100q39 0 60 8.5t37 34.5q19 31 24.5 88.5t5.5 217.5q0 146 -4.5 189.5t-21.5 74.5q-22 43 -70 43h-131v-656z" />
<glyph unicode="s" horiz-adv-x="526" d="M45 1229q0 147 23 223q20 67 63 96t123 29q79 0 120 -24t62 -76q31 -79 31 -226q0 -127 -10 -182h-99q9 65 9 158q0 89 -17 159q-10 44 -32 62t-64 18q-39 0 -59.5 -18.5t-30.5 -63.5q-14 -66 -14 -167q0 -149 2.5 -186.5t13.5 -63.5q11 -28 37 -54q18 -19 92 -72.5 t96 -74.5q44 -42 62 -86q8 -20 12 -38.5t7 -75.5t3 -160q0 -238 -45 -340q-24 -54 -63.5 -73.5t-114.5 -19.5q-74 0 -113 27t-63 90q-29 82 -29 254q0 96 8 174h99q-7 -61 -7 -156q0 -102 6.5 -149.5t22.5 -81.5q21 -45 76 -45q34 0 54.5 8.5t31.5 34.5q33 78 33 277 q0 182 -15 225q-7 21 -43 57q-23 23 -94.5 78t-87.5 72q-45 45 -63 92q-13 38 -18 96.5t-5 202.5z" />
<glyph unicode="t" horiz-adv-x="491" d="M23 1438v112h444v-112h-164v-1438h-113v1438h-167z" />
<glyph unicode="u" horiz-adv-x="573" d="M55 403v1147h115v-1147q0 -133 5 -181t20 -83q21 -49 94 -49q71 0 92 49q15 35 20 83t5 181v1147h110v-1147q0 -159 -6 -220t-29 -109q-24 -54 -71 -77.5t-123 -23.5q-77 0 -124 23t-71 78q-23 49 -30 110.5t-7 218.5z" />
<glyph unicode="v" d="M37 1550h119q120 -1365 120 -1450h9q0 73 121 1450h116l-155 -1550h-181z" />
<glyph unicode="w" horiz-adv-x="864" d="M41 1550h111q92 -1380 92 -1450h8q0 52 127 1450h108q129 -1395 129 -1450h9q0 100 90 1450h108l-116 -1550h-164q-105 1200 -105 1257h-8q0 -44 -104 -1257h-168z" />
<glyph unicode="x" horiz-adv-x="571" d="M33 0l172 815l-150 725v10h113q21 -107 52 -268q63 -330 65 -364h8q4 47 117 632h108v-10l-153 -719l172 -821h-117q-124 650 -129 711h-8q-3 -42 -84 -444q-33 -163 -54 -267h-112z" />
<glyph unicode="y" horiz-adv-x="540" d="M23 1540v10h112q122 -572 127 -641h8q5 67 138 641h108v-10l-186 -807v-733h-119v731z" />
<glyph unicode="z" horiz-adv-x="563" d="M47 0v150l346 1277l-6 9h-332v114h469v-63l-366 -1362l4 -8h354v-117h-469z" />
<glyph unicode="{" d="M123 696v90h57q53 0 73.5 29.5t20.5 97.5q0 125 -29.5 406t-29.5 438q0 105 41.5 159t132.5 54h109v-92h-99q-51 0 -72.5 -29.5t-21.5 -91.5q0 -143 31 -426t31 -418q0 -125 -76 -170v-8q76 -45 76 -166q0 -135 -31 -417.5t-31 -425.5q0 -62 21.5 -92.5t72.5 -30.5h99 v-90h-109q-91 0 -132.5 53.5t-41.5 159.5q0 157 29.5 437t29.5 406q0 67 -21 97t-73 30h-57z" />
<glyph unicode="|" d="M233 -487v2457h93v-2457h-93z" />
<glyph unicode="}" d="M61 -397h101q51 0 72.5 30.5t21.5 92.5q0 143 -30.5 425.5t-30.5 417.5q0 125 75 168v8q-75 43 -75 168q0 135 30.5 418t30.5 426q0 62 -21.5 91.5t-72.5 29.5h-101v92h109q92 0 134 -54t42 -159q0 -157 -30.5 -438t-30.5 -406q0 -67 21 -97t73 -30h57v-90h-57 q-51 0 -72.5 -30.5t-21.5 -96.5q0 -126 30.5 -406t30.5 -437q0 -106 -41.5 -159.5t-134.5 -53.5h-109v90z" />
<glyph unicode="~" d="M43 707v96q15 33 45.5 53.5t67.5 20.5q75 0 135 -48q36 -29 58.5 -39t49.5 -10q28 0 59.5 21t49.5 57h10v-94q-41 -74 -121 -74q-79 0 -143 55q-31 27 -48.5 34t-45.5 7q-29 0 -59 -21t-48 -58h-10z" />
<glyph unicode="&#xa1;" horiz-adv-x="264" d="M68 -467l22 1149h84l25 -1149h-131zM78 838v309h110v-309h-110z" />
<glyph unicode="&#xa2;" d="M66 797q0 265 8 367.5t30 160.5q18 46 52 67.5t92 26.5v221h84v-221q58 -5 90 -26t51 -68q35 -92 35 -276q0 -51 -2 -80h-109q2 23 2 65q0 160 -20 234q-9 30 -29.5 43.5t-60.5 13.5q-37 0 -57 -13t-29 -42q-13 -48 -19 -142t-6 -329q0 -246 5.5 -339t19.5 -138 q15 -56 86 -56q39 0 60 13t30 43q20 79 20 237q0 53 -2 80h109q2 -33 2 -96q0 -186 -35 -281q-18 -49 -50.5 -70t-90.5 -26v-254h-84v254q-59 3 -92 25t-52 71q-22 56 -30 160.5t-8 374.5z" />
<glyph unicode="&#xa3;" d="M45 600v84h94l4 6q-48 100 -69 183.5t-21 199.5q0 179 12 265t39 147q22 51 61 71.5t120 20.5q69 0 108.5 -21t67.5 -81q47 -100 47 -355q0 -120 -4 -155h-107q4 31 4 155q0 136 -8.5 196.5t-25.5 100.5q-11 26 -29.5 37.5t-52.5 11.5q-43 0 -64.5 -17.5t-34.5 -68.5 q-22 -90 -22 -301q0 -133 18 -196.5t86 -198.5h211v-84h-180l-4 -6q41 -115 41 -209q0 -121 -31 -229q10 -28 37.5 -45t71.5 -17q24 0 42.5 6.5t27 13.5t26.5 23h10v-123q-41 -41 -106 -41q-51 0 -87.5 27t-50.5 72h-8q-50 -99 -141 -99q-43 0 -66 29v109h11q17 -17 49 -17 q45 0 73.5 69.5t28.5 184.5q0 86 -9.5 138t-35.5 114h-133z" />
<glyph unicode="&#xa4;" horiz-adv-x="880" d="M66 461l129 129q-62 81 -62 186q0 103 62 187l-127 124l61 62l125 -127q78 65 188 65q103 0 187 -65l123 127l61 -62l-125 -124q64 -87 64 -187q0 -104 -64 -188l127 -127l-63 -62l-125 129q-80 -61 -185 -61q-111 0 -186 63l-127 -131zM225 776q0 -91 62.5 -154 t154.5 -63q90 0 153.5 63.5t63.5 153.5q0 89 -64 154t-153 65q-91 0 -154 -64.5t-63 -154.5z" />
<glyph unicode="&#xa5;" d="M33 1540v10h114l129 -616h9l131 616h110v-10l-188 -795v-94h162v-84h-162v-194h162v-84h-162v-289h-115v289h-168v84h168v194h-168v84h168v94z" />
<glyph unicode="&#xa6;" d="M233 -487v987h93v-987h-93zM233 1057v913h93v-913h-93z" />
<glyph unicode="&#xa7;" horiz-adv-x="606" d="M53 803q0 111 19 167.5t69 96.5q-10 54 -10 205q0 139 25 203q21 54 61 78t119 24t118 -19.5t62 -72.5q27 -63 27 -207q0 -78 -11 -135h-94q8 54 8 135q0 127 -18 162q-12 24 -30.5 32.5t-61.5 8.5q-42 0 -60 -11t-30 -45q-17 -44 -17 -153q0 -108 4 -146t15 -65 q14 -30 49.5 -57.5t89 -60t82.5 -56.5q39 -32 54.5 -59.5t21.5 -80.5t6 -169q0 -134 -17 -199t-65 -123q4 -37 4 -158q0 -168 -31 -256q-23 -61 -64 -85.5t-112 -24.5q-78 0 -118 22t-66 84q-27 68 -27 209q0 82 8 148h95q-6 -43 -6 -132q0 -142 26 -192q13 -24 31 -31.5 t55 -7.5q40 0 56.5 8t29.5 39q23 56 23 221q0 95 -6.5 134t-22.5 71q-16 30 -62 61t-99.5 66t-82.5 70q-27 33 -37 92.5t-10 208.5zM152 793q0 -159 12 -199q8 -25 27.5 -47t33 -32t50.5 -33t47 -29q25 -17 37.5 -26t30.5 -26t30 -34h8q23 40 23 213q0 93 -4.5 133.5 t-15.5 60.5t-40 45q-16 14 -94.5 67t-108.5 93h-8q-28 -35 -28 -186z" />
<glyph unicode="&#xa8;" horiz-adv-x="475" d="M66 1270v219h100v-219h-100zM309 1270v219h101v-219h-101z" />
<glyph unicode="&#xaa;" horiz-adv-x="354" d="M49 1004q0 127 24 170t93 43q31 0 47 -13v43q0 33 -0.5 52.5t-2 35.5t-4 24t-7 13.5t-10 6.5t-15.5 1q-24 0 -31.5 -20t-7.5 -84q0 -25 2 -41h-78q-2 18 -2 41q0 43 1.5 65.5t7.5 48t18 37t34.5 19.5t55.5 8q49 0 72.5 -14t35 -57.5t11.5 -133.5v-379q0 -18 12 -18 q9 0 14 8h9v-55q-17 -21 -47 -21q-26 0 -45 19q-22 -19 -76 -19q-46 0 -68 14.5t-32.5 61t-10.5 144.5zM127 1004q0 -97 6.5 -119.5t36.5 -22.5q32 0 43 19v241q-14 17 -45 17q-19 0 -25.5 -4.5t-11 -33.5t-4.5 -97z" />
<glyph unicode="&#xab;" horiz-adv-x="540" d="M47 741v72l225 289h9v-119l-160 -203v-8l160 -201v-118h-9zM256 741v72l225 289h8v-119l-159 -203v-8l159 -201v-118h-8z" />
<glyph unicode="&#xac;" d="M43 805v92h475v-897h-90v805h-385z" />
<glyph unicode="&#xad;" horiz-adv-x="462" d="M47 733v94h367v-94h-367z" />
<glyph unicode="&#xaf;" horiz-adv-x="583" d="M66 1350v84h450v-84h-450z" />
<glyph unicode="&#xb0;" horiz-adv-x="428" d="M53 1264q0 155 5.5 208.5t23.5 86.5q25 55 129 55q110 0 135 -55q16 -35 22.5 -90.5t6.5 -204.5q0 -151 -6.5 -207t-22.5 -90q-15 -32 -45 -44t-90 -12q-57 0 -85.5 12t-43.5 44q-16 36 -22.5 92.5t-6.5 204.5zM137 1264q0 -120 3.5 -163t13.5 -67q8 -22 57 -22 q53 0 61 22q11 23 15 65.5t4 164.5q0 121 -4 162.5t-15 64.5q-11 22 -61 22q-46 0 -57 -22q-11 -24 -14 -64t-3 -163z" />
<glyph unicode="&#xb1;" d="M43 76v90h475v-90h-475zM43 731v90h190v193h93v-193h192v-90h-192v-194h-93v194h-190z" />
<glyph unicode="&#xb2;" horiz-adv-x="370" d="M49 713v84l125 231q43 80 53.5 128.5t10.5 146.5q0 91 -7 135.5t-17 54.5t-30 10q-21 0 -29 -7t-14 -45t-6 -122q0 -61 2 -96h-82q-2 33 -2 96q0 152 27.5 205t103.5 53q33 0 52.5 -4.5t38 -20.5t27.5 -47t14.5 -82.5t5.5 -129.5q0 -123 -14 -177t-70 -155l-95 -174h174 v-84h-268z" />
<glyph unicode="&#xb3;" horiz-adv-x="370" d="M47 965q0 43 2 61h82q-2 -18 -2 -61q0 -120 8.5 -150.5t42.5 -30.5q24 0 35.5 11.5t17 48t5.5 112.5q0 49 -1.5 75t-3.5 45t-9.5 25.5t-15.5 8.5t-26 2h-69v84h69q25 0 34.5 9t13 35.5t3.5 96.5q0 41 -0.5 64.5t-2.5 44.5t-5 30.5t-9.5 16.5t-14.5 8.5t-21 1.5 q-23 0 -33 -11t-14 -44.5t-4 -110.5q0 -28 4 -57h-84v57q0 153 25.5 201.5t105.5 48.5q89 0 111 -43.5t22 -200.5q0 -67 -1 -91.5t-7.5 -52t-21.5 -44.5q23 -12 29.5 -50t6.5 -155q0 -150 -28.5 -201t-110.5 -51q-83 0 -108 60t-25 207z" />
<glyph unicode="&#xb4;" horiz-adv-x="393" d="M80 1212v9l156 346h104v-11l-176 -344h-84z" />
<glyph unicode="&#xb6;" horiz-adv-x="663" d="M41 1221q0 182 35.5 255.5t118.5 73.5h401v-1759h-94v1663h-142v-1663h-96v1092h-61q-95 0 -128.5 71t-33.5 267z" />
<glyph unicode="&#xb7;" horiz-adv-x="243" d="M66 600v231h110v-231h-110z" />
<glyph unicode="&#xb8;" horiz-adv-x="350" d="M66 -477l114 393h103v-8l-136 -395h-81v10z" />
<glyph unicode="&#xb9;" horiz-adv-x="370" d="M57 1360v78h60q24 0 31 23t8 110h73v-772h82v-86h-252v86h84v561h-86z" />
<glyph unicode="&#xba;" horiz-adv-x="352" d="M49 1122q0 147 3.5 197t15.5 78q25 57 104 57q47 0 72 -12.5t37 -44.5q11 -32 15.5 -83.5t4.5 -191.5q0 -143 -4.5 -195.5t-15.5 -80.5q-23 -62 -109 -62q-83 0 -104 62q-19 55 -19 276zM129 1122q0 -130 2 -171.5t10 -65.5q7 -23 31 -23q28 0 37 23q12 47 12 237 t-12 234q-5 22 -37 22q-26 0 -31 -22q-8 -22 -10 -64t-2 -170z" />
<glyph unicode="&#xbb;" horiz-adv-x="540" d="M47 453v118l160 203v8l-160 201v119h8l226 -289v-72l-226 -288h-8zM256 453v118l160 203v8l-160 201v119h8l225 -289v-72l-225 -288h-8z" />
<glyph unicode="&#xbc;" horiz-adv-x="761" d="M25 1360v78h59q24 0 31 23t8 110h74v-772h82v-86h-252v86h84v561h-86zM100 0v8l516 1542h80v-10l-518 -1540h-78zM442 162v76l156 600h92v-598h37v-78h-37v-182h-84v182h-164zM520 240h86v335h-8z" />
<glyph unicode="&#xbd;" horiz-adv-x="761" d="M27 1360v78h59q24 0 31 23t8 110h74v-772h82v-86h-252v86h84v561h-86zM88 0v8l516 1542h80v-10l-518 -1540h-78zM457 -20v83l125 232q43 80 53 127.5t10 146.5q0 91 -6.5 135.5t-16.5 55t-30 10.5q-21 0 -29 -7t-14 -45t-6 -122q0 -61 2 -96h-82q-2 33 -2 96 q0 152 27.5 205t103.5 53q55 0 81 -16.5t41 -78.5t15 -190q0 -123 -14 -176.5t-70 -154.5l-94 -175h174v-83h-268z" />
<glyph unicode="&#xbe;" horiz-adv-x="761" d="M35 965q0 43 2 61h82q-2 -18 -2 -61q0 -120 8.5 -150.5t42.5 -30.5q24 0 35 11.5t16.5 47.5t5.5 113q0 50 -1 75t-3 45t-10 25.5t-15.5 8t-25.5 2.5h-70v84h70q25 0 34.5 9t13 35.5t3.5 96.5q0 41 -0.5 64.5t-2.5 44.5t-5 30.5t-9.5 16.5t-14.5 8.5t-21 1.5 q-23 0 -33 -11t-14 -44.5t-4 -110.5q0 -28 4 -57h-84v57q0 153 25.5 201.5t105.5 48.5q89 0 111 -43.5t22 -200.5q0 -91 -5 -127.5t-26 -60.5q23 -12 30 -50.5t7 -154.5q0 -150 -28.5 -201t-110.5 -51q-83 0 -108 60t-25 207zM111 0v8l516 1542h80v-10l-519 -1540h-77z M434 162v76l156 600h92v-598h37v-78h-37v-182h-84v182h-164zM512 240h86v335h-8z" />
<glyph unicode="&#xbf;" horiz-adv-x="520" d="M49 -39q0 132 10 191t43 120q15 28 50 77.5t45 72.5q13 24 19 53t6.5 48.5t0.5 64.5q0 62 -4 94h98q7 -40 7 -94q0 -92 -7.5 -135t-27.5 -80q-14 -27 -58.5 -93.5t-56.5 -93.5q-14 -32 -17 -66.5t-3 -146.5q0 -231 39 -270q22 -22 65 -22q52 0 74 28q35 47 35 217 q0 111 -5 152h99q6 -53 6 -152q0 -225 -47 -291q-26 -36 -63.5 -50.5t-98.5 -14.5q-59 0 -95.5 14t-60.5 47q-53 72 -53 330zM215 838v309h111v-309h-111z" />
<glyph unicode="&#xc0;" horiz-adv-x="548" d="M37 0l147 1550h191l137 -1550h-115l-37 455h-172l-38 -455h-113zM70 1960v10h104l156 -346v-8h-84zM195 563h159l-61 701q-12 141 -12 198h-9q0 -57 -12 -198z" />
<glyph unicode="&#xc1;" horiz-adv-x="548" d="M37 0l147 1550h191l137 -1550h-115l-37 455h-172l-38 -455h-113zM195 563h159l-61 701q-12 141 -12 198h-9q0 -57 -12 -198zM225 1616v8l156 346h104v-10l-176 -344h-84z" />
<glyph unicode="&#xc2;" horiz-adv-x="548" d="M37 0l147 1550h191l137 -1550h-115l-37 455h-172l-38 -455h-113zM80 1616v8l156 346h83l156 -346v-8h-96l-96 237h-11l-96 -237h-96zM195 563h159l-61 701q-12 141 -12 198h-9q0 -57 -12 -198z" />
<glyph unicode="&#xc3;" horiz-adv-x="548" d="M37 0l147 1550h191l137 -1550h-115l-37 455h-172l-38 -455h-113zM53 1718v94q15 31 46 50.5t67 19.5q60 0 121 -49q36 -29 56 -38t48 -9t57.5 21t47.5 57h8v-95q-40 -69 -117 -69q-66 0 -137 61q-36 33 -86 33q-61 0 -103 -76h-8zM195 563h159l-61 701q-12 141 -12 198 h-9q0 -57 -12 -198z" />
<glyph unicode="&#xc4;" horiz-adv-x="548" d="M37 0l147 1550h191l137 -1550h-115l-37 455h-172l-38 -455h-113zM106 1673v219h101v-219h-101zM195 563h159l-61 701q-12 141 -12 198h-9q0 -57 -12 -198zM350 1673v219h101v-219h-101z" />
<glyph unicode="&#xc5;" horiz-adv-x="548" d="M37 0l147 1550h191l137 -1550h-115l-37 455h-172l-38 -455h-113zM158 1778q0 85 4.5 113.5t17.5 47.5q19 31 96 31q43 0 64 -7t33 -24q13 -19 17.5 -47.5t4.5 -113.5q0 -82 -5 -111t-17 -49q-12 -18 -32.5 -24.5t-64.5 -6.5t-64 6.5t-32 24.5q-13 19 -17.5 47.5 t-4.5 112.5zM195 563h159l-61 701q-12 141 -12 198h-9q0 -57 -12 -198zM223 1780q0 -108 8 -121q7 -10 45 -10q36 0 43 10q11 18 11 121q0 100 -11 118q-10 13 -43 13q-35 0 -45 -13q-8 -13 -8 -118z" />
<glyph unicode="&#xc6;" horiz-adv-x="794" d="M37 0l147 1550h549v-112h-266v-594h262v-109h-262v-618h264v-117h-375v455h-168l-38 -455h-113zM197 563h159v875h-80z" />
<glyph unicode="&#xc7;" horiz-adv-x="563" d="M51 788q0 243 6 385t13.5 187.5t21.5 91.5q22 69 64.5 97t124.5 28q78 0 123.5 -28.5t68.5 -112.5q31 -117 31 -316q0 -108 -2 -137h-107q2 29 2 135q0 167 -22 268q-10 45 -32.5 62.5t-61.5 17.5q-41 0 -61.5 -18t-31.5 -62q-16 -60 -21 -169t-5 -429q0 -316 5.5 -437 t20.5 -181q10 -44 32.5 -62t66.5 -18q36 0 55 16.5t29 57.5q28 106 28 299q0 86 -2 131h107q2 -47 2 -129q0 -246 -39 -371q-21 -67 -63.5 -94t-116.5 -27q-85 0 -128.5 28.5t-66.5 98.5q-23 72 -32 208.5t-9 479.5zM115 -477l114 393h103v-8l-135 -395h-82v10z" />
<glyph unicode="&#xc8;" horiz-adv-x="495" d="M49 1960v10h105l155 -346v-8h-84zM66 0v1550h376v-112h-266v-594h262v-109h-262v-618h264v-117h-374z" />
<glyph unicode="&#xc9;" horiz-adv-x="495" d="M66 0v1550h376v-112h-266v-594h262v-109h-262v-618h264v-117h-374zM203 1616v8l155 346h105v-10l-176 -344h-84z" />
<glyph unicode="&#xca;" horiz-adv-x="495" d="M59 1616v8l156 346h84l156 -346v-8h-97l-96 237h-10l-96 -237h-97zM66 0v1550h376v-112h-266v-594h262v-109h-262v-618h264v-117h-374z" />
<glyph unicode="&#xcb;" horiz-adv-x="495" d="M66 0v1550h376v-112h-266v-594h262v-109h-262v-618h264v-117h-374zM84 1673v219h100v-219h-100zM328 1673v219h100v-219h-100z" />
<glyph unicode="&#xcc;" horiz-adv-x="280" d="M-51 1960v10h104l156 -346v-8h-84zM98 0v1550h115v-1550h-115z" />
<glyph unicode="&#xcd;" horiz-adv-x="278" d="M68 0v1550h114v-1550h-114zM74 1616v8l155 346h105v-10l-176 -344h-84z" />
<glyph unicode="&#xce;" horiz-adv-x="319" d="M-37 1616v8l156 346h84l155 -346v-8h-96l-96 237h-10l-97 -237h-96zM102 0v1550h115v-1550h-115z" />
<glyph unicode="&#xcf;" horiz-adv-x="305" d="M-18 1673v219h100v-219h-100zM96 0v1550h115v-1550h-115zM225 1673v219h101v-219h-101z" />
<glyph unicode="&#xd0;" horiz-adv-x="579" d="M23 735v109h40v706h236q81 0 122.5 -27t67.5 -96q25 -71 33 -189t8 -462q0 -347 -8.5 -465t-32.5 -192q-22 -69 -62.5 -94t-127.5 -25h-236v735h-40zM174 115h123q44 0 64 15t30 58q16 61 21.5 166t5.5 422q0 320 -5 423t-22 159q-14 45 -34.5 62.5t-59.5 17.5h-123v-594 h158v-109h-158v-620z" />
<glyph unicode="&#xd1;" horiz-adv-x="589" d="M63 0v1550h146q197 -939 209 -1022h8q-4 118 -4 275v747h104v-1550h-63q-63 274 -119.5 520.5t-82 355t-46.5 202t-29 130.5t-14 72h-8q4 -117 4 -371v-909h-105zM70 1718v94q15 31 45.5 50.5t66.5 19.5q60 0 121 -49q36 -29 56 -38t49 -9q28 0 57 21t47 57h8v-95 q-40 -69 -117 -69q-66 0 -137 61q-36 33 -86 33q-60 0 -102 -76h-8z" />
<glyph unicode="&#xd2;" d="M51 776q0 350 8.5 474t32.5 200q22 70 64.5 98.5t124.5 28.5t124 -28.5t64 -98.5q24 -78 32.5 -203.5t8.5 -470.5t-8.5 -472.5t-32.5 -203.5q-22 -71 -63.5 -99t-124.5 -28q-82 0 -124 27.5t-65 99.5q-24 76 -32.5 203.5t-8.5 472.5zM72 1960v10h104l156 -346v-8h-84z M162 778q0 -331 5 -439.5t21 -168.5q10 -45 31 -62.5t62 -17.5t61.5 17t30.5 63q15 63 20.5 175.5t5.5 432.5q0 325 -5 433.5t-19 172.5q-9 44 -31 63t-63 19q-40 0 -62 -19t-31 -61q-15 -68 -20.5 -177.5t-5.5 -430.5z" />
<glyph unicode="&#xd3;" d="M51 776q0 350 8.5 474t32.5 200q22 70 64.5 98.5t124.5 28.5t124 -28.5t64 -98.5q24 -78 32.5 -203.5t8.5 -470.5t-8.5 -472.5t-32.5 -203.5q-22 -71 -63.5 -99t-124.5 -28q-82 0 -124 27.5t-65 99.5q-24 76 -32.5 203.5t-8.5 472.5zM162 778q0 -331 5 -439.5t21 -168.5 q10 -45 31 -62.5t62 -17.5t61.5 17t30.5 63q15 63 20.5 175.5t5.5 432.5q0 325 -5 433.5t-19 172.5q-9 44 -31 63t-63 19q-40 0 -62 -19t-31 -61q-15 -68 -20.5 -177.5t-5.5 -430.5zM227 1616v8l156 346h104v-10l-176 -344h-84z" />
<glyph unicode="&#xd4;" d="M51 776q0 350 8.5 474t32.5 200q22 70 64.5 98.5t124.5 28.5t124 -28.5t64 -98.5q24 -78 32.5 -203.5t8.5 -470.5t-8.5 -472.5t-32.5 -203.5q-22 -71 -63.5 -99t-124.5 -28q-82 0 -124 27.5t-65 99.5q-24 76 -32.5 203.5t-8.5 472.5zM82 1616v8l156 346h84l155 -346v-8 h-96l-96 237h-11l-96 -237h-96zM162 778q0 -331 5 -439.5t21 -168.5q10 -45 31 -62.5t62 -17.5t61.5 17t30.5 63q15 63 20.5 175.5t5.5 432.5q0 325 -5 433.5t-19 172.5q-9 44 -31 63t-63 19q-40 0 -62 -19t-31 -61q-15 -68 -20.5 -177.5t-5.5 -430.5z" />
<glyph unicode="&#xd5;" d="M51 776q0 350 8.5 474t32.5 200q22 70 64.5 98.5t124.5 28.5t124 -28.5t64 -98.5q24 -78 32.5 -203.5t8.5 -470.5t-8.5 -472.5t-32.5 -203.5q-22 -71 -63.5 -99t-124.5 -28q-82 0 -124 27.5t-65 99.5q-24 76 -32.5 203.5t-8.5 472.5zM55 1718v94q15 31 46 50.5t67 19.5 q60 0 121 -49q36 -29 56 -38t48 -9t57.5 21t47.5 57h8v-95q-40 -69 -117 -69q-66 0 -137 61q-36 33 -86 33q-61 0 -103 -76h-8zM162 778q0 -331 5 -439.5t21 -168.5q10 -45 31 -62.5t62 -17.5t61.5 17t30.5 63q15 63 20.5 175.5t5.5 432.5q0 325 -5 433.5t-19 172.5 q-9 44 -31 63t-63 19q-40 0 -62 -19t-31 -61q-15 -68 -20.5 -177.5t-5.5 -430.5z" />
<glyph unicode="&#xd6;" d="M51 776q0 350 8.5 474t32.5 200q22 70 64.5 98.5t124.5 28.5t124 -28.5t64 -98.5q24 -78 32.5 -203.5t8.5 -470.5t-8.5 -472.5t-32.5 -203.5q-22 -71 -63.5 -99t-124.5 -28q-82 0 -124 27.5t-65 99.5q-24 76 -32.5 203.5t-8.5 472.5zM109 1673v219h100v-219h-100z M162 778q0 -331 5 -439.5t21 -168.5q10 -45 31 -62.5t62 -17.5t61.5 17t30.5 63q15 63 20.5 175.5t5.5 432.5q0 325 -5 433.5t-19 172.5q-9 44 -31 63t-63 19q-40 0 -62 -19t-31 -61q-15 -68 -20.5 -177.5t-5.5 -430.5zM352 1673v219h101v-219h-101z" />
<glyph unicode="&#xd7;" d="M63 625l154 151l-151 150l63 63l152 -149l149 149l64 -63l-150 -150l154 -151l-66 -66l-151 152l-152 -152z" />
<glyph unicode="&#xd8;" d="M51 776q0 350 8.5 474t32.5 200q22 70 64.5 98.5t124.5 28.5q59 0 102 -16l33 186h67l-43 -238q18 -24 29 -59q24 -78 32.5 -203.5t8.5 -470.5t-8.5 -472.5t-32.5 -203.5q-22 -71 -63.5 -99t-124.5 -28q-63 0 -109 19l-45 -258h-68l56 313q-12 17 -23 53 q-24 76 -32.5 203.5t-8.5 472.5zM160 324h8q3 44 33 218t157 885q-20 39 -77 39q-40 0 -62 -19t-31 -61q-15 -68 -20.5 -177.5t-5.5 -430.5q0 -290 -2 -454zM199 137q19 -47 82 -47q41 0 61.5 17t30.5 63q15 63 20.5 175.5t5.5 432.5q0 307 2 479h-8q-8 -70 -194 -1120z" />
<glyph unicode="&#xd9;" horiz-adv-x="573" d="M55 403v1147h115v-1147q0 -133 5 -181t20 -83q21 -49 94 -49q71 0 92 49q15 35 20 83t5 181v1147h110v-1147q0 -159 -6 -220t-29 -109q-24 -54 -71 -77.5t-123 -23.5q-77 0 -124 23t-71 78q-23 49 -30 110.5t-7 218.5zM78 1960v10h104l156 -346v-8h-84z" />
<glyph unicode="&#xda;" horiz-adv-x="573" d="M55 403v1147h115v-1147q0 -133 5 -181t20 -83q21 -49 94 -49q71 0 92 49q15 35 20 83t5 181v1147h110v-1147q0 -159 -6 -220t-29 -109q-24 -54 -71 -77.5t-123 -23.5q-77 0 -124 23t-71 78q-23 49 -30 110.5t-7 218.5zM233 1616v8l156 346h105v-10l-177 -344h-84z" />
<glyph unicode="&#xdb;" horiz-adv-x="573" d="M55 403v1147h115v-1147q0 -133 5 -181t20 -83q21 -49 94 -49q71 0 92 49q15 35 20 83t5 181v1147h110v-1147q0 -159 -6 -220t-29 -109q-24 -54 -71 -77.5t-123 -23.5q-77 0 -124 23t-71 78q-23 49 -30 110.5t-7 218.5zM88 1616v8l156 346h84l155 -346v-8h-96l-96 237h-10 l-97 -237h-96z" />
<glyph unicode="&#xdc;" horiz-adv-x="573" d="M55 403v1147h115v-1147q0 -133 5 -181t20 -83q21 -49 94 -49q71 0 92 49q15 35 20 83t5 181v1147h110v-1147q0 -159 -6 -220t-29 -109q-24 -54 -71 -77.5t-123 -23.5q-77 0 -124 23t-71 78q-23 49 -30 110.5t-7 218.5zM115 1673v219h100v-219h-100zM358 1673v219h101 v-219h-101z" />
<glyph unicode="&#xdd;" horiz-adv-x="540" d="M23 1540v10h112q122 -572 127 -641h8q5 67 138 641h108v-10l-186 -807v-733h-119v731zM215 1616v8l156 346h104v-10l-176 -344h-84z" />
<glyph unicode="&#xde;" d="M66 0v1550h110v-237h143q78 0 119 -48.5t58.5 -161.5t17.5 -325q0 -306 -42.5 -428.5t-152.5 -122.5h-143v-227h-110zM176 338h129q38 0 58 36.5t29 130t9 275.5q0 173 -9 261.5t-29.5 123.5t-59.5 35h-127v-862z" />
<glyph unicode="&#xdf;" horiz-adv-x="786" d="M98 0v1280q0 162 46 222.5t180 60.5q68 0 109 -14t64 -50.5t30.5 -86t7.5 -132.5v-193q0 -37 4 -53.5t16 -34.5q19 -27 67 -73.5t64 -65.5q23 -29 31.5 -51.5t13 -79t4.5 -180.5q0 -244 -9.5 -336.5t-29.5 -142.5q-23 -55 -61.5 -76t-114.5 -21q-131 0 -168 101 q-17 50 -22.5 100t-5.5 170q0 28 4 94h96q-2 -27 -2 -78q0 -120 2.5 -156t13.5 -69q11 -32 28 -45.5t54 -13.5q40 0 57.5 11t28.5 42q15 45 19 111t4 307q0 133 -4.5 171t-20.5 66q-15 25 -70 78.5t-67 67.5q-26 30 -31.5 59t-5.5 107v174q0 122 -20.5 158t-85.5 36 q-48 0 -70.5 -13t-33.5 -53.5t-11 -127.5v-1270h-111z" />
<glyph unicode="&#xe0;" horiz-adv-x="548" d="M37 0l147 1550h191l137 -1550h-115l-37 455h-172l-38 -455h-113zM70 1960v10h104l156 -346v-8h-84zM195 563h159l-61 701q-12 141 -12 198h-9q0 -57 -12 -198z" />
<glyph unicode="&#xe1;" horiz-adv-x="548" d="M37 0l147 1550h191l137 -1550h-115l-37 455h-172l-38 -455h-113zM195 563h159l-61 701q-12 141 -12 198h-9q0 -57 -12 -198zM225 1616v8l156 346h104v-10l-176 -344h-84z" />
<glyph unicode="&#xe2;" horiz-adv-x="548" d="M37 0l147 1550h191l137 -1550h-115l-37 455h-172l-38 -455h-113zM80 1616v8l156 346h83l156 -346v-8h-96l-96 237h-11l-96 -237h-96zM195 563h159l-61 701q-12 141 -12 198h-9q0 -57 -12 -198z" />
<glyph unicode="&#xe3;" horiz-adv-x="548" d="M37 0l147 1550h191l137 -1550h-115l-37 455h-172l-38 -455h-113zM53 1718v94q15 31 46 50.5t67 19.5q60 0 121 -49q36 -29 56 -38t48 -9t57.5 21t47.5 57h8v-95q-40 -69 -117 -69q-66 0 -137 61q-36 33 -86 33q-61 0 -103 -76h-8zM195 563h159l-61 701q-12 141 -12 198 h-9q0 -57 -12 -198z" />
<glyph unicode="&#xe4;" horiz-adv-x="548" d="M37 0l147 1550h191l137 -1550h-115l-37 455h-172l-38 -455h-113zM106 1673v219h101v-219h-101zM195 563h159l-61 701q-12 141 -12 198h-9q0 -57 -12 -198zM350 1673v219h101v-219h-101z" />
<glyph unicode="&#xe5;" horiz-adv-x="548" d="M37 0l147 1550h191l137 -1550h-115l-37 455h-172l-38 -455h-113zM158 1778q0 85 4.5 113.5t17.5 47.5q19 31 96 31q43 0 64 -7t33 -24q13 -19 17.5 -47.5t4.5 -113.5q0 -82 -5 -111t-17 -49q-12 -18 -32.5 -24.5t-64.5 -6.5t-64 6.5t-32 24.5q-13 19 -17.5 47.5 t-4.5 112.5zM195 563h159l-61 701q-12 141 -12 198h-9q0 -57 -12 -198zM223 1780q0 -108 8 -121q7 -10 45 -10q36 0 43 10q11 18 11 121q0 100 -11 118q-10 13 -43 13q-35 0 -45 -13q-8 -13 -8 -118z" />
<glyph unicode="&#xe6;" horiz-adv-x="794" d="M37 0l147 1550h549v-112h-266v-594h262v-109h-262v-618h264v-117h-375v455h-168l-38 -455h-113zM197 563h159v875h-80z" />
<glyph unicode="&#xe7;" horiz-adv-x="563" d="M51 788q0 243 6 385t13.5 187.5t21.5 91.5q22 69 64.5 97t124.5 28q78 0 123.5 -28.5t68.5 -112.5q31 -117 31 -316q0 -108 -2 -137h-107q2 29 2 135q0 167 -22 268q-10 45 -32.5 62.5t-61.5 17.5q-41 0 -61.5 -18t-31.5 -62q-16 -60 -21 -169t-5 -429q0 -316 5.5 -437 t20.5 -181q10 -44 32.5 -62t66.5 -18q36 0 55 16.5t29 57.5q28 106 28 299q0 86 -2 131h107q2 -47 2 -129q0 -246 -39 -371q-21 -67 -63.5 -94t-116.5 -27q-85 0 -128.5 28.5t-66.5 98.5q-23 72 -32 208.5t-9 479.5zM115 -477l114 393h103v-8l-135 -395h-82v10z" />
<glyph unicode="&#xe8;" horiz-adv-x="495" d="M49 1960v10h105l155 -346v-8h-84zM66 0v1550h376v-112h-266v-594h262v-109h-262v-618h264v-117h-374z" />
<glyph unicode="&#xe9;" horiz-adv-x="495" d="M66 0v1550h376v-112h-266v-594h262v-109h-262v-618h264v-117h-374zM203 1616v8l155 346h105v-10l-176 -344h-84z" />
<glyph unicode="&#xea;" horiz-adv-x="495" d="M59 1616v8l156 346h84l156 -346v-8h-97l-96 237h-10l-96 -237h-97zM66 0v1550h376v-112h-266v-594h262v-109h-262v-618h264v-117h-374z" />
<glyph unicode="&#xeb;" horiz-adv-x="495" d="M66 0v1550h376v-112h-266v-594h262v-109h-262v-618h264v-117h-374zM84 1673v219h100v-219h-100zM328 1673v219h100v-219h-100z" />
<glyph unicode="&#xec;" horiz-adv-x="280" d="M-51 1960v10h104l156 -346v-8h-84zM98 0v1550h115v-1550h-115z" />
<glyph unicode="&#xed;" horiz-adv-x="278" d="M68 0v1550h114v-1550h-114zM74 1616v8l155 346h105v-10l-176 -344h-84z" />
<glyph unicode="&#xee;" horiz-adv-x="319" d="M-37 1616v8l156 346h84l155 -346v-8h-96l-96 237h-10l-97 -237h-96zM102 0v1550h115v-1550h-115z" />
<glyph unicode="&#xef;" horiz-adv-x="305" d="M-18 1673v219h100v-219h-100zM96 0v1550h115v-1550h-115zM225 1673v219h101v-219h-101z" />
<glyph unicode="&#xf0;" horiz-adv-x="579" d="M23 735v109h40v706h236q81 0 122.5 -27t67.5 -96q25 -71 33 -189t8 -462q0 -347 -8.5 -465t-32.5 -192q-22 -69 -62.5 -94t-127.5 -25h-236v735h-40zM174 115h123q44 0 64 15t30 58q16 61 21.5 166t5.5 422q0 320 -5 423t-22 159q-14 45 -34.5 62.5t-59.5 17.5h-123v-594 h158v-109h-158v-620z" />
<glyph unicode="&#xf1;" horiz-adv-x="589" d="M63 0v1550h146q197 -939 209 -1022h8q-4 118 -4 275v747h104v-1550h-63q-63 274 -119.5 520.5t-82 355t-46.5 202t-29 130.5t-14 72h-8q4 -117 4 -371v-909h-105zM70 1718v94q15 31 45.5 50.5t66.5 19.5q60 0 121 -49q36 -29 56 -38t49 -9q28 0 57 21t47 57h8v-95 q-40 -69 -117 -69q-66 0 -137 61q-36 33 -86 33q-60 0 -102 -76h-8z" />
<glyph unicode="&#xf2;" d="M51 776q0 350 8.5 474t32.5 200q22 70 64.5 98.5t124.5 28.5t124 -28.5t64 -98.5q24 -78 32.5 -203.5t8.5 -470.5t-8.5 -472.5t-32.5 -203.5q-22 -71 -63.5 -99t-124.5 -28q-82 0 -124 27.5t-65 99.5q-24 76 -32.5 203.5t-8.5 472.5zM72 1960v10h104l156 -346v-8h-84z M162 778q0 -331 5 -439.5t21 -168.5q10 -45 31 -62.5t62 -17.5t61.5 17t30.5 63q15 63 20.5 175.5t5.5 432.5q0 325 -5 433.5t-19 172.5q-9 44 -31 63t-63 19q-40 0 -62 -19t-31 -61q-15 -68 -20.5 -177.5t-5.5 -430.5z" />
<glyph unicode="&#xf3;" d="M51 776q0 350 8.5 474t32.5 200q22 70 64.5 98.5t124.5 28.5t124 -28.5t64 -98.5q24 -78 32.5 -203.5t8.5 -470.5t-8.5 -472.5t-32.5 -203.5q-22 -71 -63.5 -99t-124.5 -28q-82 0 -124 27.5t-65 99.5q-24 76 -32.5 203.5t-8.5 472.5zM162 778q0 -331 5 -439.5t21 -168.5 q10 -45 31 -62.5t62 -17.5t61.5 17t30.5 63q15 63 20.5 175.5t5.5 432.5q0 325 -5 433.5t-19 172.5q-9 44 -31 63t-63 19q-40 0 -62 -19t-31 -61q-15 -68 -20.5 -177.5t-5.5 -430.5zM227 1616v8l156 346h104v-10l-176 -344h-84z" />
<glyph unicode="&#xf4;" d="M51 776q0 350 8.5 474t32.5 200q22 70 64.5 98.5t124.5 28.5t124 -28.5t64 -98.5q24 -78 32.5 -203.5t8.5 -470.5t-8.5 -472.5t-32.5 -203.5q-22 -71 -63.5 -99t-124.5 -28q-82 0 -124 27.5t-65 99.5q-24 76 -32.5 203.5t-8.5 472.5zM82 1616v8l156 346h84l155 -346v-8 h-96l-96 237h-11l-96 -237h-96zM162 778q0 -331 5 -439.5t21 -168.5q10 -45 31 -62.5t62 -17.5t61.5 17t30.5 63q15 63 20.5 175.5t5.5 432.5q0 325 -5 433.5t-19 172.5q-9 44 -31 63t-63 19q-40 0 -62 -19t-31 -61q-15 -68 -20.5 -177.5t-5.5 -430.5z" />
<glyph unicode="&#xf5;" d="M51 776q0 350 8.5 474t32.5 200q22 70 64.5 98.5t124.5 28.5t124 -28.5t64 -98.5q24 -78 32.5 -203.5t8.5 -470.5t-8.5 -472.5t-32.5 -203.5q-22 -71 -63.5 -99t-124.5 -28q-82 0 -124 27.5t-65 99.5q-24 76 -32.5 203.5t-8.5 472.5zM55 1718v94q15 31 46 50.5t67 19.5 q60 0 121 -49q36 -29 56 -38t48 -9t57.5 21t47.5 57h8v-95q-40 -69 -117 -69q-66 0 -137 61q-36 33 -86 33q-61 0 -103 -76h-8zM162 778q0 -331 5 -439.5t21 -168.5q10 -45 31 -62.5t62 -17.5t61.5 17t30.5 63q15 63 20.5 175.5t5.5 432.5q0 325 -5 433.5t-19 172.5 q-9 44 -31 63t-63 19q-40 0 -62 -19t-31 -61q-15 -68 -20.5 -177.5t-5.5 -430.5z" />
<glyph unicode="&#xf6;" d="M51 776q0 350 8.5 474t32.5 200q22 70 64.5 98.5t124.5 28.5t124 -28.5t64 -98.5q24 -78 32.5 -203.5t8.5 -470.5t-8.5 -472.5t-32.5 -203.5q-22 -71 -63.5 -99t-124.5 -28q-82 0 -124 27.5t-65 99.5q-24 76 -32.5 203.5t-8.5 472.5zM109 1673v219h100v-219h-100z M162 778q0 -331 5 -439.5t21 -168.5q10 -45 31 -62.5t62 -17.5t61.5 17t30.5 63q15 63 20.5 175.5t5.5 432.5q0 325 -5 433.5t-19 172.5q-9 44 -31 63t-63 19q-40 0 -62 -19t-31 -61q-15 -68 -20.5 -177.5t-5.5 -430.5zM352 1673v219h101v-219h-101z" />
<glyph unicode="&#xf7;" d="M43 731v90h475v-90h-475zM225 295v231h111v-231h-111zM225 1026v231h111v-231h-111z" />
<glyph unicode="&#xf8;" d="M51 776q0 350 8.5 474t32.5 200q22 70 64.5 98.5t124.5 28.5q59 0 102 -16l33 186h67l-43 -238q18 -24 29 -59q24 -78 32.5 -203.5t8.5 -470.5t-8.5 -472.5t-32.5 -203.5q-22 -71 -63.5 -99t-124.5 -28q-63 0 -109 19l-45 -258h-68l56 313q-12 17 -23 53 q-24 76 -32.5 203.5t-8.5 472.5zM160 324h8q3 44 33 218t157 885q-20 39 -77 39q-40 0 -62 -19t-31 -61q-15 -68 -20.5 -177.5t-5.5 -430.5q0 -290 -2 -454zM199 137q19 -47 82 -47q41 0 61.5 17t30.5 63q15 63 20.5 175.5t5.5 432.5q0 307 2 479h-8q-8 -70 -194 -1120z" />
<glyph unicode="&#xf9;" horiz-adv-x="573" d="M55 403v1147h115v-1147q0 -133 5 -181t20 -83q21 -49 94 -49q71 0 92 49q15 35 20 83t5 181v1147h110v-1147q0 -159 -6 -220t-29 -109q-24 -54 -71 -77.5t-123 -23.5q-77 0 -124 23t-71 78q-23 49 -30 110.5t-7 218.5zM78 1960v10h104l156 -346v-8h-84z" />
<glyph unicode="&#xfa;" horiz-adv-x="573" d="M55 403v1147h115v-1147q0 -133 5 -181t20 -83q21 -49 94 -49q71 0 92 49q15 35 20 83t5 181v1147h110v-1147q0 -159 -6 -220t-29 -109q-24 -54 -71 -77.5t-123 -23.5q-77 0 -124 23t-71 78q-23 49 -30 110.5t-7 218.5zM233 1616v8l156 346h105v-10l-177 -344h-84z" />
<glyph unicode="&#xfb;" horiz-adv-x="573" d="M55 403v1147h115v-1147q0 -133 5 -181t20 -83q21 -49 94 -49q71 0 92 49q15 35 20 83t5 181v1147h110v-1147q0 -159 -6 -220t-29 -109q-24 -54 -71 -77.5t-123 -23.5q-77 0 -124 23t-71 78q-23 49 -30 110.5t-7 218.5zM88 1616v8l156 346h84l155 -346v-8h-96l-96 237h-10 l-97 -237h-96z" />
<glyph unicode="&#xfc;" horiz-adv-x="573" d="M55 403v1147h115v-1147q0 -133 5 -181t20 -83q21 -49 94 -49q71 0 92 49q15 35 20 83t5 181v1147h110v-1147q0 -159 -6 -220t-29 -109q-24 -54 -71 -77.5t-123 -23.5q-77 0 -124 23t-71 78q-23 49 -30 110.5t-7 218.5zM115 1673v219h100v-219h-100zM358 1673v219h101 v-219h-101z" />
<glyph unicode="&#xfd;" horiz-adv-x="540" d="M23 1540v10h112q122 -572 127 -641h8q5 67 138 641h108v-10l-186 -807v-733h-119v731zM215 1616v8l156 346h104v-10l-176 -344h-84z" />
<glyph unicode="&#xfe;" d="M66 0v1550h110v-237h143q78 0 119 -48.5t58.5 -161.5t17.5 -325q0 -306 -42.5 -428.5t-152.5 -122.5h-143v-227h-110zM176 338h129q38 0 58 36.5t29 130t9 275.5q0 173 -9 261.5t-29.5 123.5t-59.5 35h-127v-862z" />
<glyph unicode="&#xff;" horiz-adv-x="540" d="M23 1540v10h112q122 -572 127 -641h8q5 67 138 641h108v-10l-186 -807v-733h-119v731zM98 1673v219h101v-219h-101zM342 1673v219h100v-219h-100z" />
<glyph unicode="&#x152;" horiz-adv-x="843" d="M51 776q0 344 8 461.5t33 189.5q25 69 67 96t122 27h503v-112h-266v-594h262v-109h-262v-618h264v-117h-501q-88 0 -129 25t-62 94q-23 72 -31 188.5t-8 468.5zM164 776q0 -320 5 -423t21 -165q10 -42 30 -57.5t63 -15.5h125v1323h-125q-78 0 -97 -97q-22 -105 -22 -565z " />
<glyph unicode="&#x153;" horiz-adv-x="843" d="M51 776q0 344 8 461.5t33 189.5q25 69 67 96t122 27h503v-112h-266v-594h262v-109h-262v-618h264v-117h-501q-88 0 -129 25t-62 94q-23 72 -31 188.5t-8 468.5zM164 776q0 -320 5 -423t21 -165q10 -42 30 -57.5t63 -15.5h125v1323h-125q-78 0 -97 -97q-22 -105 -22 -565z " />
<glyph unicode="&#x178;" horiz-adv-x="540" d="M23 1540v10h112q122 -572 127 -641h8q5 67 138 641h108v-10l-186 -807v-733h-119v731zM98 1673v219h101v-219h-101zM342 1673v219h100v-219h-100z" />
<glyph unicode="&#x2c6;" horiz-adv-x="528" d="M66 1212v9l155 346h84l156 -346v-9h-96l-97 238h-10l-96 -238h-96z" />
<glyph unicode="&#x2dc;" horiz-adv-x="583" d="M66 1315v94q15 31 45.5 50.5t66.5 19.5q60 0 121 -49q37 -29 56.5 -38.5t47.5 -9.5t57.5 21t47.5 57h8v-94q-40 -70 -117 -70q-65 0 -137 62q-36 33 -86 33q-60 0 -102 -76h-8z" />
<glyph unicode="&#x2000;" horiz-adv-x="985" />
<glyph unicode="&#x2001;" horiz-adv-x="1970" />
<glyph unicode="&#x2002;" horiz-adv-x="985" />
<glyph unicode="&#x2003;" horiz-adv-x="1970" />
<glyph unicode="&#x2004;" horiz-adv-x="656" />
<glyph unicode="&#x2005;" horiz-adv-x="492" />
<glyph unicode="&#x2006;" horiz-adv-x="328" />
<glyph unicode="&#x2007;" horiz-adv-x="328" />
<glyph unicode="&#x2008;" horiz-adv-x="246" />
<glyph unicode="&#x2009;" horiz-adv-x="394" />
<glyph unicode="&#x200a;" horiz-adv-x="109" />
<glyph unicode="&#x2010;" horiz-adv-x="462" d="M47 733v94h367v-94h-367z" />
<glyph unicode="&#x2011;" horiz-adv-x="462" d="M47 733v94h367v-94h-367z" />
<glyph unicode="&#x2012;" horiz-adv-x="462" d="M47 733v94h367v-94h-367z" />
<glyph unicode="&#x2013;" horiz-adv-x="671" d="M47 733v94h576v-94h-576z" />
<glyph unicode="&#x2014;" horiz-adv-x="913" d="M47 733v94h817v-94h-817z" />
<glyph unicode="&#x2018;" horiz-adv-x="247" d="M66 1090v225l61 299h51l-39 -301l4 -10h39v-213h-116z" />
<glyph unicode="&#x2019;" horiz-adv-x="247" d="M66 1401v213h116v-225l-61 -299h-51l39 301l-5 10h-38z" />
<glyph unicode="&#x201a;" horiz-adv-x="247" d="M66 20v211h116v-223l-61 -299h-51l39 301l-5 10h-38z" />
<glyph unicode="&#x201c;" horiz-adv-x="495" d="M66 1090v225l61 299h51l-39 -301l4 -10h39v-213h-116zM313 1090v225l62 299h51l-39 -301l4 -10h39v-213h-117z" />
<glyph unicode="&#x201d;" horiz-adv-x="495" d="M66 1401v213h116v-225l-61 -299h-51l39 301l-5 10h-38zM313 1401v213h117v-225l-61 -299h-52l39 301l-4 10h-39z" />
<glyph unicode="&#x201e;" horiz-adv-x="495" d="M66 20v211h116v-223l-61 -299h-51l39 301l-5 10h-38zM313 20v211h117v-223l-61 -299h-52l39 301l-4 10h-39z" />
<glyph unicode="&#x2022;" horiz-adv-x="432" d="M66 766q0 77 5 105t21 44q24 27 123 27q98 0 125 -27q14 -16 19.5 -44.5t5.5 -104.5q0 -78 -5 -105t-20 -45q-25 -28 -125 -28q-98 0 -123 28q-15 16 -20.5 45.5t-5.5 104.5z" />
<glyph unicode="&#x2026;" horiz-adv-x="745" d="M76 0v231h110v-231h-110zM317 0v231h111v-231h-111zM559 0v231h111v-231h-111z" />
<glyph unicode="&#x202f;" horiz-adv-x="394" />
<glyph unicode="&#x2039;" horiz-adv-x="331" d="M47 741v72l225 289h9v-119l-160 -203v-8l160 -201v-118h-9z" />
<glyph unicode="&#x203a;" horiz-adv-x="331" d="M47 453v118l160 203v8l-160 201v119h8l226 -289v-72l-226 -288h-8z" />
<glyph unicode="&#x205f;" horiz-adv-x="492" />
<glyph unicode="&#x20ac;" d="M33 602l10 84h43v201h-53l10 84h43q0 273 12.5 376.5t46.5 153.5q29 43 66 59.5t100 16.5q135 0 174 -94l-22 -117h-10q-20 52 -45.5 77t-75.5 25q-44 0 -64 -6t-37 -26q-26 -31 -33.5 -111.5t-7.5 -353.5h230l-10 -84h-220v-201h193l-10 -84h-183q0 -255 4 -336t17 -123 q10 -34 31 -45.5t69 -11.5q42 0 60 11.5t26 39.5q15 56 15 137q0 99 -4 150h104q4 -51 4 -150q0 -119 -22 -184q-20 -61 -60.5 -89t-120.5 -28q-84 0 -126.5 21.5t-65.5 93.5q-21 66 -28 166.5t-7 347.5h-53z" />
<glyph unicode="&#x2122;" horiz-adv-x="882" d="M45 1475v75h281v-75h-99v-660h-82v660h-100zM365 815v735h133l88 -526h8l92 526h129v-735h-78v604h-8l-115 -604h-51l-112 604h-9v-604h-77z" />
<glyph unicode="&#x25fc;" horiz-adv-x="1546" d="M0 0v1546h1546v-1546h-1546z" />
</font>
</defs>
</svg>
