<?xml version="1.0" standalone="no"?>
<!DOCTYPE svg PUBLIC "-//W3C//DTD SVG 1.1//EN" "http://www.w3.org/Graphics/SVG/1.1/DTD/svg11.dtd" >
<svg xmlns="http://www.w3.org/2000/svg" xmlns:xlink="http://www.w3.org/1999/xlink" version="1.1">
<metadata></metadata>
<defs>
<font id="built_titlingextralight" horiz-adv-x="440" >
<font-face units-per-em="2048" ascent="1561" descent="-487" />
<missing-glyph horiz-adv-x="202" />
<glyph unicode="&#x28;C&#x29;" horiz-adv-x="585" d="M53 776q0 346 9 471.5t34 202.5q23 70 67.5 98.5t129.5 28.5t129 -28.5t67 -98.5q25 -77 34 -202.5t9 -471.5q0 -347 -9 -473.5t-34 -202.5q-23 -71 -66.5 -99t-129.5 -28t-130 28t-67 99q-25 76 -34 202.5t-9 473.5zM94 776q0 -341 8.5 -465.5t32.5 -197.5 q17 -55 52.5 -77t105.5 -22t105.5 22t52.5 77q24 73 32.5 197.5t8.5 465.5q0 340 -8.5 463.5t-32.5 198.5q-19 55 -54.5 76.5t-103.5 21.5t-103.5 -21.5t-54.5 -76.5q-24 -75 -32.5 -198.5t-8.5 -463.5zM186 784q0 193 4.5 266.5t14.5 120.5q10 42 30.5 60t57.5 18 q65 0 86 -69q14 -50 14 -203q0 -61 -2 -88h-39q2 27 2 88q0 145 -14 190q-11 41 -47 41q-21 0 -32 -10t-17 -37q-10 -41 -13.5 -112t-3.5 -265q0 -311 17 -391q6 -27 17.5 -38t33.5 -11q28 0 43 41q16 47 16 207q0 59 -2 88h41q2 -27 2 -88q0 -169 -20 -225q-25 -64 -80 -64 q-38 0 -58.5 18.5t-31.5 61.5q-19 84 -19 401z" />
<glyph unicode="&#x28;R&#x29;" horiz-adv-x="585" d="M53 776q0 346 9 471.5t34 202.5q23 70 67.5 98.5t129.5 28.5t129 -28.5t67 -98.5q25 -77 34 -202.5t9 -471.5q0 -347 -9 -473.5t-34 -202.5q-23 -71 -66.5 -99t-129.5 -28t-130 28t-67 99q-25 76 -34 202.5t-9 473.5zM94 776q0 -341 8.5 -465.5t32.5 -197.5 q17 -55 52.5 -77t105.5 -22t105.5 22t52.5 77q24 73 32.5 197.5t8.5 465.5q0 340 -8.5 463.5t-32.5 198.5q-19 55 -54.5 76.5t-103.5 21.5t-103.5 -21.5t-54.5 -76.5q-24 -75 -32.5 -198.5t-8.5 -463.5zM193 319v914h116q52 0 72 -57q18 -68 18 -193q0 -127 -12 -174 q-8 -37 -29 -53v-8q15 -12 21 -39q3 -15 14 -183q11 -195 13 -207h-39q-7 46 -13 205q-5 114 -14 176q-7 29 -45 29h-62v-410h-40zM233 770h60q52 0 57 49q8 58 8 164q0 139 -16 180q-12 29 -33 29h-76v-422z" />
<glyph horiz-adv-x="0" />
<glyph horiz-adv-x="682" />
<glyph horiz-adv-x="202" />
<glyph unicode=" "  horiz-adv-x="202" />
<glyph unicode="&#x09;" horiz-adv-x="202" />
<glyph unicode="&#xa0;" horiz-adv-x="202" />
<glyph unicode="!" horiz-adv-x="188" d="M66 1614h57l-14 -1149h-27zM74 0v309h41v-309h-41z" />
<glyph unicode="&#x22;" horiz-adv-x="360" d="M59 1614h58l-13 -498h-32zM242 1614h57l-12 -498h-33z" />
<glyph unicode="#" d="M47 498v41h80v477h-80v41h80v493h41v-493h104v493h41v-493h80v-41h-80v-477h80v-41h-80v-498h-41v498h-104v-498h-41v498h-80zM168 539h104v477h-104v-477z" />
<glyph unicode="$" d="M72 1153q0 157 28 205q30 55 93 61v221h40v-219q37 -1 58.5 -15t40.5 -48q15 -26 20.5 -62t5.5 -112q0 -125 -2 -158h-41q2 33 2 158q0 112 -22 155q-12 24 -28.5 32.5t-49.5 8.5t-50.5 -9t-29.5 -32q-24 -46 -24 -186q0 -195 20 -233q14 -30 49 -58q4 -3 57 -41.5 t80 -68.5q27 -32 37.5 -85t10.5 -175q0 -176 -37 -254q-31 -64 -97 -72v-254h-40v254q-39 3 -62.5 22t-36.5 58q-20 56 -20 203q0 120 2 143h41q-2 -23 -2 -143q0 -144 18 -189q12 -28 30 -40.5t48 -12.5q63 0 84 49q31 70 31 236q0 106 -9 157.5t-30 75.5q-23 24 -73.5 61 t-68.5 52q-28 21 -49 59q-24 47 -24 256z" />
<glyph unicode="%" horiz-adv-x="573" d="M31 1143q0 330 22 395q10 31 27.5 40t52.5 9t52.5 -9t27.5 -40q23 -68 23 -395q0 -184 -4 -269.5t-17 -123.5q-10 -31 -29 -41.5t-53 -10.5t-53 10.5t-29 41.5q-13 37 -16.5 121t-3.5 272zM70 0v8l393 1542h41v-8l-395 -1542h-39zM72 1143q0 -184 3.5 -266t14.5 -115 q7 -23 43 -23q34 0 43 23q19 56 19 381q0 317 -21 381q-4 14 -13 18t-28 4t-28 -4t-13 -18q-20 -61 -20 -381zM338 410q0 330 22 395q10 31 27.5 40t52.5 9t52.5 -9t27.5 -40q23 -68 23 -395q0 -184 -4 -270t-17 -124q-10 -31 -28.5 -41t-53.5 -10t-53.5 10t-28.5 41 q-13 37 -16.5 121.5t-3.5 272.5zM379 410q0 -184 3.5 -266t14.5 -115q7 -23 43 -23q34 0 43 23q19 56 19 381q0 317 -21 381q-4 14 -13 18t-28 4t-28 -4t-13 -18q-20 -61 -20 -381z" />
<glyph unicode="&#x26;" horiz-adv-x="512" d="M53 430q0 172 23.5 251t109.5 173l-34 117q-28 91 -34.5 141t-6.5 154q0 87 3.5 139t11 89t25.5 53.5t40.5 23t62.5 6.5q53 0 78 -21t38 -91.5t13 -217.5q0 -159 -14.5 -215.5t-73.5 -118.5l-66 -69l121 -420h8l74 362h41v-8l-92 -444l96 -326v-8h-43l-67 240h-9l-14 -86 q-17 -100 -48.5 -140.5t-92.5 -40.5q-36 0 -57 7.5t-41 33t-30 75.5t-16 133t-6 208zM94 430q0 -184 12 -274.5t33 -116t64 -25.5q41 0 61.5 31.5t38.5 116.5l35 168l-139 481q-69 -82 -87 -149t-18 -232zM152 1266q0 -95 6 -140.5t32 -142.5l29 -96l47 53q53 59 64.5 108 t11.5 199q0 128 -9 190t-26 80.5t-53 18.5q-28 0 -44.5 -5.5t-29 -19.5t-18 -46.5t-8 -77.5t-2.5 -121z" />
<glyph unicode="'" horiz-adv-x="178" d="M59 1614h58l-13 -498h-32z" />
<glyph unicode="(" d="M137 741q0 519 54 798.5t149 430.5h43v-8q-98 -157 -151.5 -438t-53.5 -783q0 -508 52.5 -787.5t152.5 -432.5v-8h-43q-45 72 -78.5 162.5t-63.5 231.5t-45.5 351.5t-15.5 482.5z" />
<glyph unicode=")" d="M55 -479q100 153 152.5 432.5t52.5 787.5q0 502 -53.5 783t-151.5 438v8h43q95 -151 149 -430.5t54 -798.5q0 -272 -15.5 -482.5t-45.5 -351.5t-63.5 -231.5t-78.5 -162.5h-43v8z" />
<glyph unicode="*" horiz-adv-x="976" d="M66 1174l8 49l356 -72l6 10l-239 273l36 32l228 -282l10 2l-8 364h49l-10 -364l12 -2l227 282l39 -32l-239 -271l6 -12l356 72l8 -49l-358 -54l-4 -14l319 -172l-24 -43l-312 188l-6 -8l131 -338l-47 -18l-116 344h-13l-114 -342l-50 16l134 338l-9 8l-309 -188l-27 43 l320 174l-2 12z" />
<glyph unicode="+" d="M47 756v41h152v151h41v-151h153v-41h-153v-154h-41v154h-152z" />
<glyph unicode="," horiz-adv-x="178" d="M66 20v187h47v-199l-29 -299h-18v8l20 297l-4 6h-16z" />
<glyph unicode="-" horiz-adv-x="368" d="M51 762v41h266v-41h-266z" />
<glyph unicode="." horiz-adv-x="172" d="M66 0v207h40v-207h-40z" />
<glyph unicode="/" d="M0 -313l401 2050h41l-401 -2050h-41z" />
<glyph unicode="0" d="M53 776q0 334 6 488.5t25 224.5q16 58 44.5 73t90.5 15q61 0 90.5 -15.5t46.5 -72.5q19 -68 25 -222.5t6 -490.5q0 -337 -6 -492t-25 -223q-17 -57 -46.5 -72.5t-90.5 -15.5q-62 0 -90.5 15t-44.5 73q-19 70 -25 225.5t-6 489.5zM94 776q0 -343 5 -491.5t24 -212.5 q10 -37 28 -47.5t68 -10.5q51 0 68.5 10t29.5 48q20 62 24.5 203t4.5 501t-4.5 500.5t-24.5 202.5q-12 38 -29 47.5t-69 9.5q-50 0 -68 -10.5t-28 -46.5q-19 -64 -24 -212t-5 -491z" />
<glyph unicode="1" d="M66 1264v41h75q38 0 52.5 17.5t15.5 68.5l4 159h31v-1509h131v-41h-307v41h135v1223h-137z" />
<glyph unicode="2" d="M47 0v55l182 432q82 194 97 263q26 106 26 323q0 241 -30 371q-12 51 -34 71.5t-63 20.5q-68 0 -94 -76q-27 -77 -27 -340q0 -104 2 -155h-40q-3 77 -3 155q0 272 31 361q17 51 48.5 73.5t82.5 22.5q59 0 90.5 -27.5t46.5 -95.5q31 -134 31 -381q0 -222 -28 -334 q-21 -87 -99 -268l-180 -422l2 -8h299v-41h-340z" />
<glyph unicode="3" d="M51 455q0 64 2 82h39v-82q0 -244 24 -342.5t101 -98.5q81 0 105 82.5t24 321.5q0 210 -12 280q-17 82 -115 82h-88v41h88q47 0 65 7t31 32q15 29 19 74q4 49 4 217q0 173 -10 251.5t-34 106t-77 27.5q-73 0 -99 -92.5t-24 -327.5v-61h-39q-2 20 -2 61q-2 259 32.5 360 t131.5 101q43 0 68.5 -9t45.5 -32.5t29.5 -74t14 -122.5t4.5 -188q0 -147 -6 -217q-7 -86 -60 -127v-8q49 -14 62 -101q12 -73 12 -280q0 -90 -2 -149.5t-8.5 -113.5t-18 -85.5t-31 -55t-46 -32.5t-64.5 -9q-36 0 -62.5 12t-45 40t-30 64.5t-18 94.5t-8.5 120t-2 151z" />
<glyph unicode="4" d="M45 365v53l231 1132h64v-1144h55v-41h-55v-365h-41v365h-254zM84 414l2 -8h213v1009h-8z" />
<glyph unicode="5" d="M53 455q0 90 2 139h41q0 -24 -1 -70.5t-1 -68.5q0 -261 25 -353q13 -47 34.5 -67.5t55.5 -20.5q46 0 69 21t35 74q31 140 31 518q0 258 -39 356q-9 24 -25.5 34.5t-50.5 10.5q-48 0 -65 -22q-32 -38 -45 -93l-49 11l20 626h287v-41h-248l-16 -413q-1 -19 -9 -113l9 -2 q10 39 20 51q32 37 96 37q49 0 74 -17t41 -55q41 -103 41 -370q0 -387 -31 -527q-17 -71 -49 -99t-96 -28q-50 0 -80 27.5t-49 91.5q-16 57 -21.5 135t-5.5 228z" />
<glyph unicode="6" d="M53 776q0 357 7 511t30 218q16 43 46 57.5t85 14.5t86 -13t45 -48q27 -66 27 -299q0 -62 -2 -93h-41q2 31 2 93q0 126 -5 186t-20 90q-14 26 -31.5 34.5t-60.5 8.5q-44 0 -62.5 -9t-31.5 -40q-18 -42 -25.5 -143.5t-7.5 -305.5v-139h8q38 68 121 68q49 0 76.5 -15.5 t44.5 -52.5q43 -93 43 -381q0 -197 -9.5 -306t-33.5 -163q-18 -42 -47 -59t-76 -17q-50 0 -78.5 16t-46.5 64q-25 68 -34 228.5t-9 494.5zM94 776q0 -337 7.5 -489t29.5 -211q13 -38 31.5 -50t58.5 -12q37 0 56 12t32 46q21 48 29 150t8 296q0 283 -39 365q-19 43 -84 43 q-51 0 -82 -31q-1 -1 -6 -5.5t-6 -6t-5 -6t-5.5 -7.5t-5 -8.5t-5.5 -11t-4.5 -13t-5 -16.5t-4.5 -20v-25z" />
<glyph unicode="7" d="M53 1509v41h332v-28l-221 -1522h-41l219 1501l-2 8h-287z" />
<glyph unicode="8" d="M49 418q0 206 12 280q13 87 62 101v8q-53 41 -60 127q-6 71 -6 217q0 116 4.5 188t14 122.5t29.5 74t45.5 32.5t68.5 9t68.5 -9t45.5 -32.5t29.5 -74t14 -122.5t4.5 -188q0 -147 -6 -217q-7 -86 -60 -127v-8q49 -14 62 -101q12 -73 12 -280q0 -90 -2 -149.5t-8.5 -113.5 t-18 -85.5t-31 -55t-46 -32.5t-64.5 -9t-64.5 9t-46 32.5t-31 55t-18 85.5t-8.5 113.5t-2 149.5zM90 418q0 -239 24 -321.5t105 -82.5t105 82.5t24 321.5q0 210 -12 280q-17 82 -117 82t-117 -82q-12 -70 -12 -280zM98 1151q0 -168 4 -217q4 -45 19 -74q13 -26 31 -32.5 t67 -6.5t67 6.5t31 32.5q15 29 19 74q4 49 4 217q0 173 -10 251.5t-34 106t-77 27.5t-77 -27.5t-34 -106t-10 -251.5z" />
<glyph unicode="9" d="M53 1083q0 192 8.5 291t32.5 144q18 34 46.5 46.5t78.5 12.5q47 0 75 -10.5t46 -38.5q28 -42 37.5 -143.5t9.5 -313.5q0 -307 -53 -559q-55 -266 -152 -512h-45v4q124 287 185 653l-9 2q-20 -27 -51 -46t-61 -19q-52 0 -77.5 16t-39.5 56q-31 97 -31 417zM94 1083 q0 -314 27 -403q15 -45 80 -45q21 0 46 14t40 33q30 37 41 72q18 144 18 317q0 203 -7.5 295.5t-31.5 130.5q-14 22 -33 30.5t-55 8.5q-38 0 -56.5 -8t-31.5 -31q-22 -37 -29.5 -128t-7.5 -286z" />
<glyph unicode=":" horiz-adv-x="196" d="M78 0v207h41v-207h-41zM78 838v206h41v-206h-41z" />
<glyph unicode=";" horiz-adv-x="202" d="M78 20v187h47v-199l-29 -299h-18v8l20 297l-4 6h-16zM78 838v206h41v-206h-41z" />
<glyph unicode="&#x3c;" d="M47 760v35l338 376h8v-51l-307 -340v-8l307 -338v-51h-8z" />
<glyph unicode="=" d="M47 551v41h346v-41h-346zM47 961v40h346v-40h-346z" />
<glyph unicode="&#x3e;" d="M47 383v51l307 338v8l-307 340v51h8l338 -376v-35l-338 -377h-8z" />
<glyph unicode="?" horiz-adv-x="411" d="M55 1235q0 195 33 268.5t117 73.5q90 0 121.5 -84t31.5 -307q0 -177 -45 -293q-16 -42 -44 -93t-36 -75q-13 -36 -16.5 -63.5t-3.5 -90.5q0 -86 2 -106h-41q-2 20 -2 106q0 68 4 99.5t21 72.5q9 24 35.5 75.5t43.5 92.5q23 57 32 117t9 158q0 199 -23 274.5t-89 75.5 q-61 0 -85 -65t-24 -236q0 -127 4 -166h-41q-4 39 -4 166zM174 0v309h41v-309h-41z" />
<glyph unicode="@" horiz-adv-x="624" d="M61 498q0 418 9.5 564t33.5 204q28 70 80 99.5t133 29.5q136 0 191 -92q30 -49 41.5 -180t11.5 -494q0 -279 -3.5 -361.5t-16.5 -128.5q-9 -38 -27.5 -53.5t-52.5 -15.5q-45 0 -70 39h-8q-20 -39 -64 -39q-28 0 -44.5 15.5t-26.5 53.5q-12 45 -16.5 107.5t-4.5 202.5 q0 233 6 327.5t21 141.5t59 47q34 0 45 -50h9v29h41v-797q11 -36 53 -36q18 0 27.5 7.5t13.5 28.5q11 44 14.5 125.5t3.5 356.5q0 339 -11 474t-36 179q-41 72 -156 72q-67 0 -109.5 -24t-66.5 -81q-22 -51 -30.5 -193t-8.5 -558q0 -640 29 -756q21 -73 66.5 -103t121.5 -30 q213 0 213 285q0 67 -2 79h41q2 -12 2 -79q0 -52 -6 -95.5t-22.5 -88t-44 -74.5t-73.5 -49t-108 -19q-95 0 -147.5 35t-79.5 129q-16 62 -23.5 222.5t-7.5 543.5zM268 449q0 -224 19 -299q12 -39 32 -39q32 0 48 32v625q-4 72 -19 114t-35 42q-14 0 -20 -19 q-14 -45 -19.5 -138t-5.5 -318z" />
<glyph unicode="A" horiz-adv-x="430" d="M43 0l141 1550h74l129 -1550h-41l-41 487h-178l-43 -487h-41zM131 528h172l-65 793q-2 26 -7 89t-6 97h-8q-1 -43 -14 -186z" />
<glyph unicode="B" horiz-adv-x="448" d="M66 0v1550h184q42 0 65.5 -14.5t38.5 -50.5q21 -48 30 -124t9 -228q0 -143 -5 -192.5t-19 -86.5q-9 -27 -41 -47v-8q25 -6 43 -37q11 -21 16 -43t9.5 -95t4.5 -206q0 -161 -8.5 -230t-32.5 -120q-33 -68 -100 -68h-194zM106 41h154q27 0 41 10.5t27 40.5q20 45 26 103 t6 223q0 201 -4 248.5t-22 74.5q-15 24 -34.5 31.5t-66.5 7.5h-127v-739zM106 821h127q48 0 66 7t31 32q14 27 18 74t4 199q0 153 -7 223t-26 110q-19 43 -69 43h-144v-688z" />
<glyph unicode="C" horiz-adv-x="442" d="M53 788q0 344 6.5 467.5t24.5 198.5q15 68 46.5 95.5t90.5 27.5q54 0 86 -26.5t49 -84.5q27 -87 27 -346q0 -92 -2 -137h-41q2 45 2 137q0 250 -25 332q-13 44 -36 64t-60 20q-42 0 -64 -20t-34 -72q-16 -72 -22.5 -196t-6.5 -460q0 -334 7 -471t22 -208q12 -52 35 -73.5 t67 -21.5q63 0 90 80q29 91 29 361q0 92 -2 139h41q2 -45 2 -139q0 -289 -35 -383q-19 -51 -49 -75t-76 -24q-61 0 -92.5 28t-48.5 99q-17 75 -24 213.5t-7 474.5z" />
<glyph unicode="D" horiz-adv-x="458" d="M66 0v1550h172q58 0 87.5 -26t49.5 -97q20 -69 25.5 -183.5t5.5 -467.5q0 -349 -6 -465t-23 -192q-17 -69 -46 -94t-93 -25h-172zM106 41h132q46 0 66 17.5t32 68.5q17 76 23 191t6 458q0 349 -5 461.5t-24 177.5q-15 54 -36 74t-62 20h-132v-1468z" />
<glyph unicode="E" horiz-adv-x="391" d="M66 0v1550h274v-41h-234v-700h230v-41h-230v-727h232v-41h-272z" />
<glyph unicode="F" horiz-adv-x="366" d="M66 0v1550h270v-41h-230v-700h226v-41h-226v-768h-40z" />
<glyph unicode="G" horiz-adv-x="438" d="M53 788q0 336 6 460.5t21 185.5q18 83 49.5 113t91.5 30q128 0 144 -143q18 -140 18 -277q0 -62 -2 -80h-41q2 12 2 80q0 130 -18 270q-13 109 -103 109q-43 0 -66 -24.5t-36 -88.5q-13 -57 -19 -180t-6 -455q0 -352 6.5 -479.5t22.5 -199.5q12 -53 34 -74t64 -21t64 21 t34 76l-2 -2q15 70 22 168.5t7 328.5q0 139 -2 162h-164v41h203q4 -49 4 -203q0 -235 -7 -335.5t-22 -170.5q-17 -71 -47.5 -99t-89.5 -28q-61 0 -91.5 28t-45.5 99q-18 75 -24.5 202.5t-6.5 485.5z" />
<glyph unicode="H" horiz-adv-x="471" d="M63 0v1550h41v-741h263v741h41v-1550h-41v768h-263v-768h-41z" />
<glyph unicode="I" horiz-adv-x="176" d="M68 0v1550h41v-1550h-41z" />
<glyph unicode="J" horiz-adv-x="430" d="M43 455q0 89 4 139h41q-4 -50 -4 -139q0 -244 22.5 -342.5t96.5 -98.5q43 0 66.5 21.5t33.5 73.5q16 70 22.5 213t6.5 477v751h41v-751q0 -339 -6.5 -484t-22.5 -215q-15 -70 -47 -98.5t-94 -28.5q-35 0 -60.5 12t-43 40t-28.5 64.5t-17.5 94.5t-8.5 120t-2 151z" />
<glyph unicode="K" horiz-adv-x="460" d="M66 0v1550h40v-585q0 -22 -1 -57.5t-1 -49.5h9q14 40 37 98l231 594h41v-8l-275 -694l281 -840v-8h-39l-244 737q-16 47 -32 105h-9q2 -33 2 -111v-731h-40z" />
<glyph unicode="L" horiz-adv-x="350" d="M66 0v1550h40v-1509h220v-41h-260z" />
<glyph unicode="M" horiz-adv-x="616" d="M63 0v1550h87l137 -1194q13 -103 16 -172h8q2 57 17 172l143 1194h82v-1550h-41v1339q0 111 2 160h-8q-3 -39 -21 -160l-161 -1339h-31l-162 1339q-3 26 -10.5 79t-9.5 81h-9q2 -49 2 -160v-1339h-41z" />
<glyph unicode="N" horiz-adv-x="462" d="M63 0v1550h80l181 -1065q17 -101 30 -209h8q-4 68 -4 230v1044h41v-1550h-32l-254 1481h-9v-1481h-41z" />
<glyph unicode="O" d="M53 776q0 349 6.5 473.5t24.5 200.5q15 70 46 98.5t91 28.5q59 0 89.5 -28.5t47.5 -98.5q16 -79 22.5 -205t6.5 -469t-6.5 -471t-22.5 -205q-17 -71 -47.5 -99t-89.5 -28q-61 0 -91.5 28t-45.5 99q-18 75 -24.5 201t-6.5 475zM94 776q0 -343 6.5 -469t22.5 -198 q12 -53 34 -74t64 -21t64 21t32 74q16 77 22.5 203t6.5 464q0 343 -5.5 466t-21.5 198q-10 53 -33 74.5t-65 21.5q-41 0 -62.5 -21t-33.5 -73q-17 -78 -24 -203.5t-7 -462.5z" />
<glyph unicode="P" d="M66 0v1550h178q47 0 72.5 -24t43.5 -80q31 -105 31 -393q0 -270 -24 -379q-15 -73 -44.5 -105t-82.5 -32h-134v-537h-40zM106 578h134q35 0 54.5 24t31.5 80q24 109 24 371q0 280 -28 381q-12 40 -30 57.5t-48 17.5h-138v-931z" />
<glyph unicode="Q" d="M53 791q0 343 6.5 464.5t24.5 196.5q15 69 46 97t91 28q59 0 90.5 -28.5t46.5 -96.5q18 -73 23.5 -192.5t5.5 -468.5q0 -339 -6.5 -465t-22.5 -201q-21 -88 -65 -111q36 -136 67 -192v-8h-43q-24 43 -63 188q-10 -2 -33 -2q-60 0 -90 27.5t-47 97.5q-17 78 -24 205 t-7 461zM94 791q0 -339 6.5 -463t22.5 -195q12 -52 34 -72t64 -20h23q-33 128 -49 201v8h41q23 -112 45 -193q24 18 36 76q16 75 22.5 199.5t6.5 458.5q0 337 -5.5 457.5t-21.5 193.5q-10 52 -33 73t-65 21t-64 -21t-34 -73q-16 -72 -22.5 -193.5t-6.5 -457.5z" />
<glyph unicode="R" horiz-adv-x="450" d="M66 0v1550h186q38 0 63.5 -17.5t42.5 -57.5q35 -86 35 -342q0 -180 -12 -257t-37 -112q-10 -15 -37 -31v-8q42 -11 53 -72q15 -79 25 -311q13 -265 21 -334v-8h-41q-9 87 -21 340q-10 227 -25 309q-9 60 -92 60h-121v-709h-40zM106 750h119q37 0 56 7.5t34 30.5 q21 31 29 97.5t8 247.5q0 250 -28 319q-23 57 -72 57h-146v-759z" />
<glyph unicode="S" horiz-adv-x="415" d="M49 1245q0 191 33 258q36 74 119 74q81 0 121 -70q36 -65 36 -250q0 -122 -8 -188h-41q8 66 8 188q0 170 -32 230q-25 49 -84 49q-60 0 -82 -49q-29 -68 -29 -242q0 -164 4.5 -219.5t18.5 -89.5q15 -34 55 -74q14 -14 67 -60t76 -75q31 -44 41 -106.5t10 -231.5 q0 -129 -7 -200t-27 -119q-42 -97 -129 -97q-51 0 -79.5 24.5t-45.5 82.5q-23 76 -23 252q0 124 6 186h41q-6 -58 -6 -186q0 -164 23 -240q14 -41 33 -59.5t51 -18.5q67 0 92 72q31 77 31 303q0 158 -8.5 218t-34.5 95q-19 28 -73 73.5t-67 58.5q-45 45 -63 86 q-17 38 -22 96t-5 229z" />
<glyph unicode="T" horiz-adv-x="368" d="M23 1509v41h323v-41h-139v-1509h-41v1509h-143z" />
<glyph unicode="U" horiz-adv-x="450" d="M57 385v1165h41v-1165q0 -139 7 -199t22 -106q12 -36 35.5 -51t62.5 -15q40 0 63.5 15t35.5 51q15 43 20.5 102t5.5 203v1165h41v-1165q0 -148 -6.5 -210.5t-22.5 -108.5q-18 -51 -50 -72t-87 -21t-87 21t-50 72q-17 48 -24 110.5t-7 208.5z" />
<glyph unicode="V" horiz-adv-x="438" d="M43 1550h41l111 -1267q10 -114 18 -234h8q5 77 19 234l114 1267h41l-141 -1550h-74z" />
<glyph unicode="W" horiz-adv-x="659" d="M45 1550h41l94 -1384q8 -102 8 -117h9q0 15 8 117l106 1384h37l107 -1384q8 -106 8 -117h8q0 15 8 117l94 1384h41l-110 -1550h-74l-90 1182q-6 82 -6 125h-8q0 -29 -7 -125l-90 -1182h-73z" />
<glyph unicode="X" horiz-adv-x="446" d="M39 0v8l162 795l-146 739v8h41l94 -514q26 -145 27 -159h8q4 36 29 159l98 514h41v-8l-149 -731l162 -803v-8h-41l-113 584q-22 113 -27 149h-8q-3 -22 -12 -68t-15 -81l-110 -584h-41z" />
<glyph unicode="Y" horiz-adv-x="415" d="M29 1542v8h41l112 -561q20 -112 21 -121h8q3 27 20 121l115 561h41v-8l-160 -754v-788h-41v788z" />
<glyph unicode="Z" horiz-adv-x="442" d="M47 0v49l311 1454l-4 6h-301v41h348v-24l-313 -1479l2 -6h305v-41h-348z" />
<glyph unicode="[" d="M150 -487v2457h221v-41h-181v-2375h181v-41h-221z" />
<glyph unicode="\" d="M0 1737h41l401 -2050h-41z" />
<glyph unicode="]" d="M68 -446h180v2375h-180v41h221v-2457h-221v41z" />
<glyph unicode="^" d="M47 684v8l143 858h60l143 -858v-8h-41l-127 776h-8l-129 -776h-41z" />
<glyph unicode="_" d="M35 -135h371v-41h-371v41z" />
<glyph unicode="`" horiz-adv-x="319" d="M43 1559v8h43l145 -346v-9h-32z" />
<glyph unicode="a" horiz-adv-x="430" d="M43 0l141 1550h74l129 -1550h-41l-41 487h-178l-43 -487h-41zM131 528h172l-65 793q-2 26 -7 89t-6 97h-8q-1 -43 -14 -186z" />
<glyph unicode="b" horiz-adv-x="448" d="M66 0v1550h184q42 0 65.5 -14.5t38.5 -50.5q21 -48 30 -124t9 -228q0 -143 -5 -192.5t-19 -86.5q-9 -27 -41 -47v-8q25 -6 43 -37q11 -21 16 -43t9.5 -95t4.5 -206q0 -161 -8.5 -230t-32.5 -120q-33 -68 -100 -68h-194zM106 41h154q27 0 41 10.5t27 40.5q20 45 26 103 t6 223q0 201 -4 248.5t-22 74.5q-15 24 -34.5 31.5t-66.5 7.5h-127v-739zM106 821h127q48 0 66 7t31 32q14 27 18 74t4 199q0 153 -7 223t-26 110q-19 43 -69 43h-144v-688z" />
<glyph unicode="c" horiz-adv-x="442" d="M53 788q0 344 6.5 467.5t24.5 198.5q15 68 46.5 95.5t90.5 27.5q54 0 86 -26.5t49 -84.5q27 -87 27 -346q0 -92 -2 -137h-41q2 45 2 137q0 250 -25 332q-13 44 -36 64t-60 20q-42 0 -64 -20t-34 -72q-16 -72 -22.5 -196t-6.5 -460q0 -334 7 -471t22 -208q12 -52 35 -73.5 t67 -21.5q63 0 90 80q29 91 29 361q0 92 -2 139h41q2 -45 2 -139q0 -289 -35 -383q-19 -51 -49 -75t-76 -24q-61 0 -92.5 28t-48.5 99q-17 75 -24 213.5t-7 474.5z" />
<glyph unicode="d" horiz-adv-x="458" d="M66 0v1550h172q58 0 87.5 -26t49.5 -97q20 -69 25.5 -183.5t5.5 -467.5q0 -349 -6 -465t-23 -192q-17 -69 -46 -94t-93 -25h-172zM106 41h132q46 0 66 17.5t32 68.5q17 76 23 191t6 458q0 349 -5 461.5t-24 177.5q-15 54 -36 74t-62 20h-132v-1468z" />
<glyph unicode="e" horiz-adv-x="391" d="M66 0v1550h274v-41h-234v-700h230v-41h-230v-727h232v-41h-272z" />
<glyph unicode="f" horiz-adv-x="366" d="M66 0v1550h270v-41h-230v-700h226v-41h-226v-768h-40z" />
<glyph unicode="g" horiz-adv-x="438" d="M53 788q0 336 6 460.5t21 185.5q18 83 49.5 113t91.5 30q128 0 144 -143q18 -140 18 -277q0 -62 -2 -80h-41q2 12 2 80q0 130 -18 270q-13 109 -103 109q-43 0 -66 -24.5t-36 -88.5q-13 -57 -19 -180t-6 -455q0 -352 6.5 -479.5t22.5 -199.5q12 -53 34 -74t64 -21t64 21 t34 76l-2 -2q15 70 22 168.5t7 328.5q0 139 -2 162h-164v41h203q4 -49 4 -203q0 -235 -7 -335.5t-22 -170.5q-17 -71 -47.5 -99t-89.5 -28q-61 0 -91.5 28t-45.5 99q-18 75 -24.5 202.5t-6.5 485.5z" />
<glyph unicode="h" horiz-adv-x="471" d="M63 0v1550h41v-741h263v741h41v-1550h-41v768h-263v-768h-41z" />
<glyph unicode="i" horiz-adv-x="176" d="M68 0v1550h41v-1550h-41z" />
<glyph unicode="j" horiz-adv-x="430" d="M43 455q0 89 4 139h41q-4 -50 -4 -139q0 -244 22.5 -342.5t96.5 -98.5q43 0 66.5 21.5t33.5 73.5q16 70 22.5 213t6.5 477v751h41v-751q0 -339 -6.5 -484t-22.5 -215q-15 -70 -47 -98.5t-94 -28.5q-35 0 -60.5 12t-43 40t-28.5 64.5t-17.5 94.5t-8.5 120t-2 151z" />
<glyph unicode="k" horiz-adv-x="460" d="M66 0v1550h40v-585q0 -22 -1 -57.5t-1 -49.5h9q14 40 37 98l231 594h41v-8l-275 -694l281 -840v-8h-39l-244 737q-16 47 -32 105h-9q2 -33 2 -111v-731h-40z" />
<glyph unicode="l" horiz-adv-x="350" d="M66 0v1550h40v-1509h220v-41h-260z" />
<glyph unicode="m" horiz-adv-x="616" d="M63 0v1550h87l137 -1194q13 -103 16 -172h8q2 57 17 172l143 1194h82v-1550h-41v1339q0 111 2 160h-8q-3 -39 -21 -160l-161 -1339h-31l-162 1339q-3 26 -10.5 79t-9.5 81h-9q2 -49 2 -160v-1339h-41z" />
<glyph unicode="n" horiz-adv-x="462" d="M63 0v1550h80l181 -1065q17 -101 30 -209h8q-4 68 -4 230v1044h41v-1550h-32l-254 1481h-9v-1481h-41z" />
<glyph unicode="o" d="M53 776q0 349 6.5 473.5t24.5 200.5q15 70 46 98.5t91 28.5q59 0 89.5 -28.5t47.5 -98.5q16 -79 22.5 -205t6.5 -469t-6.5 -471t-22.5 -205q-17 -71 -47.5 -99t-89.5 -28q-61 0 -91.5 28t-45.5 99q-18 75 -24.5 201t-6.5 475zM94 776q0 -343 6.5 -469t22.5 -198 q12 -53 34 -74t64 -21t64 21t32 74q16 77 22.5 203t6.5 464q0 343 -5.5 466t-21.5 198q-10 53 -33 74.5t-65 21.5q-41 0 -62.5 -21t-33.5 -73q-17 -78 -24 -203.5t-7 -462.5z" />
<glyph unicode="p" d="M66 0v1550h178q47 0 72.5 -24t43.5 -80q31 -105 31 -393q0 -270 -24 -379q-15 -73 -44.5 -105t-82.5 -32h-134v-537h-40zM106 578h134q35 0 54.5 24t31.5 80q24 109 24 371q0 280 -28 381q-12 40 -30 57.5t-48 17.5h-138v-931z" />
<glyph unicode="q" d="M53 791q0 343 6.5 464.5t24.5 196.5q15 69 46 97t91 28q59 0 90.5 -28.5t46.5 -96.5q18 -73 23.5 -192.5t5.5 -468.5q0 -339 -6.5 -465t-22.5 -201q-21 -88 -65 -111q36 -136 67 -192v-8h-43q-24 43 -63 188q-10 -2 -33 -2q-60 0 -90 27.5t-47 97.5q-17 78 -24 205 t-7 461zM94 791q0 -339 6.5 -463t22.5 -195q12 -52 34 -72t64 -20h23q-33 128 -49 201v8h41q23 -112 45 -193q24 18 36 76q16 75 22.5 199.5t6.5 458.5q0 337 -5.5 457.5t-21.5 193.5q-10 52 -33 73t-65 21t-64 -21t-34 -73q-16 -72 -22.5 -193.5t-6.5 -457.5z" />
<glyph unicode="r" horiz-adv-x="450" d="M66 0v1550h186q38 0 63.5 -17.5t42.5 -57.5q35 -86 35 -342q0 -180 -12 -257t-37 -112q-10 -15 -37 -31v-8q42 -11 53 -72q15 -79 25 -311q13 -265 21 -334v-8h-41q-9 87 -21 340q-10 227 -25 309q-9 60 -92 60h-121v-709h-40zM106 750h119q37 0 56 7.5t34 30.5 q21 31 29 97.5t8 247.5q0 250 -28 319q-23 57 -72 57h-146v-759z" />
<glyph unicode="s" horiz-adv-x="415" d="M49 1245q0 191 33 258q36 74 119 74q81 0 121 -70q36 -65 36 -250q0 -122 -8 -188h-41q8 66 8 188q0 170 -32 230q-25 49 -84 49q-60 0 -82 -49q-29 -68 -29 -242q0 -164 4.5 -219.5t18.5 -89.5q15 -34 55 -74q14 -14 67 -60t76 -75q31 -44 41 -106.5t10 -231.5 q0 -129 -7 -200t-27 -119q-42 -97 -129 -97q-51 0 -79.5 24.5t-45.5 82.5q-23 76 -23 252q0 124 6 186h41q-6 -58 -6 -186q0 -164 23 -240q14 -41 33 -59.5t51 -18.5q67 0 92 72q31 77 31 303q0 158 -8.5 218t-34.5 95q-19 28 -73 73.5t-67 58.5q-45 45 -63 86 q-17 38 -22 96t-5 229z" />
<glyph unicode="t" horiz-adv-x="368" d="M23 1509v41h323v-41h-139v-1509h-41v1509h-143z" />
<glyph unicode="u" horiz-adv-x="450" d="M57 385v1165h41v-1165q0 -139 7 -199t22 -106q12 -36 35.5 -51t62.5 -15q40 0 63.5 15t35.5 51q15 43 20.5 102t5.5 203v1165h41v-1165q0 -148 -6.5 -210.5t-22.5 -108.5q-18 -51 -50 -72t-87 -21t-87 21t-50 72q-17 48 -24 110.5t-7 208.5z" />
<glyph unicode="v" horiz-adv-x="438" d="M43 1550h41l111 -1267q10 -114 18 -234h8q5 77 19 234l114 1267h41l-141 -1550h-74z" />
<glyph unicode="w" horiz-adv-x="659" d="M45 1550h41l94 -1384q8 -102 8 -117h9q0 15 8 117l106 1384h37l107 -1384q8 -106 8 -117h8q0 15 8 117l94 1384h41l-110 -1550h-74l-90 1182q-6 82 -6 125h-8q0 -29 -7 -125l-90 -1182h-73z" />
<glyph unicode="x" horiz-adv-x="446" d="M39 0v8l162 795l-146 739v8h41l94 -514q26 -145 27 -159h8q4 36 29 159l98 514h41v-8l-149 -731l162 -803v-8h-41l-113 584q-22 113 -27 149h-8q-3 -22 -12 -68t-15 -81l-110 -584h-41z" />
<glyph unicode="y" horiz-adv-x="415" d="M29 1542v8h41l112 -561q20 -112 21 -121h8q3 27 20 121l115 561h41v-8l-160 -754v-788h-41v788z" />
<glyph unicode="z" horiz-adv-x="442" d="M47 0v49l311 1454l-4 6h-301v41h348v-24l-313 -1479l2 -6h305v-41h-348z" />
<glyph unicode="{" d="M104 721v41h41q93 0 93 135q0 153 -34 446t-34 443q0 80 37.5 132t114.5 52h55v-41h-55q-60 0 -85.5 -36.5t-25.5 -106.5q0 -151 34 -445.5t34 -443.5q0 -48 -17 -90t-49 -64v-6q32 -21 49 -62.5t17 -88.5q0 -149 -34 -443.5t-34 -445.5q0 -70 25.5 -106.5t85.5 -36.5h55 v-41h-55q-77 0 -114.5 52t-37.5 132q0 150 34 443t34 446q0 58 -21.5 96.5t-71.5 38.5h-41z" />
<glyph unicode="|" d="M199 -487v2457h41v-2457h-41z" />
<glyph unicode="}" d="M63 -446h56q60 0 85 36.5t25 106.5q0 151 -33.5 445.5t-33.5 443.5q0 47 16.5 88.5t48.5 62.5v6q-65 45 -65 154q0 149 33.5 443.5t33.5 445.5q0 70 -25 106.5t-85 36.5h-56v41h56q77 0 114 -52t37 -132q0 -150 -33.5 -443t-33.5 -446q0 -135 92 -135h41v-41h-41 q-92 0 -92 -135q0 -153 33.5 -446t33.5 -443q0 -80 -37 -132t-114 -52h-56v41z" />
<glyph unicode="~" d="M47 750v49q22 55 80 55q56 0 111 -59q32 -37 75 -37q29 0 49 22q18 22 23 41h8v-49q-22 -55 -80 -55q-54 0 -104 53q-37 43 -82 43q-29 0 -49 -22q-18 -22 -23 -41h-8z" />
<glyph unicode="&#xa1;" horiz-adv-x="188" d="M66 -467l14 1149h26l17 -1149h-57zM74 838v309h41v-309h-41z" />
<glyph unicode="&#xa2;" d="M76 797q0 268 5.5 367.5t20.5 158.5q13 50 38.5 72.5t70.5 25.5v219h41v-221q43 -3 67 -24.5t37 -71.5q25 -97 25 -283q0 -53 -2 -82h-41q2 29 2 82q0 192 -23 275q-18 65 -88 65q-37 0 -58 -15t-30 -50q-14 -53 -19 -151t-5 -367q0 -274 5 -372.5t19 -150.5 q18 -67 88 -67q39 0 58.5 14.5t29.5 52.5q23 102 23 279q0 65 -2 98h41q2 -33 2 -98q0 -179 -25 -287q-13 -52 -36.5 -73.5t-67.5 -26.5v-254h-41v254q-46 3 -71 25t-38 75q-15 57 -20.5 158t-5.5 373z" />
<glyph unicode="&#xa3;" d="M51 623v41h99q-53 123 -73 206.5t-20 202.5q0 173 7 252t30 150q20 59 45 80.5t86 21.5t90.5 -24t44.5 -83q18 -65 22.5 -134t4.5 -216q0 -118 -2 -155h-41q2 37 2 155q0 140 -4.5 207.5t-22.5 130.5q-11 41 -32.5 59.5t-61.5 18.5q-39 0 -58 -17t-32 -57 q-23 -67 -30 -146.5t-7 -242.5q0 -123 17.5 -195.5t77.5 -213.5h174v-41h-158q29 -78 39 -145.5t10 -172.5q0 -117 -33 -211q8 -35 33.5 -57.5t60.5 -22.5q31 0 45.5 9t24.5 28h8v-49q-29 -29 -78 -29q-38 0 -68 20t-44 52h-8q-40 -72 -97 -72q-25 0 -39 17v45h9 q10 -21 30 -21q50 0 82.5 82.5t32.5 208.5q0 101 -11 170t-40 148h-115z" />
<glyph unicode="&#xa4;" horiz-adv-x="696" d="M66 522l110 111q-51 60 -51 143q0 84 51 144l-108 108l28 29l107 -109q63 53 145 53q81 0 144 -53l108 109l29 -29l-109 -108q53 -63 53 -144q0 -82 -53 -145l111 -109l-31 -28l-108 108q-62 -49 -144 -49q-83 0 -143 51l-111 -110zM166 776q0 -76 53 -129t129 -53 q77 0 130.5 53t53.5 129q0 77 -54 131t-130 54t-129 -54t-53 -131z" />
<glyph unicode="&#xa5;" d="M41 1542v8h41l133 -663h8l135 663h41v-8l-159 -754v-147h139v-41h-139v-215h139v-41h-139v-344h-41v344h-142v41h142v215h-142v41h142v147z" />
<glyph unicode="&#xa6;" d="M199 -487v997h41v-997h-41zM199 981v989h41v-989h-41z" />
<glyph unicode="&#xa7;" horiz-adv-x="477" d="M55 819q0 89 10 142.5t41 103.5q-8 52 -8 229q0 162 33 219q38 64 123 64q84 0 123 -59q22 -32 30.5 -79.5t8.5 -133.5q0 -104 -8 -162h-43q8 58 8 162q0 135 -33 188q-25 43 -86 43q-64 0 -86 -43q-29 -57 -29 -199q0 -138 5 -185t20 -77q18 -34 55 -63.5t81 -59 t67 -57.5q33 -37 43 -91t10 -200q0 -68 -0.5 -93.5t-5 -69.5t-15.5 -74t-30 -60q8 -55 8 -178q0 -112 -7 -172.5t-28 -99.5q-42 -82 -133 -82q-52 0 -81 21t-48 69q-23 68 -23 217q0 105 6 158h41q-6 -50 -6 -158q0 -134 23 -199q14 -36 34 -51.5t54 -15.5q70 0 96 61 q31 66 31 252q0 130 -9.5 182t-35.5 84q-23 27 -66.5 57t-82.5 61t-60 69q-17 32 -22 82.5t-5 197.5zM96 819q0 -138 5 -185t20 -77q18 -34 55 -63.5t81 -59t67 -57.5q16 -18 26 -49h8q21 59 21 233q0 130 -9.5 182t-35.5 84q-23 27 -65.5 56.5t-80.5 61.5t-59 73h-8 q-25 -61 -25 -199z" />
<glyph unicode="&#xa8;" horiz-adv-x="356" d="M66 1276v209h40v-209h-40zM250 1276v209h41v-209h-41z" />
<glyph unicode="&#xaa;" horiz-adv-x="284" d="M47 1004q0 96 8 141.5t23.5 58.5t48.5 13q41 0 57 -23l6 4v51q0 102 -10 133t-37 31q-28 0 -37.5 -26t-9.5 -111q0 -25 2 -39h-41q-2 12 -2 39q0 111 17.5 144.5t70.5 33.5q38 0 55 -12.5t25 -55.5t8 -137v-415q0 -9 7 -9q6 0 12 9h8v-35q-9 -15 -27 -15q-21 0 -34 19 q-27 -19 -58 -19q-23 0 -35.5 3t-25 14.5t-18.5 35.5t-9.5 64.5t-3.5 102.5zM88 1004q0 -76 6 -115.5t16 -51.5t29 -12q37 0 51 19v307q-16 25 -49 25q-23 0 -33 -10.5t-15 -46t-5 -115.5z" />
<glyph unicode="&#xab;" horiz-adv-x="417" d="M51 764v27l162 282h8v-67l-131 -226v-8l131 -223v-68h-8zM195 764v27l161 282h9v-67l-132 -226v-8l132 -223v-68h-9z" />
<glyph unicode="&#xac;" d="M47 856v41h346v-897h-41v856h-305z" />
<glyph unicode="&#xad;" horiz-adv-x="368" d="M51 762v41h266v-41h-266z" />
<glyph unicode="&#xaf;" horiz-adv-x="458" d="M66 1372v41h327v-41h-327z" />
<glyph unicode="&#xb0;" horiz-adv-x="344" d="M55 1264q0 153 4 207t17 88q11 29 32.5 42t61.5 13q42 0 64.5 -13t33.5 -42q12 -36 16.5 -91t4.5 -204q0 -150 -4.5 -206.5t-16.5 -90.5q-10 -32 -32 -44t-66 -12q-41 0 -62.5 12t-31.5 44q-12 34 -16.5 90.5t-4.5 206.5zM96 1264q0 -145 4.5 -199t14.5 -86q8 -27 55 -27 q51 0 59 27q10 32 14.5 86t4.5 199q0 148 -4 199t-15 81q-12 29 -59 29q-43 0 -55 -29q-11 -31 -15 -82.5t-4 -197.5z" />
<glyph unicode="&#xb1;" d="M47 182v41h346v-41h-346zM47 756v41h152v151h41v-151h153v-41h-153v-154h-41v154h-152z" />
<glyph unicode="&#xb2;" horiz-adv-x="303" d="M45 713v47l105 231q37 84 52 149t15 163t-7.5 152.5t-20.5 72.5t-35 18q-35 0 -47.5 -44t-12.5 -173q0 -69 2 -96h-41q-2 27 -2 96q0 152 19 205t82 53q40 0 61 -22.5t31 -83.5t10 -178q0 -107 -12.5 -168t-57.5 -160l-102 -221h168v-41h-207z" />
<glyph unicode="&#xb3;" horiz-adv-x="303" d="M47 969q0 39 2 57h41q-2 -18 -2 -57q0 -132 12 -181t47 -49q39 0 51.5 45t12.5 166q0 85 -5.5 124.5t-17.5 52t-38 12.5h-60v41h60q27 0 37.5 9.5t15 42t4.5 111.5q0 86 -6 129.5t-18 58.5t-36 15q-33 0 -46 -45t-13 -174q0 -27 2 -47h-41q-2 20 -2 47q0 154 20 207 t80 53q44 0 64 -18t28.5 -67.5t8.5 -158.5q0 -97 -6 -130.5t-25 -51.5q24 -24 29.5 -59.5t5.5 -151.5q0 -147 -20 -199.5t-85 -52.5q-62 0 -81 60.5t-19 210.5z" />
<glyph unicode="&#xb4;" horiz-adv-x="319" d="M88 1212v9l145 346h43v-8l-155 -347h-33z" />
<glyph unicode="&#xb6;" horiz-adv-x="489" d="M45 1253q0 168 24 232.5t89 64.5h266v-1759h-41v1718h-131v-1718h-41v1155h-53q-65 0 -89 67t-24 240z" />
<glyph unicode="&#xb7;" horiz-adv-x="172" d="M66 664v206h40v-206h-40z" />
<glyph unicode="&#xb8;" horiz-adv-x="288" d="M66 -479l114 395h43v-8l-125 -395h-32v8z" />
<glyph unicode="&#xb9;" horiz-adv-x="303" d="M55 713v41h74v643h-74v41h54q14 0 19 7.5t5 27.5l2 98h35v-817h76v-41h-191z" />
<glyph unicode="&#xba;" horiz-adv-x="290" d="M47 1122q0 148 2.5 197t11.5 78q9 31 28 44t54 13q69 0 82 -57q13 -51 13 -275q0 -219 -13 -276q-9 -35 -27.5 -48.5t-54.5 -13.5t-54.5 13.5t-27.5 48.5q-14 46 -14 276zM88 1122q0 -222 12 -266q8 -31 43 -31t43 31q11 53 11 266q0 219 -11 264q-5 27 -43 27 q-34 0 -43 -29q-8 -25 -10 -72.5t-2 -189.5z" />
<glyph unicode="&#xbb;" horiz-adv-x="417" d="M51 481v68l131 223v8l-131 226v67h8l162 -282v-27l-162 -283h-8zM195 481v68l131 223v8l-131 226v67h8l162 -282v-27l-162 -283h-8z" />
<glyph unicode="&#xbc;" horiz-adv-x="573" d="M27 713v41h73v643h-73v41h53q14 0 19 7.5t5 27.5l2 98h35v-817h76v-41h-190zM82 0v8l393 1542h41v-8l-395 -1542h-39zM326 176v43l127 619h57v-621h29v-41h-29v-196h-41v196h-143zM365 217h104v477h-8z" />
<glyph unicode="&#xbd;" horiz-adv-x="573" d="M18 713v41h74v643h-74v41h54q14 0 19 7.5t5 27.5l2 98h35v-817h76v-41h-191zM57 0v8l394 1542h41v-8l-396 -1542h-39zM342 -20v47l104 231q38 86 53 150t15 161q0 98 -7.5 152.5t-20.5 73t-35 18.5q-35 0 -47.5 -44t-12.5 -173q0 -69 2 -96h-41q-2 27 -2 96q0 152 19 205 t82 53q59 0 80.5 -57t21.5 -228q0 -106 -12.5 -167t-57.5 -160l-102 -222h168v-40h-207z" />
<glyph unicode="&#xbe;" horiz-adv-x="573" d="M39 969q0 39 2 57h41q-2 -18 -2 -57q0 -132 12 -181t47 -49q39 0 51.5 45t12.5 166q0 85 -6 124.5t-18 52t-38 12.5h-59v41h59q27 0 37.5 9t15.5 42t5 112q0 86 -6 129.5t-18 58.5t-36 15q-33 0 -46 -45t-13 -174q0 -27 2 -47h-41q-2 20 -2 47q0 154 20 207t80 53 q44 0 64 -18t28.5 -67.5t8.5 -158.5q0 -97 -6 -130.5t-25 -51.5q24 -24 29.5 -59.5t5.5 -151.5q0 -147 -20 -199.5t-85 -52.5q-62 0 -81 60.5t-19 210.5zM90 0v8l393 1542h41v-8l-395 -1542h-39zM322 176v43l127 619h57v-621h29v-41h-29v-196h-41v196h-143zM360 217h105v477 h-8z" />
<glyph unicode="&#xbf;" horiz-adv-x="411" d="M53 -39q0 177 45 293q16 42 44 93t36 75q13 37 17 64t4 89q0 87 -2 107h41q2 -20 2 -107q0 -68 -4 -99.5t-21 -72.5q-9 -23 -36 -74t-44 -93q-23 -57 -32 -117t-9 -158q0 -199 23.5 -274.5t89.5 -75.5q61 0 84.5 64.5t23.5 236.5q0 127 -4 166h41q4 -39 4 -166 q0 -195 -32.5 -268.5t-116.5 -73.5q-91 0 -122.5 84t-31.5 307zM197 838v309h41v-309h-41z" />
<glyph unicode="&#xc0;" horiz-adv-x="430" d="M43 0l141 1550h74l129 -1550h-41l-41 487h-178l-43 -487h-41zM51 1962v8h43l146 -346v-8h-33zM131 528h172l-65 793q-2 26 -7 89t-6 97h-8q-1 -43 -14 -186z" />
<glyph unicode="&#xc1;" horiz-adv-x="430" d="M43 0l141 1550h74l129 -1550h-41l-41 487h-178l-43 -487h-41zM131 528h172l-65 793q-2 26 -7 89t-6 97h-8q-1 -43 -14 -186zM199 1616v8l145 346h43v-8l-156 -346h-32z" />
<glyph unicode="&#xc2;" horiz-adv-x="430" d="M43 0l141 1550h74l129 -1550h-41l-41 487h-178l-43 -487h-41zM76 1616v8l123 346h41l122 -346v-8h-40l-99 289h-8l-98 -289h-41zM131 528h172l-65 793q-2 26 -7 89t-6 97h-8q-1 -43 -14 -186z" />
<glyph unicode="&#xc3;" horiz-adv-x="430" d="M43 0l141 1550h74l129 -1550h-41l-41 487h-178l-43 -487h-41zM55 1757v49q10 26 30.5 41t45.5 15q52 0 105 -60q27 -37 71 -37q27 0 47 23q15 18 21 41h8v-49q-10 -26 -30.5 -41t-45.5 -15q-51 0 -98 54q-21 24 -37.5 33.5t-40.5 9.5q-27 0 -47 -23q-15 -18 -21 -41h-8z M131 528h172l-65 793q-2 26 -7 89t-6 97h-8q-1 -43 -14 -186z" />
<glyph unicode="&#xc4;" horiz-adv-x="430" d="M43 0l141 1550h74l129 -1550h-41l-41 487h-178l-43 -487h-41zM106 1679v209h41v-209h-41zM131 528h172l-65 793q-2 26 -7 89t-6 97h-8q-1 -43 -14 -186zM291 1679v209h41v-209h-41z" />
<glyph unicode="&#xc5;" horiz-adv-x="430" d="M43 0l141 1550h74l129 -1550h-41l-41 487h-178l-43 -487h-41zM131 528h172l-65 793q-2 26 -7 89t-6 97h-8q-1 -43 -14 -186zM133 1780q0 86 3.5 113t13.5 46q9 18 23.5 24.5t45.5 6.5q32 0 46.5 -6.5t23.5 -24.5q10 -19 13 -45.5t3 -113.5t-3 -115t-13 -47 q-9 -18 -23.5 -24.5t-46.5 -6.5q-31 0 -45.5 6.5t-23.5 24.5q-10 19 -13.5 47.5t-3.5 114.5zM174 1780q0 -124 8 -140q7 -12 37 -12t37 12q8 16 8 140q0 121 -8 137q-7 12 -37 12t-37 -12q-8 -16 -8 -137z" />
<glyph unicode="&#xc6;" horiz-adv-x="634" d="M43 0l141 1550h389v-41h-233v-700h229v-41h-229v-727h231v-41h-272v487h-172l-43 -487h-41zM131 528h168v981h-80z" />
<glyph unicode="&#xc7;" horiz-adv-x="442" d="M53 788q0 344 6.5 467.5t24.5 198.5q15 68 46.5 95.5t90.5 27.5q54 0 86 -26.5t49 -84.5q27 -87 27 -346q0 -92 -2 -137h-41q2 45 2 137q0 250 -25 332q-13 44 -36 64t-60 20q-42 0 -64 -20t-34 -72q-16 -72 -22.5 -196t-6.5 -460q0 -334 7 -471t22 -208q12 -52 35 -73.5 t67 -21.5q63 0 90 80q29 91 29 361q0 92 -2 139h41q2 -45 2 -139q0 -289 -35 -383q-19 -51 -49 -75t-76 -24q-61 0 -92.5 28t-48.5 99q-17 75 -24 213.5t-7 474.5zM82 -479l115 395h43v-8l-125 -395h-33v8z" />
<glyph unicode="&#xc8;" horiz-adv-x="391" d="M35 1962v8h43l145 -346v-8h-33zM66 0v1550h274v-41h-234v-700h230v-41h-230v-727h232v-41h-272z" />
<glyph unicode="&#xc9;" horiz-adv-x="391" d="M66 0v1550h274v-41h-234v-700h230v-41h-230v-727h232v-41h-272zM182 1616v8l146 346h43v-8l-156 -346h-33z" />
<glyph unicode="&#xca;" horiz-adv-x="391" d="M59 1616v8l123 346h41l123 -346v-8h-41l-98 289h-8l-99 -289h-41zM66 0v1550h274v-41h-234v-700h230v-41h-230v-727h232v-41h-272z" />
<glyph unicode="&#xcb;" horiz-adv-x="391" d="M66 0v1550h274v-41h-234v-700h230v-41h-230v-727h232v-41h-272zM88 1679v209h41v-209h-41zM272 1679v209h41v-209h-41z" />
<glyph unicode="&#xcc;" horiz-adv-x="212" d="M-43 1962v8h43l145 -346v-8h-32zM104 0v1550h41v-1550h-41z" />
<glyph unicode="&#xcd;" horiz-adv-x="212" d="M68 0v1550h41v-1550h-41zM68 1616v8l145 346h43v-8l-156 -346h-32z" />
<glyph unicode="&#xce;" horiz-adv-x="225" d="M-31 1616v8l123 346h41l123 -346v-8h-41l-98 289h-8l-99 -289h-41zM92 0v1550h41v-1550h-41z" />
<glyph unicode="&#xcf;" horiz-adv-x="235" d="M4 1679v209h41v-209h-41zM96 0v1550h41v-1550h-41zM188 1679v209h41v-209h-41z" />
<glyph unicode="&#xd0;" horiz-adv-x="452" d="M31 768v41h28v741h172q59 0 88.5 -26.5t49.5 -96.5q20 -68 25 -181t5 -470q0 -352 -5.5 -467.5t-22.5 -189.5q-17 -69 -46.5 -94t-93.5 -25h-172v768h-28zM100 41h131q46 0 66.5 17.5t32.5 68.5q16 74 22 188.5t6 460.5q0 353 -4.5 464t-23.5 175q-15 54 -36.5 74 t-62.5 20h-131v-700h170v-41h-170v-727z" />
<glyph unicode="&#xd1;" horiz-adv-x="462" d="M63 0v1550h80l181 -1065q17 -101 30 -209h8q-4 68 -4 230v1044h41v-1550h-32l-254 1481h-9v-1481h-41zM68 1757v49q22 56 75 56q52 0 105 -60q27 -37 71 -37q28 0 48 23q14 17 20 41h8v-49q-10 -26 -30.5 -41t-45.5 -15q-51 0 -98 54q-21 24 -37.5 33.5t-40.5 9.5 q-27 0 -47 -23q-14 -17 -20 -41h-8z" />
<glyph unicode="&#xd2;" d="M51 1962v8h43l146 -346v-8h-33zM53 776q0 349 6.5 473.5t24.5 200.5q15 70 46 98.5t91 28.5q59 0 89.5 -28.5t47.5 -98.5q16 -79 22.5 -205t6.5 -469t-6.5 -471t-22.5 -205q-17 -71 -47.5 -99t-89.5 -28q-61 0 -91.5 28t-45.5 99q-18 75 -24.5 201t-6.5 475zM94 776 q0 -343 6.5 -469t22.5 -198q12 -53 34 -74t64 -21t64 21t32 74q16 77 22.5 203t6.5 464q0 343 -5.5 466t-21.5 198q-10 53 -33 74.5t-65 21.5q-41 0 -62.5 -21t-33.5 -73q-17 -78 -24 -203.5t-7 -462.5z" />
<glyph unicode="&#xd3;" d="M53 776q0 349 6.5 473.5t24.5 200.5q15 70 46 98.5t91 28.5q59 0 89.5 -28.5t47.5 -98.5q16 -79 22.5 -205t6.5 -469t-6.5 -471t-22.5 -205q-17 -71 -47.5 -99t-89.5 -28q-61 0 -91.5 28t-45.5 99q-18 75 -24.5 201t-6.5 475zM94 776q0 -343 6.5 -469t22.5 -198 q12 -53 34 -74t64 -21t64 21t32 74q16 77 22.5 203t6.5 464q0 343 -5.5 466t-21.5 198q-10 53 -33 74.5t-65 21.5q-41 0 -62.5 -21t-33.5 -73q-17 -78 -24 -203.5t-7 -462.5zM199 1616v8l145 346h43v-8l-156 -346h-32z" />
<glyph unicode="&#xd4;" d="M53 776q0 349 6.5 473.5t24.5 200.5q15 70 46 98.5t91 28.5q59 0 89.5 -28.5t47.5 -98.5q16 -79 22.5 -205t6.5 -469t-6.5 -471t-22.5 -205q-17 -71 -47.5 -99t-89.5 -28q-61 0 -91.5 28t-45.5 99q-18 75 -24.5 201t-6.5 475zM76 1616v8l123 346h41l122 -346v-8h-40 l-99 289h-8l-98 -289h-41zM94 776q0 -343 6.5 -469t22.5 -198q12 -53 34 -74t64 -21t64 21t32 74q16 77 22.5 203t6.5 464q0 343 -5.5 466t-21.5 198q-10 53 -33 74.5t-65 21.5q-41 0 -62.5 -21t-33.5 -73q-17 -78 -24 -203.5t-7 -462.5z" />
<glyph unicode="&#xd5;" d="M53 776q0 349 6.5 473.5t24.5 200.5q15 70 46 98.5t91 28.5q59 0 89.5 -28.5t47.5 -98.5q16 -79 22.5 -205t6.5 -469t-6.5 -471t-22.5 -205q-17 -71 -47.5 -99t-89.5 -28q-61 0 -91.5 28t-45.5 99q-18 75 -24.5 201t-6.5 475zM57 1757v49q10 26 30.5 41t45.5 15 q52 0 105 -60q27 -37 71 -37q27 0 47 23q15 18 21 41h8v-49q-10 -26 -30.5 -41t-45.5 -15q-51 0 -98 54q-21 24 -37.5 33.5t-40.5 9.5q-27 0 -47 -23q-14 -17 -20 -41h-9zM94 776q0 -343 6.5 -469t22.5 -198q12 -53 34 -74t64 -21t64 21t32 74q16 77 22.5 203t6.5 464 q0 343 -5.5 466t-21.5 198q-10 53 -33 74.5t-65 21.5q-41 0 -62.5 -21t-33.5 -73q-17 -78 -24 -203.5t-7 -462.5z" />
<glyph unicode="&#xd6;" d="M53 776q0 349 6.5 473.5t24.5 200.5q15 70 46 98.5t91 28.5q59 0 89.5 -28.5t47.5 -98.5q16 -79 22.5 -205t6.5 -469t-6.5 -471t-22.5 -205q-17 -71 -47.5 -99t-89.5 -28q-61 0 -91.5 28t-45.5 99q-18 75 -24.5 201t-6.5 475zM94 776q0 -343 6.5 -469t22.5 -198 q12 -53 34 -74t64 -21t64 21t32 74q16 77 22.5 203t6.5 464q0 343 -5.5 466t-21.5 198q-10 53 -33 74.5t-65 21.5q-41 0 -62.5 -21t-33.5 -73q-17 -78 -24 -203.5t-7 -462.5zM106 1679v209h41v-209h-41zM291 1679v209h41v-209h-41z" />
<glyph unicode="&#xd7;" d="M68 653l125 123l-123 121l28 29l123 -121l121 121l29 -29l-121 -121l123 -123l-29 -30l-123 125l-123 -125z" />
<glyph unicode="&#xd8;" d="M53 776q0 349 6.5 473.5t24.5 200.5q15 70 46 98.5t91 28.5q50 0 80 -21l27 191h41l-33 -236q14 -28 22 -61q16 -79 22.5 -205t6.5 -469t-6.5 -471t-22.5 -205q-17 -71 -47.5 -99t-89.5 -28q-57 0 -86 23l-35 -262h-41l41 309q-9 19 -16 57q-18 75 -24.5 201t-6.5 475z M94 776q0 -503 17 -622h6q2 29 10 86l168 1263q-23 33 -74 33q-41 0 -62.5 -21t-33.5 -73q-17 -78 -24 -203.5t-7 -462.5zM141 51q22 -37 80 -37q42 0 64 21t32 74q16 77 22.5 203t6.5 464q0 387 -10 537q-5 70 -8 92h-9q-2 -29 -10 -92z" />
<glyph unicode="&#xd9;" horiz-adv-x="450" d="M57 385v1165h41v-1165q0 -139 7 -199t22 -106q12 -36 35.5 -51t62.5 -15q40 0 63.5 15t35.5 51q15 43 20.5 102t5.5 203v1165h41v-1165q0 -148 -6.5 -210.5t-22.5 -108.5q-18 -51 -50 -72t-87 -21t-87 21t-50 72q-17 48 -24 110.5t-7 208.5zM57 1962v8h43l146 -346v-8 h-33z" />
<glyph unicode="&#xda;" horiz-adv-x="450" d="M57 385v1165h41v-1165q0 -139 7 -199t22 -106q12 -36 35.5 -51t62.5 -15q40 0 63.5 15t35.5 51q15 43 20.5 102t5.5 203v1165h41v-1165q0 -148 -6.5 -210.5t-22.5 -108.5q-18 -51 -50 -72t-87 -21t-87 21t-50 72q-17 48 -24 110.5t-7 208.5zM205 1616v8l145 346h43v-8 l-155 -346h-33z" />
<glyph unicode="&#xdb;" horiz-adv-x="450" d="M57 385v1165h41v-1165q0 -139 7 -199t22 -106q12 -36 35.5 -51t62.5 -15q40 0 63.5 15t35.5 51q15 43 20.5 102t5.5 203v1165h41v-1165q0 -148 -6.5 -210.5t-22.5 -108.5q-18 -51 -50 -72t-87 -21t-87 21t-50 72q-17 48 -24 110.5t-7 208.5zM82 1616v8l123 346h41 l123 -346v-8h-41l-99 289h-8l-98 -289h-41z" />
<glyph unicode="&#xdc;" horiz-adv-x="450" d="M57 385v1165h41v-1165q0 -139 7 -199t22 -106q12 -36 35.5 -51t62.5 -15q40 0 63.5 15t35.5 51q15 43 20.5 102t5.5 203v1165h41v-1165q0 -148 -6.5 -210.5t-22.5 -108.5q-18 -51 -50 -72t-87 -21t-87 21t-50 72q-17 48 -24 110.5t-7 208.5zM113 1679v209h41v-209h-41z M297 1679v209h41v-209h-41z" />
<glyph unicode="&#xdd;" horiz-adv-x="415" d="M29 1542v8h41l112 -561q20 -112 21 -121h8q3 27 20 121l115 561h41v-8l-160 -754v-788h-41v788zM186 1616v8l146 346h43v-8l-156 -346h-33z" />
<glyph unicode="&#xde;" d="M66 0v1550h40v-237h144q56 0 86.5 -52t42.5 -164.5t12 -318.5q0 -310 -29.5 -430.5t-111.5 -120.5h-144v-227h-40zM106 268h144q58 0 79 112t21 398q0 280 -21 387t-79 107h-144v-1004z" />
<glyph unicode="&#xdf;" horiz-adv-x="602" d="M86 0v1311q0 142 27 190q21 39 52 54.5t83 15.5q103 0 129 -70q22 -56 22 -190v-242q0 -44 7 -66t24 -45q13 -17 30 -38.5t29 -37.5t23 -34q22 -38 29.5 -102.5t7.5 -196.5q0 -168 -4.5 -270t-9.5 -137.5t-15 -71.5q-15 -54 -44 -75.5t-83 -21.5q-52 0 -79 21t-40 76 q-24 98 -24 274q0 61 2 94h41q-2 -33 -2 -94q0 -171 22 -264q9 -36 27.5 -51t52.5 -15q37 0 57.5 15t30.5 51q9 35 13.5 69t9 135t4.5 265q0 122 -6.5 183.5t-24.5 94.5q-23 42 -80 107q-39 45 -39 135v242q0 120 -20 170q-21 49 -90 49q-41 0 -63.5 -10.5t-37.5 -38.5 q-13 -26 -16.5 -61.5t-3.5 -108.5v-1311h-41z" />
<glyph unicode="&#xe0;" horiz-adv-x="430" d="M43 0l141 1550h74l129 -1550h-41l-41 487h-178l-43 -487h-41zM51 1962v8h43l146 -346v-8h-33zM131 528h172l-65 793q-2 26 -7 89t-6 97h-8q-1 -43 -14 -186z" />
<glyph unicode="&#xe1;" horiz-adv-x="430" d="M43 0l141 1550h74l129 -1550h-41l-41 487h-178l-43 -487h-41zM131 528h172l-65 793q-2 26 -7 89t-6 97h-8q-1 -43 -14 -186zM199 1616v8l145 346h43v-8l-156 -346h-32z" />
<glyph unicode="&#xe2;" horiz-adv-x="430" d="M43 0l141 1550h74l129 -1550h-41l-41 487h-178l-43 -487h-41zM76 1616v8l123 346h41l122 -346v-8h-40l-99 289h-8l-98 -289h-41zM131 528h172l-65 793q-2 26 -7 89t-6 97h-8q-1 -43 -14 -186z" />
<glyph unicode="&#xe3;" horiz-adv-x="430" d="M43 0l141 1550h74l129 -1550h-41l-41 487h-178l-43 -487h-41zM55 1757v49q10 26 30.5 41t45.5 15q52 0 105 -60q27 -37 71 -37q27 0 47 23q15 18 21 41h8v-49q-10 -26 -30.5 -41t-45.5 -15q-51 0 -98 54q-21 24 -37.5 33.5t-40.5 9.5q-27 0 -47 -23q-15 -18 -21 -41h-8z M131 528h172l-65 793q-2 26 -7 89t-6 97h-8q-1 -43 -14 -186z" />
<glyph unicode="&#xe4;" horiz-adv-x="430" d="M43 0l141 1550h74l129 -1550h-41l-41 487h-178l-43 -487h-41zM106 1679v209h41v-209h-41zM131 528h172l-65 793q-2 26 -7 89t-6 97h-8q-1 -43 -14 -186zM291 1679v209h41v-209h-41z" />
<glyph unicode="&#xe5;" horiz-adv-x="430" d="M43 0l141 1550h74l129 -1550h-41l-41 487h-178l-43 -487h-41zM131 528h172l-65 793q-2 26 -7 89t-6 97h-8q-1 -43 -14 -186zM133 1780q0 86 3.5 113t13.5 46q9 18 23.5 24.5t45.5 6.5q32 0 46.5 -6.5t23.5 -24.5q10 -19 13 -45.5t3 -113.5t-3 -115t-13 -47 q-9 -18 -23.5 -24.5t-46.5 -6.5q-31 0 -45.5 6.5t-23.5 24.5q-10 19 -13.5 47.5t-3.5 114.5zM174 1780q0 -124 8 -140q7 -12 37 -12t37 12q8 16 8 140q0 121 -8 137q-7 12 -37 12t-37 -12q-8 -16 -8 -137z" />
<glyph unicode="&#xe6;" horiz-adv-x="634" d="M43 0l141 1550h389v-41h-233v-700h229v-41h-229v-727h231v-41h-272v487h-172l-43 -487h-41zM131 528h168v981h-80z" />
<glyph unicode="&#xe7;" horiz-adv-x="442" d="M53 788q0 344 6.5 467.5t24.5 198.5q15 68 46.5 95.5t90.5 27.5q54 0 86 -26.5t49 -84.5q27 -87 27 -346q0 -92 -2 -137h-41q2 45 2 137q0 250 -25 332q-13 44 -36 64t-60 20q-42 0 -64 -20t-34 -72q-16 -72 -22.5 -196t-6.5 -460q0 -334 7 -471t22 -208q12 -52 35 -73.5 t67 -21.5q63 0 90 80q29 91 29 361q0 92 -2 139h41q2 -45 2 -139q0 -289 -35 -383q-19 -51 -49 -75t-76 -24q-61 0 -92.5 28t-48.5 99q-17 75 -24 213.5t-7 474.5zM82 -479l115 395h43v-8l-125 -395h-33v8z" />
<glyph unicode="&#xe8;" horiz-adv-x="391" d="M35 1962v8h43l145 -346v-8h-33zM66 0v1550h274v-41h-234v-700h230v-41h-230v-727h232v-41h-272z" />
<glyph unicode="&#xe9;" horiz-adv-x="391" d="M66 0v1550h274v-41h-234v-700h230v-41h-230v-727h232v-41h-272zM182 1616v8l146 346h43v-8l-156 -346h-33z" />
<glyph unicode="&#xea;" horiz-adv-x="391" d="M59 1616v8l123 346h41l123 -346v-8h-41l-98 289h-8l-99 -289h-41zM66 0v1550h274v-41h-234v-700h230v-41h-230v-727h232v-41h-272z" />
<glyph unicode="&#xeb;" horiz-adv-x="391" d="M66 0v1550h274v-41h-234v-700h230v-41h-230v-727h232v-41h-272zM88 1679v209h41v-209h-41zM272 1679v209h41v-209h-41z" />
<glyph unicode="&#xec;" horiz-adv-x="212" d="M-43 1962v8h43l145 -346v-8h-32zM104 0v1550h41v-1550h-41z" />
<glyph unicode="&#xed;" horiz-adv-x="212" d="M68 0v1550h41v-1550h-41zM68 1616v8l145 346h43v-8l-156 -346h-32z" />
<glyph unicode="&#xee;" horiz-adv-x="225" d="M-31 1616v8l123 346h41l123 -346v-8h-41l-98 289h-8l-99 -289h-41zM92 0v1550h41v-1550h-41z" />
<glyph unicode="&#xef;" horiz-adv-x="235" d="M4 1679v209h41v-209h-41zM96 0v1550h41v-1550h-41zM188 1679v209h41v-209h-41z" />
<glyph unicode="&#xf0;" horiz-adv-x="452" d="M31 768v41h28v741h172q59 0 88.5 -26.5t49.5 -96.5q20 -68 25 -181t5 -470q0 -352 -5.5 -467.5t-22.5 -189.5q-17 -69 -46.5 -94t-93.5 -25h-172v768h-28zM100 41h131q46 0 66.5 17.5t32.5 68.5q16 74 22 188.5t6 460.5q0 353 -4.5 464t-23.5 175q-15 54 -36.5 74 t-62.5 20h-131v-700h170v-41h-170v-727z" />
<glyph unicode="&#xf1;" horiz-adv-x="462" d="M63 0v1550h80l181 -1065q17 -101 30 -209h8q-4 68 -4 230v1044h41v-1550h-32l-254 1481h-9v-1481h-41zM68 1757v49q22 56 75 56q52 0 105 -60q27 -37 71 -37q28 0 48 23q14 17 20 41h8v-49q-10 -26 -30.5 -41t-45.5 -15q-51 0 -98 54q-21 24 -37.5 33.5t-40.5 9.5 q-27 0 -47 -23q-14 -17 -20 -41h-8z" />
<glyph unicode="&#xf2;" d="M51 1962v8h43l146 -346v-8h-33zM53 776q0 349 6.5 473.5t24.5 200.5q15 70 46 98.5t91 28.5q59 0 89.5 -28.5t47.5 -98.5q16 -79 22.5 -205t6.5 -469t-6.5 -471t-22.5 -205q-17 -71 -47.5 -99t-89.5 -28q-61 0 -91.5 28t-45.5 99q-18 75 -24.5 201t-6.5 475zM94 776 q0 -343 6.5 -469t22.5 -198q12 -53 34 -74t64 -21t64 21t32 74q16 77 22.5 203t6.5 464q0 343 -5.5 466t-21.5 198q-10 53 -33 74.5t-65 21.5q-41 0 -62.5 -21t-33.5 -73q-17 -78 -24 -203.5t-7 -462.5z" />
<glyph unicode="&#xf3;" d="M53 776q0 349 6.5 473.5t24.5 200.5q15 70 46 98.5t91 28.5q59 0 89.5 -28.5t47.5 -98.5q16 -79 22.5 -205t6.5 -469t-6.5 -471t-22.5 -205q-17 -71 -47.5 -99t-89.5 -28q-61 0 -91.5 28t-45.5 99q-18 75 -24.5 201t-6.5 475zM94 776q0 -343 6.5 -469t22.5 -198 q12 -53 34 -74t64 -21t64 21t32 74q16 77 22.5 203t6.5 464q0 343 -5.5 466t-21.5 198q-10 53 -33 74.5t-65 21.5q-41 0 -62.5 -21t-33.5 -73q-17 -78 -24 -203.5t-7 -462.5zM199 1616v8l145 346h43v-8l-156 -346h-32z" />
<glyph unicode="&#xf4;" d="M53 776q0 349 6.5 473.5t24.5 200.5q15 70 46 98.5t91 28.5q59 0 89.5 -28.5t47.5 -98.5q16 -79 22.5 -205t6.5 -469t-6.5 -471t-22.5 -205q-17 -71 -47.5 -99t-89.5 -28q-61 0 -91.5 28t-45.5 99q-18 75 -24.5 201t-6.5 475zM76 1616v8l123 346h41l122 -346v-8h-40 l-99 289h-8l-98 -289h-41zM94 776q0 -343 6.5 -469t22.5 -198q12 -53 34 -74t64 -21t64 21t32 74q16 77 22.5 203t6.5 464q0 343 -5.5 466t-21.5 198q-10 53 -33 74.5t-65 21.5q-41 0 -62.5 -21t-33.5 -73q-17 -78 -24 -203.5t-7 -462.5z" />
<glyph unicode="&#xf5;" d="M53 776q0 349 6.5 473.5t24.5 200.5q15 70 46 98.5t91 28.5q59 0 89.5 -28.5t47.5 -98.5q16 -79 22.5 -205t6.5 -469t-6.5 -471t-22.5 -205q-17 -71 -47.5 -99t-89.5 -28q-61 0 -91.5 28t-45.5 99q-18 75 -24.5 201t-6.5 475zM57 1757v49q10 26 30.5 41t45.5 15 q52 0 105 -60q27 -37 71 -37q27 0 47 23q15 18 21 41h8v-49q-10 -26 -30.5 -41t-45.5 -15q-51 0 -98 54q-21 24 -37.5 33.5t-40.5 9.5q-27 0 -47 -23q-14 -17 -20 -41h-9zM94 776q0 -343 6.5 -469t22.5 -198q12 -53 34 -74t64 -21t64 21t32 74q16 77 22.5 203t6.5 464 q0 343 -5.5 466t-21.5 198q-10 53 -33 74.5t-65 21.5q-41 0 -62.5 -21t-33.5 -73q-17 -78 -24 -203.5t-7 -462.5z" />
<glyph unicode="&#xf6;" d="M53 776q0 349 6.5 473.5t24.5 200.5q15 70 46 98.5t91 28.5q59 0 89.5 -28.5t47.5 -98.5q16 -79 22.5 -205t6.5 -469t-6.5 -471t-22.5 -205q-17 -71 -47.5 -99t-89.5 -28q-61 0 -91.5 28t-45.5 99q-18 75 -24.5 201t-6.5 475zM94 776q0 -343 6.5 -469t22.5 -198 q12 -53 34 -74t64 -21t64 21t32 74q16 77 22.5 203t6.5 464q0 343 -5.5 466t-21.5 198q-10 53 -33 74.5t-65 21.5q-41 0 -62.5 -21t-33.5 -73q-17 -78 -24 -203.5t-7 -462.5zM106 1679v209h41v-209h-41zM291 1679v209h41v-209h-41z" />
<glyph unicode="&#xf7;" d="M47 756v41h346v-41h-346zM199 344v207h41v-207h-41zM199 1001v207h41v-207h-41z" />
<glyph unicode="&#xf8;" d="M53 776q0 349 6.5 473.5t24.5 200.5q15 70 46 98.5t91 28.5q50 0 80 -21l27 191h41l-33 -236q14 -28 22 -61q16 -79 22.5 -205t6.5 -469t-6.5 -471t-22.5 -205q-17 -71 -47.5 -99t-89.5 -28q-57 0 -86 23l-35 -262h-41l41 309q-9 19 -16 57q-18 75 -24.5 201t-6.5 475z M94 776q0 -503 17 -622h6q2 29 10 86l168 1263q-23 33 -74 33q-41 0 -62.5 -21t-33.5 -73q-17 -78 -24 -203.5t-7 -462.5zM141 51q22 -37 80 -37q42 0 64 21t32 74q16 77 22.5 203t6.5 464q0 387 -10 537q-5 70 -8 92h-9q-2 -29 -10 -92z" />
<glyph unicode="&#xf9;" horiz-adv-x="450" d="M57 385v1165h41v-1165q0 -139 7 -199t22 -106q12 -36 35.5 -51t62.5 -15q40 0 63.5 15t35.5 51q15 43 20.5 102t5.5 203v1165h41v-1165q0 -148 -6.5 -210.5t-22.5 -108.5q-18 -51 -50 -72t-87 -21t-87 21t-50 72q-17 48 -24 110.5t-7 208.5zM57 1962v8h43l146 -346v-8 h-33z" />
<glyph unicode="&#xfa;" horiz-adv-x="450" d="M57 385v1165h41v-1165q0 -139 7 -199t22 -106q12 -36 35.5 -51t62.5 -15q40 0 63.5 15t35.5 51q15 43 20.5 102t5.5 203v1165h41v-1165q0 -148 -6.5 -210.5t-22.5 -108.5q-18 -51 -50 -72t-87 -21t-87 21t-50 72q-17 48 -24 110.5t-7 208.5zM205 1616v8l145 346h43v-8 l-155 -346h-33z" />
<glyph unicode="&#xfb;" horiz-adv-x="450" d="M57 385v1165h41v-1165q0 -139 7 -199t22 -106q12 -36 35.5 -51t62.5 -15q40 0 63.5 15t35.5 51q15 43 20.5 102t5.5 203v1165h41v-1165q0 -148 -6.5 -210.5t-22.5 -108.5q-18 -51 -50 -72t-87 -21t-87 21t-50 72q-17 48 -24 110.5t-7 208.5zM82 1616v8l123 346h41 l123 -346v-8h-41l-99 289h-8l-98 -289h-41z" />
<glyph unicode="&#xfc;" horiz-adv-x="450" d="M57 385v1165h41v-1165q0 -139 7 -199t22 -106q12 -36 35.5 -51t62.5 -15q40 0 63.5 15t35.5 51q15 43 20.5 102t5.5 203v1165h41v-1165q0 -148 -6.5 -210.5t-22.5 -108.5q-18 -51 -50 -72t-87 -21t-87 21t-50 72q-17 48 -24 110.5t-7 208.5zM113 1679v209h41v-209h-41z M297 1679v209h41v-209h-41z" />
<glyph unicode="&#xfd;" horiz-adv-x="415" d="M29 1542v8h41l112 -561q20 -112 21 -121h8q3 27 20 121l115 561h41v-8l-160 -754v-788h-41v788zM186 1616v8l146 346h43v-8l-156 -346h-33z" />
<glyph unicode="&#xfe;" d="M66 0v1550h40v-237h144q56 0 86.5 -52t42.5 -164.5t12 -318.5q0 -310 -29.5 -430.5t-111.5 -120.5h-144v-227h-40zM106 268h144q58 0 79 112t21 398q0 280 -21 387t-79 107h-144v-1004z" />
<glyph unicode="&#xff;" horiz-adv-x="415" d="M29 1542v8h41l112 -561q20 -112 21 -121h8q3 27 20 121l115 561h41v-8l-160 -754v-788h-41v788zM94 1679v209h41v-209h-41zM279 1679v209h40v-209h-40z" />
<glyph unicode="&#x152;" horiz-adv-x="686" d="M53 776q0 353 5.5 467.5t25.5 183.5q20 71 49.5 97t87.5 26h406v-41h-234v-700h230v-41h-230v-727h232v-41h-404q-64 0 -93 25t-46 94q-17 76 -23 192t-6 465zM94 776q0 -343 6 -458t23 -191q12 -51 32 -68.5t66 -17.5h131v1468h-131q-41 0 -62 -20t-36 -74 q-19 -65 -24 -177.5t-5 -461.5z" />
<glyph unicode="&#x153;" horiz-adv-x="686" d="M53 776q0 353 5.5 467.5t25.5 183.5q20 71 49.5 97t87.5 26h406v-41h-234v-700h230v-41h-230v-727h232v-41h-404q-64 0 -93 25t-46 94q-17 76 -23 192t-6 465zM94 776q0 -343 6 -458t23 -191q12 -51 32 -68.5t66 -17.5h131v1468h-131q-41 0 -62 -20t-36 -74 q-19 -65 -24 -177.5t-5 -461.5z" />
<glyph unicode="&#x178;" horiz-adv-x="415" d="M29 1542v8h41l112 -561q20 -112 21 -121h8q3 27 20 121l115 561h41v-8l-160 -754v-788h-41v788zM94 1679v209h41v-209h-41zM279 1679v209h40v-209h-40z" />
<glyph unicode="&#x2c6;" horiz-adv-x="417" d="M66 1212v9l122 346h41l123 -346v-9h-41l-98 289h-8l-99 -289h-40z" />
<glyph unicode="&#x2dc;" horiz-adv-x="458" d="M66 1354v49q22 55 75 55t105 -59q27 -37 71 -37q28 0 48 22q14 17 20 41h8v-49q-22 -55 -76 -55q-52 0 -98 53q-21 24 -37.5 33.5t-40.5 9.5q-27 0 -47 -22q-14 -17 -20 -41h-8z" />
<glyph unicode="&#x2000;" horiz-adv-x="985" />
<glyph unicode="&#x2001;" horiz-adv-x="1970" />
<glyph unicode="&#x2002;" horiz-adv-x="985" />
<glyph unicode="&#x2003;" horiz-adv-x="1970" />
<glyph unicode="&#x2004;" horiz-adv-x="656" />
<glyph unicode="&#x2005;" horiz-adv-x="492" />
<glyph unicode="&#x2006;" horiz-adv-x="328" />
<glyph unicode="&#x2007;" horiz-adv-x="328" />
<glyph unicode="&#x2008;" horiz-adv-x="246" />
<glyph unicode="&#x2009;" horiz-adv-x="394" />
<glyph unicode="&#x200a;" horiz-adv-x="109" />
<glyph unicode="&#x2010;" horiz-adv-x="368" d="M51 762v41h266v-41h-266z" />
<glyph unicode="&#x2011;" horiz-adv-x="368" d="M51 762v41h266v-41h-266z" />
<glyph unicode="&#x2012;" horiz-adv-x="368" d="M51 762v41h266v-41h-266z" />
<glyph unicode="&#x2013;" horiz-adv-x="520" d="M51 762v41h418v-41h-418z" />
<glyph unicode="&#x2014;" horiz-adv-x="696" d="M51 762v41h594v-41h-594z" />
<glyph unicode="&#x2018;" horiz-adv-x="178" d="M66 1116v199l28 299h19v-8l-21 -297l4 -6h17v-187h-47z" />
<glyph unicode="&#x2019;" horiz-adv-x="178" d="M66 1116v8l20 297l-4 6h-16v187h47v-199l-29 -299h-18z" />
<glyph unicode="&#x201a;" horiz-adv-x="178" d="M66 20v187h47v-199l-29 -299h-18v8l20 297l-4 6h-16z" />
<glyph unicode="&#x201c;" horiz-adv-x="356" d="M66 1116v199l28 299h19v-8l-21 -297l4 -6h17v-187h-47zM244 1116v199l28 299h19v-8l-21 -297l4 -6h17v-187h-47z" />
<glyph unicode="&#x201d;" horiz-adv-x="356" d="M66 1116v8l20 297l-4 6h-16v187h47v-199l-29 -299h-18zM244 1116v8l20 297l-4 6h-16v187h47v-199l-29 -299h-18z" />
<glyph unicode="&#x201e;" horiz-adv-x="356" d="M66 20v187h47v-199l-29 -299h-18v8l20 297l-4 6h-16zM244 20v187h47v-199l-29 -299h-18v8l20 297l-4 6h-16z" />
<glyph unicode="&#x2022;" horiz-adv-x="348" d="M66 766q0 61 3.5 83t14.5 34q18 20 90 20q73 0 90 -20q11 -13 15 -35t4 -82q0 -59 -4 -80.5t-15 -34.5q-19 -22 -90 -22t-90 22q-18 21 -18 115z" />
<glyph unicode="&#x2026;" horiz-adv-x="493" d="M76 0v207h41v-207h-41zM225 0v207h41v-207h-41zM375 0v207h41v-207h-41z" />
<glyph unicode="&#x202f;" horiz-adv-x="394" />
<glyph unicode="&#x2039;" horiz-adv-x="274" d="M51 764v27l162 282h8v-67l-131 -226v-8l131 -223v-68h-8z" />
<glyph unicode="&#x203a;" horiz-adv-x="274" d="M51 481v68l131 223v8l-131 226v67h8l162 -282v-27l-162 -283h-8z" />
<glyph unicode="&#x205f;" horiz-adv-x="492" />
<glyph unicode="&#x20ac;" d="M37 625l4 41h35v243h-39l4 41h35q0 141 8 363q4 112 23.5 170t51.5 76t91 18q95 0 117 -94l-9 -58h-8q-15 58 -35.5 84.5t-64.5 26.5t-67.5 -15.5t-38 -64t-19.5 -145.5q-8 -145 -8 -361h200l-4 -41h-196v-243h174l-4 -41h-170q0 -287 10 -420q6 -88 20.5 -130t34 -51.5 t60.5 -9.5q33 0 54 15.5t32 50t15.5 79t4.5 111.5q0 101 -4 154h41q4 -53 4 -154q0 -157 -30.5 -227t-116.5 -70q-34 0 -53 3t-39 15t-31 37t-19.5 67t-13.5 106q-10 136 -10 424h-39z" />
<glyph unicode="&#x2122;" horiz-adv-x="673" d="M49 1509v41h203v-41h-80v-694h-41v694h-82zM281 815v735h79l78 -587h8l86 587h76v-735h-41v672h-8l-98 -672h-35l-96 672h-8v-672h-41z" />
<glyph unicode="&#x25fc;" horiz-adv-x="1546" d="M0 0v1546h1546v-1546h-1546z" />
</font>
</defs>
</svg>
